<svg enable-background="new 0 0 512 512" height="512" viewBox="0 0 512 512" width="512" xmlns="http://www.w3.org/2000/svg"><path d="m450.667 46.667h-389.334c-13.807 0-25 11.193-25 25v101.462c0 13.807 11.193 25 25 25h146.072l39.557 45.616c4.08 4.705 12.459 4.584 16.345-.236l36.591-45.38h150.769c13.807 0 25-11.193 25-25v-101.462c0-13.807-11.193-25-25-25z" fill="#fff4c1"/><g fill="#ffc34c"><path d="m79.796 88.275-7.535 15.268c-.778 1.577-2.283 2.67-4.023 2.923l-16.85 2.448c-3.506.509-4.906 4.818-2.369 7.29l12.193 11.885c1.259 1.227 1.834 2.996 1.537 4.729l-2.878 16.782c-.599 3.492 3.066 6.154 6.202 4.506l15.071-7.923c1.556-.818 3.416-.818 4.972 0l15.071 7.923c3.136 1.649 6.8-1.014 6.202-4.506l-2.878-16.782c-.297-1.733.277-3.502 1.537-4.729l12.193-11.885c2.537-2.473 1.137-6.781-2.369-7.29l-16.85-2.448c-1.74-.253-3.245-1.346-4.023-2.923l-7.535-15.268c-1.57-3.176-6.1-3.176-7.668 0z"/><path d="m164.813 88.275-7.535 15.268c-.778 1.577-2.283 2.67-4.023 2.923l-16.85 2.448c-3.506.509-4.906 4.818-2.369 7.29l12.193 11.885c1.259 1.227 1.834 2.996 1.537 4.729l-2.878 16.782c-.599 3.492 3.066 6.154 6.202 4.506l15.071-7.923c1.556-.818 3.416-.818 4.972 0l15.071 7.923c3.136 1.649 6.8-1.014 6.202-4.506l-2.878-16.782c-.297-1.733.277-3.502 1.537-4.729l12.193-11.885c2.537-2.473 1.137-6.781-2.369-7.29l-16.85-2.448c-1.74-.253-3.245-1.346-4.023-2.923l-7.535-15.268c-1.571-3.176-6.101-3.176-7.668 0z"/><path d="m249.829 88.275-7.535 15.268c-.778 1.577-2.283 2.67-4.023 2.923l-16.85 2.448c-3.506.509-4.906 4.818-2.369 7.29l12.193 11.885c1.259 1.227 1.834 2.996 1.537 4.729l-2.878 16.782c-.599 3.492 3.066 6.154 6.202 4.506l15.071-7.923c1.556-.818 3.416-.818 4.972 0l15.071 7.923c3.136 1.649 6.8-1.014 6.202-4.506l-2.878-16.782c-.297-1.733.277-3.502 1.537-4.729l12.193-11.885c2.537-2.473 1.137-6.781-2.369-7.29l-16.85-2.448c-1.74-.253-3.245-1.346-4.023-2.923l-7.535-15.268c-1.57-3.176-6.1-3.176-7.668 0z"/><path d="m338.503 88.275-7.535 15.268c-.778 1.577-2.283 2.67-4.023 2.923l-16.85 2.448c-3.506.509-4.906 4.818-2.369 7.29l12.193 11.885c1.259 1.227 1.834 2.996 1.537 4.729l-2.878 16.782c-.599 3.492 3.066 6.154 6.202 4.506l15.071-7.923c1.556-.818 3.416-.818 4.972 0l15.071 7.923c3.136 1.649 6.8-1.014 6.202-4.506l-2.878-16.782c-.297-1.733.277-3.502 1.537-4.729l12.193-11.885c2.537-2.473 1.137-6.781-2.369-7.29l-16.85-2.448c-1.74-.253-3.245-1.346-4.023-2.923l-7.535-15.268c-1.57-3.176-6.1-3.176-7.668 0z"/><path d="m426.262 88.275-7.535 15.268c-.778 1.577-2.283 2.67-4.023 2.923l-16.85 2.448c-3.506.509-4.906 4.818-2.369 7.29l12.193 11.885c1.259 1.227 1.834 2.996 1.537 4.729l-2.878 16.782c-.599 3.492 3.066 6.154 6.202 4.506l15.071-7.923c1.556-.818 3.416-.818 4.972 0l15.071 7.923c3.136 1.649 6.8-1.014 6.202-4.506l-2.878-16.782c-.297-1.733.277-3.502 1.537-4.729l12.193-11.885c2.537-2.473 1.137-6.781-2.369-7.29l-16.85-2.448c-1.74-.253-3.245-1.346-4.023-2.923l-7.535-15.268c-1.57-3.176-6.1-3.176-7.668 0z"/></g><path d="m247.405 198.128h-40l39.557 45.616c4.08 4.705 12.459 4.584 16.345-.236l11.299-14.013z" fill="#fce575"/><path d="m76.333 173.128v-101.461c0-13.807 11.193-25 25-25h-40c-13.807 0-25 11.193-25 25v101.462c0 13.807 11.193 25 25 25h40c-13.807-.001-25-11.193-25-25.001z" fill="#fce575"/><path d="m66.071 154.107 10.262-5.395v-53.421l-4.073 8.253c-.778 1.577-2.283 2.67-4.023 2.923l-16.85 2.448c-3.506.509-4.906 4.818-2.369 7.29l12.193 11.885c1.259 1.227 1.834 2.996 1.537 4.729l-2.878 16.782c-.599 3.492 3.066 6.154 6.201 4.506z" fill="#ffb74b"/><path d="m444.184 361.188c2.841-2.265 4.679-5.862 4.679-9.914v-4.966c0-10.636-8.157-19.259-18.219-19.259h-10.879-77.59c-6.487 0-11.746-5.559-11.746-12.416v-38.626c0-16.502-12.655-29.879-28.266-29.879-7.035 0-12.738 6.028-12.738 13.465v46.59c0 12.639-4.97 24.709-13.722 33.321l-16.836 16.568h-101.537v99.743h101.537l17.381 14.299.002-.023c2.78 2.201 6.221 3.521 9.962 3.521h23.884 109.669.921c10.062 0 18.219-8.623 18.219-19.259v-10.853c0-1.702-.325-3.323-.912-4.799-.465-1.168-.036-2.545 1.029-3.127 3.771-2.064 6.35-6.22 6.35-11.019v-15.921c0-3.159-1.121-6.037-2.961-8.225-.836-.994-.753-2.517.168-3.423 2.3-2.264 3.742-5.486 3.742-9.071v-15.425c0-2.923-.959-5.604-2.56-7.722-.846-1.118-.656-2.72.423-3.58z" fill="#ffeacf"/><path d="m302.162 246.128c-7.035 0-12.738 6.028-12.738 13.465v46.59c0 12.639-4.97 24.709-13.722 33.321l-16.836 16.568h-15.452-86.084-4.966v99.743h4.966 16.555 69.53v-80.705c0-3.657 2.965-6.622 6.622-6.622h18.605c4.345 0 8.515-1.708 11.612-4.755l12.004-11.813c8.751-8.612 13.722-20.682 13.722-33.321v-46.59c0-7.436 5.703-13.465 12.738-13.465 2.41 0 4.749.321 6.983.921-5.067-8.038-13.716-13.337-23.539-13.337z" fill="#ffd59a"/><path d="m212.022 481.922h-123.871c-8.284 0-15-6.716-15-15v-121.956c0-8.284 6.716-15 15-15h123.871c8.284 0 15 6.716 15 15v121.956c0 8.284-6.715 15-15 15z" fill="#ff624b"/><path d="m126.954 457.089c-6.857 0-12.416-5.559-12.416-12.416v-114.707h-28.971c-6.857 0-12.416 5.559-12.416 12.416v127.123c0 6.857 5.559 12.416 12.416 12.416h129.039c6.857 0 12.416-5.559 12.416-12.416v-12.416z" fill="#ff4b34"/><circle cx="133.71" cy="410.417" fill="#ff4b34" r="13.091"/><path d="m411.697 461.904h-80.015c-3.313 0-6-2.686-6-6s2.687-6 6-6h80.015c3.313 0 6 2.686 6 6s-2.686 6-6 6z" fill="#fcf9de"/></svg>