<svg enable-background="new 0 0 512 512" viewBox="0 0 512 512" xmlns="http://www.w3.org/2000/svg"><path d="m153.208 509.846c-.493-.451-12.189-11.261-20.052-28.92-7.387-16.587-12.739-42.533 3.7-71.938 20.364-36.422 10.579-55.918 10.474-56.104-2.228-3.972-.819-9.002 3.145-11.233 3.963-2.232 8.982-.82 11.21 3.152.61 1.091 14.694 27.251-10.465 72.25-10.518 18.813-11.537 38.04-3.029 57.15 6.479 14.55 16.017 23.365 16.111 23.453 3.36 3.069 3.6 8.287.536 11.654-3.074 3.371-8.281 3.6-11.63.536z" fill="#bad8e8"/><path d="m333.881 505.473c-3.063-3.359-2.823-8.565.535-11.629 1.722-1.587 42.208-39.764 14.509-89.197-27.382-48.863-12.139-77.119-11.476-78.297l14.353 8.062.06-.111c-.461.888-11.052 22.186 11.425 62.299 17.872 31.893 12.053 60.031 4.026 78.019-8.557 19.178-21.265 30.899-21.803 31.388-3.357 3.065-8.564 2.826-11.629-.534z" fill="#bad8e8"/><path d="m456.453 224.787c-22.865 42.952-64.395 71.666-111.829 71.666-72.113 0-130.574-66.364-130.574-148.227.001-81.863 58.462-148.226 130.574-148.226 91.388 0 154.514 104.115 122.089 200.899" fill="#17ddc0"/><path d="m460.375 215.652c-78.407 72.835-197.669 9.895-197.669-106.409 0-39.962 15.029-75.934 39.016-101.046-51.038 20.149-87.672 75.229-87.672 140.029 0 75.83 50.165 138.352 114.874 147.156l-5.772 28.685c-1.414 7.006 1.621 10.156 7.302 10.156h31.647c4.503 0 7.468-3.011 6.252-9.429l-5.636-29.769c43.438-6.843 79.839-37.875 97.658-79.373z" fill="#0dbaa1"/><path d="m231.04 75.077c-77.094-71.597-194.368-9.731-194.368 104.642 0 74.633 53.299 135.138 119.044 135.138 41.061 0 77.267-23.602 98.666-59.506-44.234-48.031-52.205-122.644-23.342-180.274z" fill="#ffca54"/><path d="m235.436 280.073c-78.38 12.961-148.7-47.556-148.7-125.982 0-46.299 24.639-86.842 61.519-109.237-62.269 4.373-111.583 63.077-111.583 134.865 0 69.126 45.724 126.122 104.71 134.159l-5.607 27.864c-.301 2.696.208 7.454 7.55 7.454h27.622c4.564 0 7.492-2.844 6.4-8.605 0 0-4.149-21.916-5.117-27.03 24.137-3.805 45.958-15.822 63.206-33.488z" fill="#f99830"/></svg>