<svg enable-background="new 0 0 512 512" viewBox="0 0 512 512" xmlns="http://www.w3.org/2000/svg"><path d="m495.304 512h-478.608c-9.217 0-16.696-7.479-16.696-16.696v-478.608c0-9.217 7.479-16.696 16.696-16.696h478.609c9.216 0 16.695 7.479 16.695 16.696v478.609c0 9.216-7.479 16.695-16.696 16.695z" fill="#6dc82a"/><path d="m495.304 0h-239.304v512h239.304c9.217 0 16.696-7.479 16.696-16.696v-478.608c0-9.217-7.479-16.696-16.696-16.696z" fill="#61b325"/><path d="m183.652 445.217h-44.522c-21.478 0-38.957-17.478-38.957-38.957v-109.956l-28.499-28.499c-6.521-6.521-6.521-17.087 0-23.609l28.499-28.501v-109.956c0-21.478 17.478-38.957 38.957-38.957h44.522c9.217 0 16.696 7.479 16.696 16.696s-7.479 16.696-16.696 16.696h-44.522c-3.065 0-5.565 2.5-5.565 5.565v116.87c0 4.424-1.761 8.674-4.892 11.804l-21.586 21.587 21.587 21.587c3.13 3.13 4.891 7.379 4.891 11.804v116.87c0 3.065 2.5 5.565 5.565 5.565h44.522c9.217 0 16.696 7.479 16.696 16.696s-7.479 16.695-16.696 16.695z" fill="#fff"/><path d="m372.87 445.217h-44.522c-9.217 0-16.696-7.479-16.696-16.696s7.479-16.696 16.696-16.696h44.522c3.065 0 5.565-2.5 5.565-5.565v-116.87c0-4.424 1.761-8.674 4.892-11.804l21.586-21.586-21.587-21.587c-3.13-3.13-4.891-7.379-4.891-11.804v-116.87c0-3.065-2.5-5.565-5.565-5.565h-44.522c-9.217 0-16.696-7.479-16.696-16.696s7.479-16.696 16.696-16.696h44.522c21.478 0 38.957 17.478 38.957 38.957v109.956l28.499 28.499c6.521 6.521 6.521 17.087 0 23.609l-28.499 28.501v109.956c-.001 21.479-17.479 38.957-38.957 38.957z" fill="#ffe6b3"/></svg>