<svg enable-background="new 0 0 512 512" viewBox="0 0 512 512" xmlns="http://www.w3.org/2000/svg"><path d="m0 134v328c0 22.055 17.945 40 40 40h432c22.055 0 40-17.945 40-40v-328z" fill="#d8dce1"/><path d="m472 22h-432c-22.055 0-40 17.945-40 40v72h512v-72c0-22.055-17.946-40-40-40zm-408 80c-13.255 0-24-10.745-24-24s10.745-24 24-24 24 10.745 24 24-10.745 24-24 24zm384 0c-13.255 0-24-10.745-24-24s10.745-24 24-24 24 10.745 24 24-10.745 24-24 24z" fill="#ff4f19"/><g fill="#fff"><path d="m256 206c-17.648 0-32 14.352-32 32s14.352 32 32 32 32-14.352 32-32-14.352-32-32-32z"/><path d="m176 206c-17.648 0-32 14.352-32 32s14.352 32 32 32 32-14.352 32-32-14.352-32-32-32z"/><path d="m96 206c-17.648 0-32 14.352-32 32s14.352 32 32 32 32-14.352 32-32-14.352-32-32-32z"/><path d="m336 206c-17.648 0-32 14.352-32 32s14.352 32 32 32 32-14.352 32-32-14.352-32-32-32z"/><path d="m416 270c17.648 0 32-14.352 32-32s-14.352-32-32-32-32 14.352-32 32 14.351 32 32 32z"/><path d="m256 286c-17.648 0-32 14.352-32 32s14.352 32 32 32 32-14.352 32-32-14.352-32-32-32z"/><path d="m176 286c-17.648 0-32 14.352-32 32s14.352 32 32 32 32-14.352 32-32-14.352-32-32-32z"/><path d="m96 286c-17.648 0-32 14.352-32 32s14.352 32 32 32 32-14.352 32-32-14.352-32-32-32z"/><path d="m336 286c-17.648 0-32 14.352-32 32s14.352 32 32 32 32-14.352 32-32-14.352-32-32-32z"/><path d="m416 286c-17.648 0-32 14.352-32 32s14.352 32 32 32 32-14.352 32-32-14.352-32-32-32z"/><path d="m256 366c-17.648 0-32 14.352-32 32s14.352 32 32 32 32-14.352 32-32c0-17.649-14.352-32-32-32z"/><path d="m176 366c-17.648 0-32 14.352-32 32s14.352 32 32 32 32-14.352 32-32c0-17.649-14.352-32-32-32z"/><path d="m96 366c-17.648 0-32 14.352-32 32s14.352 32 32 32 32-14.352 32-32c0-17.649-14.352-32-32-32z"/><path d="m336 366c-17.648 0-32 14.352-32 32s14.352 32 32 32 32-14.352 32-32c0-17.649-14.352-32-32-32z"/><path d="m416 366c-17.648 0-32 14.352-32 32s14.352 32 32 32 32-14.352 32-32c0-17.649-14.352-32-32-32z"/></g><path d="m64 90c-6.625 0-12-5.371-12-12v-56c0-6.629 5.375-12 12-12s12 5.371 12 12v56c0 6.629-5.375 12-12 12z" fill="#5c546a"/><path d="m448 90c-6.625 0-12-5.371-12-12v-56c0-6.629 5.375-12 12-12s12 5.371 12 12v56c0 6.629-5.375 12-12 12z" fill="#5c546a"/><circle cx="96" cy="238" fill="#ffd200" r="32"/><circle cx="256" cy="398" fill="#ff9600" r="32"/><circle cx="336" cy="318" fill="#ff4f19" r="32"/></svg>