<svg enable-background="new 0 0 58 58" viewBox="0 0 58 58" xmlns="http://www.w3.org/2000/svg"><path d="m46.5 4v4h-7v-4h-24v4h-7v-4h-8v11h54v-11z" fill="#f05565"/><path d="m8.5 15h-8v43h54v-43h-8-7-24z" fill="#efebde"/><path d="m37.5 22h-2-7-2-7-2-9v9 2 7 2 9h9 2 7 2 7 2 9v-9-2-7-2-9zm-9 2h7v7h-7zm7 16h-7v-7h7zm-16-7h7v7h-7zm0-9h7v7h-7zm-9 0h7v7h-7zm0 9h7v7h-7zm7 16h-7v-7h7zm9 0h-7v-7h7zm9 0h-7v-7h7zm9 0h-7v-7h7zm0-9h-7v-7h7zm-7-9v-7h7v7z" fill="#d5d0bb"/><path d="m8.5 0h7v8h-7z" fill="#36495e"/><path d="m39.5 0h7v8h-7z" fill="#36495e"/><path d="m19.5 33h7v7h-7z" fill="#7f6e5d"/><circle cx="45.5" cy="45" fill="#26b999" r="12"/><path d="m52.071 39.179c-.455-.316-1.077-.204-1.392.25l-5.596 8.04-3.949-3.242c-.426-.351-1.057-.288-1.407.139-.351.427-.289 1.057.139 1.407l4.786 3.929c.18.147.404.227.634.227.045 0 .091-.003.137-.009.276-.039.524-.19.684-.419l6.214-8.929c.315-.454.203-1.077-.25-1.393z" fill="#fff"/></svg>