<svg enable-background="new 0 0 512 512" viewBox="0 0 512 512" xmlns="http://www.w3.org/2000/svg"><path d="m388.542 78.183h-335.528c-5.114 0-9.262 4.147-9.262 9.262v46.393l-43.752 21.874 43.752 21.877v46.392c0 5.115 4.146 9.263 9.262 9.263h335.528c5.115 0 9.262-4.147 9.262-9.263v-136.538c-.002-5.114-4.148-9.26-9.262-9.26z" fill="#fff1cd"/><path d="m512 356.285-43.752-21.876v-46.393c0-5.114-4.146-9.262-9.262-9.262h-335.527c-5.115 0-9.262 4.147-9.262 9.262v136.538c0 5.115 4.146 9.263 9.262 9.263h335.528c5.114 0 9.262-4.147 9.262-9.263v-46.392z" fill="#b4e5ea"/><path d="m343.092 386.869h-182.055c-4.714 0-8.533-3.82-8.533-8.533 0-4.714 3.82-8.533 8.533-8.533h182.056c4.714 0 8.533 3.819 8.533 8.533 0 4.713-3.821 8.533-8.534 8.533z" fill="#609399"/><path d="m422.737 342.769h-261.7c-4.714 0-8.533-3.82-8.533-8.533s3.82-8.533 8.533-8.533h261.7c4.714 0 8.533 3.82 8.533 8.533s-3.821 8.533-8.533 8.533z" fill="#609399"/><g fill="#ffd24d"><path d="m272.648 186.297h-183.629c-4.714 0-8.533-3.82-8.533-8.533s3.82-8.533 8.533-8.533h183.629c4.714 0 8.533 3.82 8.533 8.533s-3.82 8.533-8.533 8.533z"/><path d="m352.292 142.197h-263.273c-4.714 0-8.533-3.82-8.533-8.533s3.82-8.533 8.533-8.533h263.274c4.714 0 8.533 3.82 8.533 8.533s-3.821 8.533-8.534 8.533z"/></g></svg>