<svg enable-background="new 0 0 512.001 512.001" viewBox="0 0 512.001 512.001" xmlns="http://www.w3.org/2000/svg"><path d="m339.748 275.992h-286.608c-12.672 0-22.981 10.31-22.981 22.981v118.846c0 12.672 10.31 22.981 22.981 22.981h207.228c.708 0 1.366.471 1.678 1.201 10.234 23.93 31.668 40.657 57.336 44.744 3.92.624 7.901.938 11.881.938 1.243 0 2.486-.031 3.726-.092 2.921-.145 5.492-1.974 6.586-4.687 1.093-2.713.509-5.814-1.496-7.944-8.443-8.97-13.879-20.112-15.721-32.223-.09-.597.161-1.037.388-1.301.204-.237.653-.634 1.377-.634h13.625c12.672 0 22.981-10.31 22.981-22.981v-118.847c0-12.672-10.31-22.982-22.981-22.982z" fill="#9fd479"/><path d="m339.748 275.992h-3.699c3.733 4.088 6.013 9.523 6.013 15.482v118.847c0 12.672-10.31 22.981-22.981 22.981h-13.625c-.724 0-1.174.397-1.377.634-.227.264-.478.704-.388 1.301 1.842 12.111 7.278 23.253 15.721 32.223 2.005 2.13 2.589 5.231 1.496 7.944-1.094 2.713-3.665 4.542-6.586 4.687-1.24.062-2.483.092-3.726.092-3.979 0-7.961-.314-11.881-.938-1.127-.179-2.242-.392-3.352-.62 7.364 3.977 15.454 6.755 24.019 8.119 3.92.624 7.901.938 11.881.938 1.243 0 2.486-.031 3.726-.092 2.921-.145 5.492-1.974 6.586-4.687 1.093-2.713.509-5.814-1.496-7.944-8.443-8.97-13.879-20.112-15.721-32.223-.09-.597.161-1.037.388-1.301.204-.237.653-.634 1.377-.634h13.625c12.672 0 22.981-10.31 22.981-22.981v-118.846c0-12.672-10.31-22.982-22.981-22.982z" fill="#8cc165"/><path d="m458.86 24.318h-286.608c-12.672 0-22.981 10.309-22.981 22.981v118.847c0 12.672 10.31 22.981 22.981 22.981h13.625c.724 0 1.174.397 1.377.634.227.264.478.704.388 1.301-1.842 12.111-7.278 23.254-15.721 32.224-2.005 2.13-2.589 5.231-1.496 7.944 1.094 2.713 3.665 4.542 6.586 4.687 1.241.062 2.483.092 3.727.092 3.979 0 7.961-.314 11.88-.938 25.668-4.087 47.102-20.814 57.336-44.744.312-.729.97-1.201 1.678-1.201h207.228c12.672 0 22.981-10.309 22.981-22.981v-118.846c0-12.672-10.309-22.981-22.981-22.981z" fill="#ebeef2"/><path d="m458.86 24.318h-1.035c1.783 3.265 2.798 7.006 2.798 10.981v118.847c0 12.672-10.31 22.981-22.981 22.981h-207.229c-.708 0-1.366.471-1.678 1.201-10.12 23.664-31.196 40.276-56.485 44.595-.111.12-.217.244-.33.364-2.005 2.13-2.589 5.231-1.496 7.944 1.094 2.713 3.665 4.542 6.586 4.687 1.241.062 2.483.092 3.727.092 3.979 0 7.961-.314 11.88-.938 25.668-4.087 47.102-20.814 57.336-44.744.312-.729.97-1.201 1.678-1.201h207.229c12.672 0 22.981-10.309 22.981-22.981v-118.847c0-12.672-10.309-22.981-22.981-22.981z" fill="#d1d6de"/><path d="m76.619 116.953c11.833-7.489 19.389-21.125 18.151-36.427-1.598-19.751-18.134-35.377-37.942-35.945-22.19-.636-40.379 17.163-40.379 39.21 0 13.961 7.299 26.209 18.283 33.161-18.683 7.543-32.37 24.862-34.697 45.624-.378 3.373 2.333 6.304 5.727 6.304h99.827c3.394 0 6.105-2.931 5.727-6.304-2.327-20.761-16.014-38.08-34.697-45.623z" fill="#ed5575"/><path d="m405.01 74.441h-178.907c-4.142 0-7.5-3.358-7.5-7.5s3.358-7.5 7.5-7.5h178.907c4.142 0 7.5 3.358 7.5 7.5s-3.358 7.5-7.5 7.5z" fill="#444966"/><path d="m405.01 114.222h-178.907c-4.142 0-7.5-3.358-7.5-7.5s3.358-7.5 7.5-7.5h178.907c4.142 0 7.5 3.358 7.5 7.5s-3.358 7.5-7.5 7.5z" fill="#444966"/><path d="m315.556 154.004h-89.454c-4.142 0-7.5-3.358-7.5-7.5s3.358-7.5 7.5-7.5h89.454c4.142 0 7.5 3.358 7.5 7.5s-3.358 7.5-7.5 7.5z" fill="#444966"/><path d="m435.381 368.627c-11.833-7.489-19.389-21.125-18.151-36.427 1.599-19.751 18.135-35.377 37.942-35.945 22.19-.636 40.379 17.163 40.379 39.21 0 13.961-7.299 26.209-18.283 33.161 18.683 7.543 32.37 24.862 34.697 45.624.378 3.373-2.333 6.304-5.727 6.304h-99.828c-3.394 0-6.105-2.931-5.727-6.304 2.328-20.761 16.015-38.08 34.698-45.623z" fill="#5c9cee"/><g fill="#ebeef2"><path d="m285.897 326.116h-178.907c-4.142 0-7.5-3.358-7.5-7.5s3.358-7.5 7.5-7.5h178.908c4.142 0 7.5 3.358 7.5 7.5s-3.358 7.5-7.501 7.5z"/><path d="m285.897 365.897h-178.907c-4.142 0-7.5-3.358-7.5-7.5s3.358-7.5 7.5-7.5h178.908c4.142 0 7.5 3.358 7.5 7.5s-3.358 7.5-7.501 7.5z"/><path d="m285.897 405.678h-89.454c-4.142 0-7.5-3.358-7.5-7.5s3.358-7.5 7.5-7.5h89.454c4.142 0 7.5 3.358 7.5 7.5s-3.357 7.5-7.5 7.5z"/></g></svg>