<svg height="512pt" viewBox="-8 0 512 512.00056" width="512pt" xmlns="http://www.w3.org/2000/svg"><path d="m203.453125 286.253906c-3.113281 0-5.414063 2.828125-4.867187 5.894532 3.703124 20.675781 14.171874 40.003906 29.046874 53.605468 9.734376 8.898438 5.953126 22.179688-7.21875 21.484375-.339843-.015625-.683593-.039062-1.023437-.058593-43.804687-2.78125-76.769531-36.015626-83.621094-78.75-.382812-2.402344-2.445312-4.175782-4.878906-4.175782h-7.171875c-14.261719 0-25.929688-11.667968-25.929688-25.925781v-116.585937h-71.859374c-14.261719 0-25.929688 11.667968-25.929688 25.925781v235.398437c0 14.257813 11.667969 25.925782 25.929688 25.925782h264.34375c3.113281 0 5.417968 2.832031 4.867187 5.894531-3.699219 20.679687-14.167969 39.007812-29.042969 52.609375-9.734375 8.898437-2.953125 25.179687 10.214844 24.484375.339844-.019531.683594-.039063 1.027344-.0625 43.800781-2.78125 79.765625-36.011719 86.613281-78.75.386719-2.402344 2.449219-4.171875 4.882813-4.171875h7.171874c14.261719 0 25.929688-11.667969 25.929688-25.929688v-116.8125zm0 0" fill="#00aaf0"/><path d="m29.984375 403.066406v-235.398437c0-14.257813 11.667969-25.925781 25.929687-25.925781h-29.984374c-14.261719 0-25.929688 11.667968-25.929688 25.925781v235.398437c0 14.257813 11.667969 25.925782 25.929688 25.925782h29.984374c-14.261718 0-25.929687-11.667969-25.929687-25.925782zm0 0" fill="#059adb"/><path d="m296.082031 487.492188c14.875-13.601563 25.34375-31.925782 29.046875-52.605469.546875-3.0625-1.757812-5.894531-4.867187-5.894531h-29.988281c3.113281 0 5.417968 2.832031 4.867187 5.894531-3.703125 20.679687-14.167969 39.003906-29.042969 52.605469-9.734375 8.902343-2.957031 25.179687 10.214844 24.484374.339844-.015624.683594-.035156 1.023438-.058593 6.574218-.417969 12.964843-1.53125 19.109374-3.25-5.894531-5.109375-7.175781-14.945313-.363281-21.175781zm0 0" fill="#059adb"/><path d="m120.71875 0h350.082031c14.257813 0 25.925781 11.667969 25.925781 25.929688v235.394531c0 14.261719-11.667968 25.929687-25.925781 25.929687h-264.347656c-3.113281 0-5.417969 2.828125-4.867187 5.894532 3.703124 20.675781 14.171874 39.003906 29.042968 52.605468 9.734375 8.898438 2.957032 25.179688-10.214844 24.484375-.339843-.019531-.683593-.039062-1.023437-.0625-43.804687-2.78125-79.769531-36.011719-86.617187-78.75-.386719-2.402343-2.449219-4.171875-4.882813-4.171875h-7.171875c-14.257812 0-25.925781-11.667968-25.925781-25.929687v-235.394531c0-14.261719 11.667969-25.929688 25.925781-25.929688zm0 0" fill="#f25c5c"/><path d="m162.757812 291.425781c-.386718-2.402343-2.449218-4.171875-4.882812-4.171875h-7.171875c-14.261719 0-25.925781-11.667968-25.925781-25.929687v-235.394531c0-14.261719 11.667968-25.929688 25.925781-25.929688h-29.984375c-14.257812 0-25.925781 11.667969-25.925781 25.929688v235.394531c0 14.261719 11.664062 25.929687 25.925781 25.929687h7.171875c2.433594 0 4.496094 1.769532 4.882813 4.171875 6.851562 42.738281 42.8125 75.96875 86.617187 78.75.339844.023438.683594.042969 1.023437.0625 3.953126.207031 7.324219-1.121093 9.851563-3.3125-34.824219-9.726562-61.683594-39.171875-67.507813-75.5zm0 0" fill="#e54a4a"/><g fill="#d83f3f"><path d="m422.109375 97.625h-252.703125c-4.140625 0-7.496094-3.355469-7.496094-7.496094s3.355469-7.496094 7.496094-7.496094h252.703125c4.140625 0 7.496094 3.355469 7.496094 7.496094s-3.355469 7.496094-7.496094 7.496094zm0 0"/><path d="m422.109375 209.390625h-252.703125c-4.140625 0-7.496094-3.355469-7.496094-7.496094 0-4.136719 3.355469-7.496093 7.496094-7.496093h252.703125c4.140625 0 7.496094 3.359374 7.496094 7.496093 0 4.140625-3.355469 7.496094-7.496094 7.496094zm0 0"/><path d="m422.109375 134.878906h-252.703125c-4.140625 0-7.496094-3.355468-7.496094-7.496094 0-4.140624 3.355469-7.496093 7.496094-7.496093h252.703125c4.140625 0 7.496094 3.355469 7.496094 7.496093 0 4.140626-3.355469 7.496094-7.496094 7.496094zm0 0"/><path d="m422.109375 60.367188h-252.703125c-4.140625 0-7.496094-3.355469-7.496094-7.496094 0-4.136719 3.355469-7.492188 7.496094-7.492188h252.703125c4.140625 0 7.496094 3.355469 7.496094 7.492188 0 4.140625-3.355469 7.496094-7.496094 7.496094zm0 0"/><path d="m422.109375 172.136719h-252.703125c-4.140625 0-7.496094-3.355469-7.496094-7.496094s3.355469-7.496094 7.496094-7.496094h252.703125c4.140625 0 7.496094 3.355469 7.496094 7.496094s-3.355469 7.496094-7.496094 7.496094zm0 0"/><path d="m422.109375 246.648438h-252.703125c-4.140625 0-7.496094-3.355469-7.496094-7.496094s3.355469-7.496094 7.496094-7.496094h252.703125c4.140625 0 7.496094 3.355469 7.496094 7.496094 0 4.136718-3.355469 7.496094-7.496094 7.496094zm0 0"/></g></svg>