<svg enable-background="new 0 0 512 512" viewBox="0 0 512 512" xmlns="http://www.w3.org/2000/svg"><path d="m503.742 491.63h-495.484c-4.561 0-8.258-3.696-8.258-8.258s3.697-8.258 8.258-8.258h495.484c4.561 0 8.258 3.696 8.258 8.258s-3.697 8.258-8.258 8.258z" fill="#609399"/><path d="m247.742 339.384h16.516v145.639h-16.516z" fill="#609399"/><path d="m143.514 8.258h224.972v353.148h-224.972z" fill="#1b4145"/><circle cx="256" cy="287.182" fill="#6fc5d6" r="19.739"/><circle cx="256" cy="234.331" fill="#ffd24d" r="8.258"/><g fill="#609399"><path d="m321.287 71.002h-130.574c-4.561 0-8.258-3.696-8.258-8.258s3.697-8.258 8.258-8.258h130.575c4.561 0 8.258 3.696 8.258 8.258s-3.697 8.258-8.259 8.258z"/><path d="m321.287 179.973h-130.574c-4.561 0-8.258-3.696-8.258-8.258s3.697-8.258 8.258-8.258h130.575c4.561 0 8.258 3.696 8.258 8.258s-3.697 8.258-8.259 8.258z"/><path d="m321.287 125.487h-130.574c-4.561 0-8.258-3.696-8.258-8.258s3.697-8.258 8.258-8.258h130.575c4.561 0 8.258 3.696 8.258 8.258s-3.697 8.258-8.259 8.258z"/></g><path d="m325.918 463.002h-139.836c-3.04 0-5.505 2.464-5.505 5.505v29.729c0 3.04 2.465 5.505 5.505 5.505h139.837c3.04 0 5.505-2.465 5.505-5.505v-29.729c0-3.041-2.466-5.505-5.506-5.505z" fill="#6fc5d6"/></svg>