<svg height="512pt" viewBox="0 0 512 512" width="512pt" xmlns="http://www.w3.org/2000/svg"><path d="m387.507812 261.457031h-123.792968v-90.519531c0-4.316406-3.496094-7.8125-7.8125-7.8125s-7.816406 3.496094-7.816406 7.8125v90.519531h-123.789063c-41.523437 0-75.304687 33.785157-75.304687 75.304688v124.144531c0 4.316406 3.496093 7.816406 7.8125 7.816406 4.316406 0 7.816406-3.5 7.816406-7.816406v-124.140625c0-32.90625 26.769531-59.675781 59.675781-59.675781h123.789063v183.820312c0 4.316406 3.5 7.8125 7.816406 7.8125s7.8125-3.496094 7.8125-7.8125v-183.824218h123.792968c32.90625 0 59.675782 26.773437 59.675782 59.675781v124.144531c0 4.316406 3.496094 7.816406 7.8125 7.816406s7.816406-3.5 7.816406-7.816406v-124.140625c0-41.523437-33.785156-75.308594-75.304688-75.308594zm0 0" fill="#f29500"/><path d="m463.507812 179.757812c0 22.722657-18.421874 41.144532-41.144531 41.144532h-332.921875c-11.359375 0-21.652344-4.605469-29.09375-12.054688-7.449218-7.441406-12.054687-17.722656-12.054687-29.089844 0-21.988281 17.246093-39.941406 38.949219-41.085937-1.75-6.886719-2.6875-14.097656-2.6875-21.527344 0-48.03125 38.9375-86.960937 86.96875-86.960937 8.429687 0 16.597656 1.199218 24.308593 3.449218 14.628907 4.253907 27.664063 12.242188 38.011719 22.859376 16.734375-33.484376 51.347656-56.492188 91.347656-56.492188 56.359375 0 102.058594 45.6875 102.058594 102.058594 0 12.878906-2.398438 25.203125-6.753906 36.550781h1.867187c11.355469 0 21.648438 4.605469 29.089844 12.054687 7.449219 7.441407 12.054687 17.722657 12.054687 29.09375zm0 0" fill="#91aee2"/><path d="m463.507812 179.757812c0 22.722657-18.421874 41.144532-41.144531 41.144532h-284.304687c-11.359375 0-21.652344-4.605469-29.09375-12.054688-7.449219-7.441406-12.054688-17.722656-12.054688-29.089844 0-21.988281 17.253906-39.941406 38.949219-41.085937-1.75-6.886719-2.679687-14.097656-2.679687-21.527344 0-39.59375 26.457031-72.996093 62.652343-83.511719 14.628907 4.253907 27.664063 12.242188 38.011719 22.859376 16.734375-33.484376 51.347656-56.492188 91.347656-56.492188 56.359375 0 102.058594 45.6875 102.058594 102.058594 0 12.878906-2.398438 25.203125-6.753906 36.550781h1.867187c11.355469 0 21.648438 4.605469 29.089844 12.054687 7.449219 7.441407 12.054687 17.722657 12.054687 29.09375zm0 0" fill="#bacbec"/><g fill="#5db33a"><path d="m113.613281 455.191406c0 25.882813-17.304687 47.710938-40.96875 54.570313-5.023437 1.457031-10.335937 2.238281-15.835937 2.238281-31.375 0-56.808594-25.433594-56.808594-56.808594 0-31.371094 25.433594-56.792968 56.808594-56.792968 5.5 0 10.8125.78125 15.835937 2.238281 23.664063 6.847656 40.96875 28.675781 40.96875 54.554687zm0 0"/><path d="m312.707031 455.191406c0 25.882813-17.304687 47.710938-40.96875 54.570313-5.023437 1.457031-10.335937 2.238281-15.835937 2.238281-31.375 0-56.808594-25.433594-56.808594-56.808594 0-31.371094 25.433594-56.792968 56.808594-56.792968 5.5 0 10.8125.78125 15.835937 2.238281 23.664063 6.847656 40.96875 28.675781 40.96875 54.554687zm0 0"/><path d="m511.800781 455.191406c0 25.882813-17.304687 47.710938-40.96875 54.570313-5.019531 1.457031-10.335937 2.238281-15.835937 2.238281-31.375 0-56.808594-25.433594-56.808594-56.808594 0-31.371094 25.433594-56.792968 56.808594-56.792968 5.5 0 10.816406.78125 15.835937 2.238281 23.664063 6.847656 40.96875 28.675781 40.96875 54.554687zm0 0"/></g><g fill="#6dc54a"><path d="m113.613281 455.191406c0 25.882813-17.304687 47.710938-40.96875 54.570313-23.664062-6.859375-40.96875-28.6875-40.96875-54.570313 0-25.878906 17.304688-47.707031 40.96875-54.554687 23.664063 6.847656 40.96875 28.675781 40.96875 54.554687zm0 0"/><path d="m312.707031 455.191406c0 25.882813-17.304687 47.710938-40.96875 54.570313-23.664062-6.859375-40.96875-28.6875-40.96875-54.570313 0-25.878906 17.304688-47.707031 40.96875-54.554687 23.664063 6.847656 40.96875 28.675781 40.96875 54.554687zm0 0"/><path d="m511.800781 455.191406c0 25.882813-17.304687 47.710938-40.96875 54.570313-23.660156-6.859375-40.957031-28.6875-40.957031-54.570313 0-25.878906 17.296875-47.707031 40.957031-54.554687 23.664063 6.847656 40.96875 28.675781 40.96875 54.554687zm0 0"/></g></svg>