<svg height="464pt" viewBox="0 -16 464 464" width="464pt" xmlns="http://www.w3.org/2000/svg"><path d="m232 24v-24h-232v408h224v24h240v-408zm0 0" fill="#cfdfe8"/><path d="m344 344h-48c-4.417969 0-8-3.582031-8-8v-112h-192c-4.417969 0-8-3.582031-8-8v-56c0-4.417969 3.582031-8 8-8s8 3.582031 8 8v48h192c4.417969 0 8 3.582031 8 8v112h40c4.417969 0 8 3.582031 8 8s-3.582031 8-8 8zm0 0" fill="#394d5c"/><path d="m280 104v80h-112v-80zm0 0" fill="#e97424"/><path d="m432 56v128h-120v-128zm0 0" fill="#e97424"/><path d="m432 216v48h-104v-48zm0 0" fill="#e97424"/><path d="m280 104h-112l56-48zm0 0" fill="#b11e48"/><path d="m208 144h32v40h-32zm0 0" fill="#b11e48"/><path d="m136 288v72h-96v-72zm0 0" fill="#e97424"/><path d="m136 288h-96l48-40zm0 0" fill="#b11e48"/><path d="m72 320h32v40h-32zm0 0" fill="#b11e48"/><path d="m344 152h56v32h-56zm0 0" fill="#b11e48"/><g fill="#fff"><path d="m344 80h16v16h-16zm0 0"/><path d="m384 80h16v16h-16zm0 0"/><path d="m344 112h16v16h-16zm0 0"/><path d="m384 112h16v16h-16zm0 0"/></g><path d="m168 248h96v112h-96zm0 0" fill="#e97424"/><g fill="#fff"><path d="m192 320h16v16h-16zm0 0"/><path d="m224 320h16v16h-16zm0 0"/><path d="m224 272h16v16h-16zm0 0"/><path d="m192 272h16v16h-16zm0 0"/></g><path d="m96 168-36.609375-76.695312c-11.542969-24.199219 7.808594-51.304688 36.609375-51.304688s48.152344 27.105469 36.609375 51.304688zm0 0" fill="#da1c4b"/><path d="m112 80c0 8.835938-7.164062 16-16 16s-16-7.164062-16-16 7.164062-16 16-16 16 7.164062 16 16zm0 0" fill="#fff"/><path d="m424 336c0 22.089844-17.910156 40-40 40s-40-17.910156-40-40 17.910156-40 40-40 40 17.910156 40 40zm0 0" fill="#2d75bb"/></svg>