<svg enable-background="new 0 0 512 512" viewBox="0 0 512 512" xmlns="http://www.w3.org/2000/svg"><circle cx="245" cy="262.5" fill="#91e0e8" r="245"/><path d="m57 159.831h-34.497c-14.435 31.23-22.503 66.005-22.503 102.669 0 4.353.118 8.681.342 12.978h56.658z" fill="#445ea0"/><path d="m415.377 338.75h-21.496v80.873h21.496c5.5 0 10-4.5 10-10v-60.873c0-5.5-4.5-10-10-10z" fill="#293d7c"/><path d="m281.707 334.99v88.393l82.733 49.363v-187.12z" fill="#eef6ff"/><path d="m394.881 488.565c0 2.75-2.25 5-5 5h-21.44c-2.75 0-5-2.25-5-5v-218.758c0-2.75 2.25-5 5-5h21.44c2.75 0 5 2.25 5 5z" fill="#fe3745"/><path d="m380.616 488.565v-218.758c0-2.75 2.25-5 5-5h-17.176c-2.75 0-5 2.25-5 5v218.759c0 2.75 2.25 5 5 5h17.176c-2.75-.001-5-2.251-5-5.001z" fill="#b7092b"/><path d="m190.918 342.151h-23.181c-2.75 0-5 2.25-5 5v64.068c0 2.75 2.25 5 5 5h23.181z" fill="#eef6ff"/><path d="m177.247 411.22v-64.068c0-2.75 2.25-5 5-5h-14.51c-2.75 0-5 2.25-5 5v64.068c0 2.75 2.25 5 5 5h14.51c-2.75 0-5-2.25-5-5z" fill="#d9eafc"/><path d="m282.707 423.863c0 2.75-2.25 5-5 5h-82.789c-2.75 0-5-2.25-5-5v-89.357c0-2.75 2.25-5 5-5h82.789c2.75 0 5 2.25 5 5z" fill="#fe3745"/><path d="m209.761 423.863v-89.357c0-2.75 2.25-5 5-5h-19.843c-2.75 0-5 2.25-5 5v89.357c0 2.75 2.25 5 5 5h19.843c-2.75 0-5-2.25-5-5z" fill="#b7092b"/><path d="m484.526 85.141c0-2.75-2.25-5-5-5h-136.451c-2.75 0-5 2.25-5 5v94.956c0 2.75 2.25 5 5 5h41.189c2.75 0 6.347 1.802 7.994 4.005l16.048 21.468c1.646 2.203 4.342 2.203 5.988 0l16.048-21.468c1.647-2.203 5.244-4.005 7.994-4.005h41.189c2.75 0 5-2.25 5-5v-94.956z" fill="#52bbef"/><path d="m357.918 180.097v-94.956c0-2.75 2.25-5 5-5h-19.843c-2.75 0-5 2.25-5 5v94.956c0 2.75 2.25 5 5 5h19.843c-2.75 0-5-2.25-5-5z" fill="#1e99d6"/><path d="m454.143 117.24h-85.684c-4.143 0-7.5-3.357-7.5-7.5 0-4.142 3.357-7.5 7.5-7.5h85.684c4.143 0 7.5 3.358 7.5 7.5 0 4.143-3.358 7.5-7.5 7.5z" fill="#fff"/><path d="m454.143 140.492h-85.684c-4.143 0-7.5-3.357-7.5-7.5s3.357-7.5 7.5-7.5h85.684c4.143 0 7.5 3.357 7.5 7.5s-3.358 7.5-7.5 7.5z" fill="#fff"/><path d="m411.472 163.743h-43.013c-4.143 0-7.5-3.357-7.5-7.5s3.357-7.5 7.5-7.5h43.013c4.143 0 7.5 3.357 7.5 7.5s-3.358 7.5-7.5 7.5z" fill="#fff"/><circle cx="268.01" cy="60.11" fill="#fe3745" r="55.606"/><path d="m232.243 60.106c0-27.322 19.711-50.025 45.685-54.706-3.222-.581-6.533-.9-9.922-.9-30.71 0-55.605 24.896-55.605 55.606s24.895 55.605 55.605 55.605c3.389 0 6.7-.319 9.922-.9-25.974-4.68-45.685-27.383-45.685-54.705z" fill="#b7092b"/><path d="m267.907 90.716c-.902 0-1.751-.354-2.392-.998l-26.267-26.488c-3.168-3.195-4.912-7.447-4.912-11.973 0-4.524 1.744-8.777 4.912-11.971 3.17-3.199 7.388-4.959 11.873-4.959 4.484 0 8.699 1.76 11.873 4.959l5.009 5.051 5.013-5.051c3.169-3.199 7.385-4.959 11.871-4.959 4.488 0 8.702 1.76 11.874 4.959 3.171 3.196 4.916 7.449 4.916 11.971s-1.745 8.772-4.918 11.973l-26.472 26.496c-.636.638-1.482.99-2.38.99z" fill="#fff"/><path d="m77.172 368.426c-.762 0-1.478-.3-2.019-.843l-22.172-22.357c-2.674-2.697-4.146-6.286-4.146-10.106 0-3.818 1.473-7.408 4.146-10.105 2.676-2.7 6.235-4.185 10.021-4.185 3.785 0 7.343 1.485 10.022 4.185l4.228 4.264 4.231-4.264c2.675-2.7 6.233-4.185 10.021-4.185s7.345 1.485 10.022 4.185c2.677 2.698 4.15 6.288 4.15 10.105s-1.473 7.405-4.151 10.106l-22.345 22.365c-.535.538-1.25.835-2.008.835z" fill="#fe3745"/><path d="m64.158 340.56c-2.674-2.697-4.147-6.286-4.147-10.107 0-3.585 1.313-6.958 3.684-9.59-.23-.012-.459-.034-.692-.034-3.786 0-7.346 1.485-10.021 4.185-2.674 2.696-4.146 6.286-4.146 10.105 0 3.82 1.473 7.409 4.146 10.106l22.172 22.357c.541.543 1.257.843 2.019.843.758 0 1.473-.297 2.009-.835l5.914-5.92z" fill="#b7092b"/><path d="m186.172 282.236v-13.803c0-7.72 6.28-14 14-14h3.236c.553 0 1-.447 1-1s-.447-1-1-1c-7.72 0-14-6.28-14-14v-13.803c0-7.72 6.28-14 14-14 .553 0 1-.447 1-1s-.447-1-1-1c-7.72 0-14-6.28-14-14v-13.805c0-7.72 6.28-14 14-14 .553 0 1-.447 1-1s-.447-1-1-1h-6.179c-7.72 0-14-6.28-14-14v-13.805c0-6.858 4.96-12.568 11.479-13.761v-53.739c0-8.25-6.75-15-15-15l-23.331.001c-8.25 0-15.911 6.688-17.026 14.862l-9.398 68.958c-1.111 8.143-6.992 14.808-13.091 14.857v130.003h69.358c-.021-.32-.048-.638-.048-.965z" fill="#ffe2b8"/><path d="m179.709 54.52-23.331.001c-8.25 0-15.911 6.688-17.026 14.862l-9.398 68.958c-1.111 8.143-6.992 14.808-13.091 14.857v19.849c10.74-.001 19.647-.001 19.773-.001 6.123 0 12.045-6.688 13.16-14.862l9.398-68.958c1.115-8.174 8.776-14.862 17.026-14.862l18.488-.001v-4.843c.001-8.25-6.749-15-14.999-15z" fill="#ffc987"/><path d="m200.172 297.236c-8.25 0-15-6.75-15-15v-13.803c0-8.25 6.75-15 15-15h81.35c8.25 0 15 6.75 15 15v13.803c0 8.25-6.75 15-15 15z" fill="#ffe2b8"/><path d="m61 299.478c-2.75 0-5-2.25-5-5v-153.648c0-2.75 2.25-5 5-5h51.862c2.75 0 5 2.25 5 5v153.647c0 2.75-2.25 5-5 5h-51.862z" fill="#293d7c"/><path d="m75.843 294.478v-153.648c0-2.75 2.25-5 5-5h-19.843c-2.75 0-5 2.25-5 5v153.647c0 2.75 2.25 5 5 5h19.843c-2.75.001-5-2.249-5-4.999z" fill="#1a2b63"/><circle cx="86.93" cy="160.32" fill="#aec1ed" r="13.386"/><path d="m197.23 165.826c-8.25 0-15-6.75-15-15v-13.805c0-8.25 6.75-15 15-15h84.292c8.25 0 15 6.75 15 15v13.805c0 8.25-6.75 15-15 15z" fill="#ffe2b8"/><path d="m203.408 209.631c-8.25 0-15-6.75-15-15v-13.805c0-8.25 6.75-15 15-15h81.765c8.25 0 15 6.75 15 15v13.805c0 8.25-6.75 15-15 15z" fill="#ffe2b8"/><path d="m203.408 253.434c-8.25 0-15-6.75-15-15v-13.803c0-8.25 6.75-15 15-15h81.765c8.25 0 15 6.75 15 15v13.803c0 8.25-6.75 15-15 15z" fill="#ffe2b8"/><g fill="#ffc987"><path d="m215.613 281.795c-8.25 0-15-6.75-15-15v-13.361h-.441c-8.25 0-15 6.75-15 15v13.803c0 8.25 6.75 15 15 15h81.35c8.25 0 15-6.75 15-15v-.441h-80.909z"/><path d="m212.671 150.385c-8.25 0-15-6.75-15-15v-13.363h-.441c-8.25 0-15 6.75-15 15v13.805c0 8.25 6.75 15 15 15h84.292c8.25 0 15-6.75 15-15v-.441h-83.851z"/><path d="m218.85 194.189c-8.25 0-15-6.75-15-15v-13.363h-.441c-8.25 0-15 6.75-15 15v13.805c0 8.25 6.75 15 15 15h81.765c8.25 0 15-6.75 15-15v-.441z"/><path d="m218.85 237.992c-8.25 0-15-6.75-15-15v-13.361h-.441c-8.25 0-15 6.75-15 15v13.803c0 8.25 6.75 15 15 15h81.765c8.25 0 15-6.75 15-15v-.441h-81.324z"/></g><path d="m121.984 389.646h-89.457c-1.094 0-1.988.898-1.988 1.997v57.4c0 1.099.894 1.997 1.988 1.997h89.457c1.094 0 1.988-.898 1.988-1.997v-57.4c.001-1.099-.894-1.997-1.988-1.997z" fill="#ffaf10"/><path d="m50.382 449.043v-43.719l-19.363-14.965c.09-.107.19-.203.3-.289-.471.366-.779.932-.779 1.572v57.4c0 1.099.894 1.997 1.988 1.997h19.842c-1.094.001-1.988-.897-1.988-1.996z" fill="#ef9614"/><path d="m121.984 389.646h-89.457c-.605 0-1.144.281-1.509.714l44.662 34.518c.867.67 2.285.67 3.151 0l44.661-34.518c-.364-.433-.902-.714-1.508-.714z" fill="#ffd00d"/><path d="m510.012 232.153h-89.457c-1.094 0-1.988.898-1.988 1.997v57.4c0 1.099.895 1.997 1.988 1.997h89.457c1.094 0 1.988-.898 1.988-1.997v-57.4c0-1.098-.895-1.997-1.988-1.997z" fill="#ffaf10"/><path d="m438.409 291.551v-43.719l-19.363-14.965c.09-.107.19-.203.3-.289-.471.366-.779.932-.779 1.572v57.4c0 1.099.895 1.997 1.988 1.997h19.843c-1.094.001-1.989-.898-1.989-1.996z" fill="#ef9614"/><path d="m510.012 232.153h-89.457c-.605 0-1.144.281-1.509.714l44.662 34.518c.867.67 2.285.67 3.151 0l44.661-34.518c-.365-.432-.903-.714-1.508-.714z" fill="#ffd00d"/></svg>