<svg enable-background="new 0 0 512 512" viewBox="0 0 512 512" xmlns="http://www.w3.org/2000/svg"><path d="m257 0c-140.698 0-257 114.3-257 255s116.302 257 257 257 255-116.3 255-257-114.302-255-255-255z" fill="#fedb41"/><path d="m512 255c0 140.7-114.302 257-255 257v-512c140.698 0 255 114.3 255 255z" fill="#fc3"/><path d="m257 60c-107.402 0-197 87.599-197 195s89.598 197 197 197 195-89.599 195-197-87.598-195-195-195z" fill="#fea832"/><path d="m452 255c0 107.401-87.598 197-195 197v-392c107.402 0 195 87.599 195 195z" fill="#fe9923"/><path d="m287 240h-15v-60h15c8.401 0 15 6.599 15 15 0 19.799 30 19.799 30 0 0-24.901-20.098-45-45-45h-15v-15c0-9.901-7.5-15-15-15s-15 5.099-15 15v15h-17c-24.902 0-45 20.099-45 45v30c0 24.901 20.098 45 45 45h17v62h-17c-8.401 0-15-6.599-15-15 0-19.799-30-19.799-30 0 0 24.901 20.098 45 45 45h17v15c0 9.901 7.5 15 15 15s15-5.099 15-15v-15h15c24.902 0 45-20.099 45-45v-32c0-24.901-20.098-45-45-45zm-45 0h-17c-8.401 0-15-6.599-15-15v-30c0-8.401 6.599-15 15-15h17zm60 77c0 8.401-6.599 15-15 15h-15v-62h15c8.401 0 15 6.599 15 15z" fill="#fedb41"/><path d="m287 240h-15v-60h15c8.401 0 15 6.599 15 15 0 19.799 30 19.799 30 0 0-24.901-20.098-45-45-45h-15v-15c0-9.901-7.5-15-15-15v272c7.5 0 15-5.099 15-15v-15h15c24.902 0 45-20.099 45-45v-32c0-24.901-20.098-45-45-45zm15 77c0 8.401-6.599 15-15 15h-15v-62h15c8.401 0 15 6.599 15 15z" fill="#fc3"/></svg>