<svg enable-background="new 0 0 410 410" viewBox="0 0 410 410" xmlns="http://www.w3.org/2000/svg"><path d="m345.01 207.769v.001l-95.01 89.73 135 112.5v-240z" fill="#d80027"/><path d="m25 170v240l135-112.5z" fill="#ff5023"/><path d="m160 297.5-135 112.5h180v-70z" fill="#d80027"/><path d="m205 340v70h180l-135-112.5z" fill="#a2001d"/><g fill="#ff5023"><path d="m64.993 132.229-39.993 37.771h39.99z"/><path d="m385 170-39.995-37.773.003 37.773z"/><path d="m205 0-63.787 60.243 127.413-.151z"/></g><path d="m345.01 207.769 39.99-37.769h-39.992z" fill="#a2001d"/><path d="m205 340-140.014-132.235.004-37.765h-39.99l135 127.5z" fill="#a2001d"/><path d="m64.986 207.765 140.014 132.235 45-42.5 95.01-89.73v-.001l-.002-37.769-.003-37.773-.005-72.227-76.374.092-127.413.151-76.213.091-.007 71.895-.003 37.771zm50.014-27.765h180v30h-180zm0-30v-30h180v30z" fill="#dedde0"/><path d="m115 120h180v30h-180z" fill="#fff"/><path d="m115 180h180v30h-180z" fill="#fff"/></svg>