<svg enable-background="new 0 0 512 512" viewBox="0 0 512 512" xmlns="http://www.w3.org/2000/svg"><circle cx="256" cy="256" fill="#52bbef" r="245"/><g fill="#445ea0"><path d="m147.807 129.727h-111.77c-4.142 0-7.5-3.357-7.5-7.5 0-4.142 3.358-7.5 7.5-7.5h111.77c4.142 0 7.5 3.358 7.5 7.5s-3.358 7.5-7.5 7.5z"/><path d="m147.807 84.338h-78.476c-4.142 0-7.5-3.358-7.5-7.5s3.358-7.5 7.5-7.5h78.476c4.142 0 7.5 3.358 7.5 7.5s-3.358 7.5-7.5 7.5z"/><path d="m147.807 175.116h-140.307c-4.142 0-7.5-3.358-7.5-7.5s3.358-7.5 7.5-7.5h140.307c4.142 0 7.5 3.358 7.5 7.5s-3.358 7.5-7.5 7.5z"/><path d="m147.807 220.506h-85.611c-4.142 0-7.5-3.358-7.5-7.5s3.358-7.5 7.5-7.5h85.611c4.142 0 7.5 3.358 7.5 7.5s-3.358 7.5-7.5 7.5z"/><path d="m442.671 442.662h-78.477c-4.143 0-7.5-3.358-7.5-7.5s3.357-7.5 7.5-7.5h78.477c4.143 0 7.5 3.358 7.5 7.5s-3.357 7.5-7.5 7.5z"/><path d="m475.965 397.273h-111.771c-4.143 0-7.5-3.358-7.5-7.5s3.357-7.5 7.5-7.5h111.771c4.143 0 7.5 3.358 7.5 7.5s-3.358 7.5-7.5 7.5z"/><path d="m504.5 351.884h-140.306c-4.143 0-7.5-3.358-7.5-7.5s3.357-7.5 7.5-7.5h140.306c4.143 0 7.5 3.358 7.5 7.5s-3.357 7.5-7.5 7.5z"/><path d="m449.805 306.494h-85.61c-4.143 0-7.5-3.358-7.5-7.5s3.357-7.5 7.5-7.5h85.61c4.143 0 7.5 3.358 7.5 7.5s-3.358 7.5-7.5 7.5z"/></g><path d="m463.496 53.118h-267.533c-3.27 0-5.945 2.688-5.945 5.973v171.661c0 3.285 2.676 5.973 5.945 5.973h267.533c3.271 0 5.945-2.688 5.945-5.973v-171.661c0-3.285-2.674-5.973-5.945-5.973z" fill="#ff9518"/><path d="m191.668 55.419c-.072.093-.148.182-.216.279l93.017 86.914 9.183-8.372z" fill="#db722c"/><path d="m365.808 134.241 9.183 8.373 93.017-86.916c-.068-.098-.143-.186-.216-.279z" fill="#db722c"/><path d="m364.307 132.873-31.086 24.027c-.893.689-2.164 1.085-3.489 1.085s-2.597-.395-3.489-1.085l-31.09-24.029-105.135 95.856v2.025c0 3.285 2.676 5.973 5.945 5.973h267.533c3.271 0 5.945-2.688 5.945-5.973v-2.026z" fill="#ffaf10"/><path d="m214.018 230.752v-2.025l94.124-85.817-12.989-10.039-105.135 95.856v2.025c0 3.285 2.676 5.973 5.945 5.973h24c-3.27 0-5.945-2.688-5.945-5.973z" fill="#db722c"/><path d="m463.496 53.118h-267.533c-1.81 0-3.418.841-4.511 2.134l133.567 103.23c2.592 2.003 6.832 2.003 9.424 0l133.563-103.23c-1.091-1.293-2.699-2.134-4.51-2.134z" fill="#ffd00d"/><path d="m326.17 275.274h-267.535c-3.27 0-5.945 2.688-5.945 5.973v111.503c17.544 26.032 39.956 48.509 65.93 66.131h207.55c3.27 0 5.945-2.688 5.945-5.973v-171.661c0-3.285-2.675-5.973-5.945-5.973z" fill="#ff9518"/><path d="m330.506 277.542-133.389 103.098c-2.592 2.003-6.833 2.003-9.424 0l-133.395-103.098c-.057.073-.119.141-.173.216l133.568 120.136c2.592 2.331 6.832 2.331 9.424 0l133.562-120.136c-.055-.075-.116-.143-.173-.216z" fill="#db722c"/><path d="m226.98 355.03-31.086 24.027c-.892.69-2.164 1.085-3.489 1.085s-2.597-.395-3.489-1.085l-31.09-24.029-78.048 71.159c11.767 12.182 24.779 23.153 38.843 32.694h207.55c3.27 0 5.945-2.688 5.945-5.973v-2.026z" fill="#ffaf10"/><path d="m157.825 355.028-78.048 71.159c3.854 3.99 7.854 7.835 11.969 11.558l79.418-72.408z" fill="#db722c"/><path d="m332.115 451.845v-.962l-.547-.498z" fill="#ebaa48"/><path d="m326.17 275.274h-267.535c-1.81 0-3.417.842-4.511 2.134l133.568 103.232c2.592 2.003 6.832 2.003 9.424 0l133.562-103.231c-1.09-1.293-2.7-2.135-4.508-2.135z" fill="#ffd00d"/></svg>