<svg enable-background="new 0 0 512 512" viewBox="0 0 512 512" xmlns="http://www.w3.org/2000/svg"><path d="m476.282 199.276c19.724 0 35.718 15.982 35.718 35.706s-15.994 35.718-35.718 35.718l-68.267 24.381 24.381-95.805z" fill="#fab9a7"/><path d="m461.653 270.7c19.724 0 35.718 15.994 35.718 35.718s-15.994 35.718-35.718 35.718h-14.629l-39.01 24.381v-95.817z" fill="#f99d88"/><path d="m447.025 342.136c19.724 0 35.718 15.982 35.718 35.706 0 19.736-15.994 35.718-35.718 35.718h-39.01v-71.424z" fill="#fab9a7"/><path d="m432.396 413.56c19.724 0 35.718 15.994 35.718 35.718s-15.994 35.718-35.718 35.718l-24.381-35.718z" fill="#f99d88"/><path d="m432.396 413.56v71.436h-36.571s-32.658 0-111.567 0c-47.482 0-89.527-23.186-115.505-58.831h-70.022v-168.07h70.022c19.2-26.331 47.165-46.031 79.604-54.382 16.152-4.169 33.865-18.676 40.18-28.587 20.833-32.67 30.891-70.936 28.635-110.373-1.122-19.688 13.934-36.571 33.621-37.693 19.7-1.122 36.571 13.934 37.693 33.621 2.804 48.981-8.131 96.646-31.244 138.594h75.154z" fill="#fad4c6"/><path d="m0 199.277h110.927v285.72h-110.927z" fill="#1b4145"/><circle cx="55.463" cy="442.331" fill="#fff" r="12.19"/></svg>