<svg enable-background="new 0 0 59 59" viewBox="0 0 59 59" xmlns="http://www.w3.org/2000/svg"><path d="m.5 48h58v11h-58z" fill="#ecf0f1"/><path d="m16.5 0h26v48h-26z" fill="#556080"/><path d="m.5 3v16 18 11h16v-11-18-16z" fill="#8697cb"/><path d="m42.5 3v16 18 11h16v-11-18-16z" fill="#8697cb"/><g fill="#fff"><path d="m20.5 5h7v5h-7z"/><path d="m31.5 5h7v5h-7z"/><path d="m46.5 9h8v5h-8z"/><path d="m46.5 18h8v5h-8z"/><path d="m4.5 9h8v5h-8z"/><path d="m4.5 18h8v5h-8z"/><path d="m20.5 14h7v5h-7z"/><path d="m31.5 14h7v5h-7z"/><path d="m20.5 23h7v5h-7z"/><path d="m31.5 23h7v5h-7z"/></g><path d="m38.5 59h-18l2-11h14z" fill="#ed7161"/><path d="m21.5 34h16v14h-16z" fill="#d0e8f9"/><path d="m37.5 33h-16c-.552 0-1 .448-1 1v14h18v-14c0-.552-.448-1-1-1z" fill="#3d324c"/><path d="m22.5 35h14v13h-14z" fill="#d0e8f9"/><path d="m28.5 35h2v13h-2z" fill="#3d324c"/><circle cx="8.5" cy="37" fill="#a4e869" r="8"/><circle cx="50.5" cy="37" fill="#a4e869" r="8"/><path d="m10.793 37.293-2.293 2.293-2.293-2.293c-.391-.391-1.023-.391-1.414 0s-.391 1.023 0 1.414l2.707 2.707v16.586c0 .552.448 1 1 1s1-.448 1-1v-16.586l2.707-2.707c.391-.391.391-1.023 0-1.414s-1.023-.391-1.414 0z" fill="#7f6e5d"/><path d="m54.207 37.293c-.391-.391-1.023-.391-1.414 0l-2.293 2.293-2.293-2.293c-.391-.391-1.023-.391-1.414 0s-.391 1.023 0 1.414l2.707 2.707v16.586c0 .552.448 1 1 1s1-.448 1-1v-16.586l2.707-2.707c.391-.391.391-1.023 0-1.414z" fill="#7f6e5d"/></svg>