<svg enable-background="new 0 0 512 512" viewBox="0 0 512 512" xmlns="http://www.w3.org/2000/svg"><circle cx="256" cy="267" fill="#5dc1d8" r="245"/><path d="m50.477 400.388c43.69 67.18 119.413 111.612 205.523 111.612 86.109 0 161.833-44.432 205.523-111.612v-353.858h-411.046z" fill="#d9eafc"/><path d="m50.477 46.53v353.857c6.023 9.262 12.658 18.088 19.843 26.429v-380.286z" fill="#aec1ed"/><path d="m451.523 0h-391.046c-5.5 0-10 4.5-10 10v37.53h411.047v-37.53c-.001-5.5-4.501-10-10.001-10z" fill="#293d7c"/><path d="m377.863 74.497h-190.99v41.031h190.99c2.75 0 5-2.25 5-5v-31.031c0-2.75-2.25-5-5-5z" fill="#fff"/><path d="m134.137 74.497c-2.75 0-5 2.25-5 5v31.032c0 2.75 2.25 5 5 5h53.736v-41.032z" fill="#69cdff"/><path d="m148.98 110.529v-31.032c0-2.75 2.25-5 5-5h-19.843c-2.75 0-5 2.25-5 5v31.032c0 2.75 2.25 5 5 5h19.843c-2.75 0-5-2.25-5-5z" fill="#52bbef"/><path d="m153 270.017c0-2.75-2.25-5-5-5h-60c-2.75 0-5 2.25-5 5v30c0 2.75 2.25 5 5 5h60c2.75 0 5-2.25 5-5z" fill="#69cdff"/><path d="m198 328.017c0-2.75-2.25-5-5-5h-105c-2.75 0-5 2.25-5 5v30c0 2.75 2.25 5 5 5h105c2.75 0 5-2.25 5-5z" fill="#f87eab"/><path d="m247 386.017c0-2.75-2.25-5-5-5h-154c-2.75 0-5 2.25-5 5v30c0 2.75 2.25 5 5 5h154c2.75 0 5-2.25 5-5z" fill="#ff9518"/><path d="m357 386.017c0-2.75-2.25-5-5-5h-82c-2.75 0-5 2.25-5 5v30c0 2.75 2.25 5 5 5h82c2.75 0 5-2.25 5-5z" fill="#ff9518"/><path d="m380 381.017c-2.75 0-5 2.25-5 5v30c0 2.75 2.25 5 5 5h50c2.75 0 5-2.25 5-5v-30c0-2.75-2.25-5-5-5z" fill="#ef8318"/><path d="m315 328.017c0-2.75-2.25-5-5-5h-89c-2.75 0-5 2.25-5 5v30c0 2.75 2.25 5 5 5h89c2.75 0 5-2.25 5-5z" fill="#f87eab"/><path d="m338 323.017c-2.75 0-5 2.25-5 5v30c0 2.75 2.25 5 5 5h92c2.75 0 5-2.25 5-5v-30c0-2.75-2.25-5-5-5z" fill="#ef8318"/><path d="m275 270.017c0-2.75-2.25-5-5-5h-94c-2.75 0-5 2.25-5 5v30c0 2.75 2.25 5 5 5h94c2.75 0 5-2.25 5-5z" fill="#69cdff"/><path d="m102.843 300.017v-30c0-2.75 2.25-5 5-5h-19.843c-2.75 0-5 2.25-5 5v30c0 2.75 2.25 5 5 5h19.843c-2.75 0-5-2.25-5-5z" fill="#52bbef"/><path d="m190.843 300.017v-30c0-2.75 2.25-5 5-5h-19.843c-2.75 0-5 2.25-5 5v30c0 2.75 2.25 5 5 5h19.843c-2.75 0-5-2.25-5-5z" fill="#52bbef"/><path d="m364 270.017c0-2.75-2.25-5-5-5h-61c-2.75 0-5 2.25-5 5v30c0 2.75 2.25 5 5 5h61c2.75 0 5-2.25 5-5z" fill="#0f9390"/><path d="m387 265.017c-2.75 0-5 2.25-5 5v30c0 2.75 2.25 5 5 5h43c2.75 0 5-2.25 5-5v-30c0-2.75-2.25-5-5-5z" fill="#0f9390"/><path d="m401.843 300.017v-30c0-2.75 2.25-5 5-5h-19.843c-2.75 0-5 2.25-5 5v30c0 2.75 2.25 5 5 5h19.843c-2.75 0-5-2.25-5-5z" fill="#159e97"/><path d="m312.843 300.017v-30c0-2.75 2.25-5 5-5h-19.843c-2.75 0-5 2.25-5 5v30c0 2.75 2.25 5 5 5h19.843c-2.75 0-5-2.25-5-5z" fill="#159e97"/><path d="m263.5 442.017c0-2.75-2.25-5-5-5h-94c-2.75 0-5 2.25-5 5v30c0 2.75 2.25 5 5 5h94c2.75 0 5-2.25 5-5z" fill="#a53535"/><path d="m352.5 442.017c0-2.75-2.25-5-5-5h-61c-2.75 0-5 2.25-5 5v30c0 2.75 2.25 5 5 5h61c2.75 0 5-2.25 5-5z" fill="#a53535"/><path d="m102.843 358.017v-30c0-2.75 2.25-5 5-5h-19.843c-2.75 0-5 2.25-5 5v30c0 2.75 2.25 5 5 5h19.843c-2.75 0-5-2.25-5-5z" fill="#e26693"/><path d="m102.843 416.017v-30c0-2.75 2.25-5 5-5h-19.843c-2.75 0-5 2.25-5 5v30c0 2.75 2.25 5 5 5h19.843c-2.75 0-5-2.25-5-5z" fill="#ef8318"/><path d="m284.843 416.017v-30c0-2.75 2.25-5 5-5h-19.843c-2.75 0-5 2.25-5 5v30c0 2.75 2.25 5 5 5h19.843c-2.75 0-5-2.25-5-5z" fill="#ef8318"/><path d="m394.843 416.017v-30c0-2.75 2.25-5 5-5h-19.843c-2.75 0-5 2.25-5 5v30c0 2.75 2.25 5 5 5h19.843c-2.75 0-5-2.25-5-5z" fill="#db722c"/><path d="m235.843 358.017v-30c0-2.75 2.25-5 5-5h-19.843c-2.75 0-5 2.25-5 5v30c0 2.75 2.25 5 5 5h19.843c-2.75 0-5-2.25-5-5z" fill="#e26693"/><path d="m352.843 358.017v-30c0-2.75 2.25-5 5-5h-19.843c-2.75 0-5 2.25-5 5v30c0 2.75 2.25 5 5 5h19.843c-2.75 0-5-2.25-5-5z" fill="#db722c"/><path d="m179.343 472.017v-30c0-2.75 2.25-5 5-5h-19.843c-2.75 0-5 2.25-5 5v30c0 2.75 2.25 5 5 5h19.843c-2.75 0-5-2.25-5-5z" fill="#994334"/><path d="m301.343 472.017v-30c0-2.75 2.25-5 5-5h-19.843c-2.75 0-5 2.25-5 5v30c0 2.75 2.25 5 5 5h19.843c-2.75 0-5-2.25-5-5z" fill="#994334"/><path d="m288.418 185.176c0-6.656 1.34-12.998 3.76-18.776h-146.752c-1.633 0-3.918.924-5.096 2.061l-14.916 14.435c-.574.555-.898 1.318-.902 2.117s.314 1.565.885 2.125l14.955 14.736c.369.363.848.706 1.422 1.019.443.241.93.36 1.414.36.719 0 1.43-.26 1.986-.763l15.881-14.32c.584-.528 1.365-.819 2.199-.819.836 0 1.615.291 2.203.819l16.564 14.938c.564.509 1.275.763 1.986.763s1.42-.254 1.984-.763l16.566-14.938c.584-.528 1.367-.819 2.201-.819.836 0 1.615.291 2.201.819l16.658 15.021c.545.491 1.25.762 1.984.762h22.014c.947 0 1.836-.452 2.395-1.218l10.318-14.155c.465-.638 1.086-.989 1.746-.989.662 0 1.283.352 1.746.988l10.316 14.155c.56.766 1.451 1.218 2.398 1.218h15.641c-2.417-5.778-3.757-12.119-3.757-18.776z" fill="#445ea0"/><path d="m140.239 187.137c-.57-.56-.889-1.326-.885-2.125.004-.798.328-1.561.902-2.117l14.916-14.435c1.178-1.137 3.463-2.061 5.096-2.061h-14.843c-1.633 0-3.918.924-5.096 2.061l-14.916 14.435c-.574.555-.898 1.318-.902 2.117s.314 1.565.885 2.125l14.955 14.736c.369.363.848.706 1.422 1.019.443.241.93.36 1.414.36.719 0 1.43-.26 1.986-.763l5.559-5.012z" fill="#293d7c"/><path d="m337.082 134.771c-27.838 0-50.404 22.568-50.404 50.405 0 27.838 22.566 50.406 50.404 50.406s50.406-22.567 50.406-50.406c0-27.838-22.568-50.405-50.406-50.405zm16.801 63.01c-6.963 0-12.605-5.643-12.605-12.605s5.643-12.605 12.605-12.605c6.963 0 12.603 5.643 12.603 12.605s-5.64 12.605-12.603 12.605z" fill="#ff9518"/><path d="m326.277 200.251c-4.143 0-7.5-3.358-7.5-7.5v-17.13c0-4.142 3.357-7.5 7.5-7.5s7.5 3.358 7.5 7.5v17.13c0 4.142-3.357 7.5-7.5 7.5z" fill="#db722c"/><path d="m308.488 196.297c-4.143 0-7.5-3.358-7.5-7.5v-9.224c0-4.142 3.357-7.5 7.5-7.5s7.5 3.358 7.5 7.5v9.224c0 4.143-3.357 7.5-7.5 7.5z" fill="#db722c"/><path d="m80.339 31.281c-2.139 0-4.224-.865-5.735-2.366-1.502-1.512-2.366-3.597-2.366-5.735 0-2.129.864-4.213 2.366-5.725 1.512-1.513 3.597-2.377 5.735-2.377 2.128 0 4.224.864 5.725 2.377 1.513 1.512 2.377 3.596 2.377 5.725 0 2.138-.864 4.223-2.377 5.735-1.501 1.501-3.597 2.366-5.725 2.366z" fill="#e26693"/><path d="m106.906 31.281c-2.128 0-4.224-.865-5.726-2.378-1.512-1.501-2.376-3.586-2.376-5.724 0-2.129.864-4.213 2.376-5.725 1.513-1.513 3.598-2.377 5.726-2.377 2.139 0 4.223.864 5.736 2.377 1.501 1.512 2.365 3.596 2.365 5.725 0 2.128-.864 4.223-2.365 5.724-1.513 1.513-3.597 2.378-5.736 2.378z" fill="#ffaf10"/><path d="m133.484 31.281c-2.139 0-4.224-.865-5.725-2.366-1.513-1.512-2.377-3.597-2.377-5.735 0-2.129.864-4.213 2.377-5.725 1.501-1.513 3.586-2.377 5.725-2.377 2.128 0 4.224.864 5.725 2.377 1.513 1.512 2.377 3.596 2.377 5.725 0 2.138-.864 4.223-2.377 5.735-1.512 1.501-3.597 2.366-5.725 2.366z" fill="#37c47a"/></svg>