<svg enable-background="new 0 0 512 512" viewBox="0 0 512 512" xmlns="http://www.w3.org/2000/svg"><path d="m48 107.984h416v256h-416z" fill="#fff"/><path d="m48 107.984h416v64h-416z" fill="#ff4f19"/><path d="m459.133 75.984h-406.281c-20.321 0-36.852 16.493-36.852 36.766v291.234c0 4.422 3.578 8 8 8h464c4.422 0 8-3.578 8-8v-291.234c0-20.273-16.539-36.766-36.867-36.766zm-411.133 280v-240c0-4.418 3.582-8 8-8h400c4.418 0 8 3.582 8 8v240c0 4.418-3.582 8-8 8h-400c-4.418 0-8-3.582-8-8z" fill="#5c546a"/><path d="m504 395.984h-496c-4.422 0-8 3.578-8 8 0 17.664 14.367 32.031 32.031 32.031h447.937c17.664 0 32.031-14.367 32.031-32.031.001-4.422-3.577-8-7.999-8z" fill="#b9bbc1"/><path d="m144 147.984h-56c-4.422 0-8-3.578-8-8s3.578-8 8-8h56c4.422 0 8 3.578 8 8s-3.578 8-8 8z" fill="#ffd200"/><path d="m288 147.984h-8c-4.422 0-8-3.578-8-8s3.578-8 8-8h8c4.422 0 8 3.578 8 8s-3.578 8-8 8z" fill="#fff"/><path d="m328 147.984h-8c-4.422 0-8-3.578-8-8s3.578-8 8-8h8c4.422 0 8 3.578 8 8s-3.578 8-8 8z" fill="#fff"/><path d="m368 147.984h-8c-4.422 0-8-3.578-8-8s3.578-8 8-8h8c4.422 0 8 3.578 8 8s-3.578 8-8 8z" fill="#fff"/><path d="m408 147.984h-8c-4.422 0-8-3.578-8-8s3.578-8 8-8h8c4.422 0 8 3.578 8 8s-3.578 8-8 8z" fill="#fff"/><path d="m224 339.984h-136c-4.418 0-8-3.582-8-8v-128c0-4.418 3.582-8 8-8h136c4.418 0 8 3.582 8 8v128c0 4.418-3.582 8-8 8z" fill="#53dcff"/><path d="m416 211.984h-152c-4.422 0-8-3.578-8-8s3.578-8 8-8h152c4.422 0 8 3.578 8 8s-3.578 8-8 8z" fill="#ff4f19"/><g fill="#b9bbc1"><path d="m328 275.984h-64c-4.422 0-8-3.578-8-8s3.578-8 8-8h64c4.422 0 8 3.578 8 8s-3.578 8-8 8z"/><path d="m328 307.984h-64c-4.422 0-8-3.578-8-8s3.578-8 8-8h64c4.422 0 8 3.578 8 8s-3.578 8-8 8z"/><path d="m328 339.984h-64c-4.422 0-8-3.578-8-8s3.578-8 8-8h64c4.422 0 8 3.578 8 8s-3.578 8-8 8z"/><path d="m424 275.984h-64c-4.422 0-8-3.578-8-8s3.578-8 8-8h64c4.422 0 8 3.578 8 8s-3.578 8-8 8z"/><path d="m424 307.984h-64c-4.422 0-8-3.578-8-8s3.578-8 8-8h64c4.422 0 8 3.578 8 8s-3.578 8-8 8z"/><path d="m424 339.984h-64c-4.422 0-8-3.578-8-8s3.578-8 8-8h64c4.422 0 8 3.578 8 8s-3.578 8-8 8z"/></g><path d="m368 243.984h-104c-4.422 0-8-3.578-8-8s3.578-8 8-8h104c4.422 0 8 3.578 8 8s-3.578 8-8 8z" fill="#e9001e"/><path d="m224 411.984h64c8.836 0 16-7.164 16-16h-96c0 8.837 7.163 16 16 16z" fill="#8b8996"/></svg>