<svg height="512pt" viewBox="-84 0 512 512.00053" width="512pt" xmlns="http://www.w3.org/2000/svg"><path d="m320.363281 260.585938-119.914062 234.269531c-2.96875 5.828125-7.324219 10.1875-12.363281 13.039062-14.617188 8.308594-34.980469 4.035157-43.726563-13.039062l-119.902344-234.269531c-67.855469-113.285157 13.238281-260.585938 147.945313-260.585938 5.308594 0 10.535156.230469 15.664062.679688 125.011719 10.867187 197.621094 150.832031 132.296875 259.90625zm0 0" fill="#4172cc"/><path d="m320.363281 260.585938-119.914062 234.269531c-2.96875 5.828125-7.324219 10.1875-12.363281 13.039062-5.023438-2.84375-9.382813-7.1875-12.378907-13.039062l-119.902343-234.269531c-65.183594-108.8125 7.074218-249.019532 132.261718-259.90625 125.011719 10.867187 197.621094 150.832031 132.296875 259.90625zm0 0" fill="#6990d7"/><path d="m311.148438 172.710938c0 76.617187-62.109376 138.726562-138.722657 138.726562-76.617187 0-138.722656-62.109375-138.722656-138.726562 0-76.613282 62.105469-138.722657 138.722656-138.722657 76.613281 0 138.722657 62.109375 138.722657 138.722657zm0 0" fill="#ffe1aa"/><path d="m240.175781 240.460938c-13.960937 13.960937-31.148437 22.71875-49.164062 26.261718-30.28125 5.953125-62.878907-2.800781-86.339844-26.261718-37.417969-37.414063-37.417969-98.082032 0-135.5 23.460937-23.457032 56.058594-32.214844 86.339844-26.25 18.015625 3.53125 35.203125 12.289062 49.164062 26.25 37.417969 37.417968 37.417969 98.085937 0 135.5zm0 0" fill="#f29500"/><path d="m240.175781 240.460938c-13.960937 13.960937-31.148437 22.71875-49.164062 26.261718-18.011719-3.542968-35.203125-12.300781-49.160157-26.261718-37.417968-37.414063-37.417968-98.082032 0-135.5 13.957032-13.960938 31.148438-22.71875 49.160157-26.25 18.015625 3.53125 35.203125 12.289062 49.164062 26.25 37.417969 37.417968 37.417969 98.085937 0 135.5zm0 0" fill="#ffb52d"/><path d="m180.617188 162.695312c-8.625-3.195312-17.128907-4.859374-17.128907-12.125 0-12.433593 16.3125-7.378906 27.914063-3.644531 7.769531-.476562 17.8125-16.746093-9.640625-21.488281v-7.816406c0-5.15625-4.179688-9.335938-9.335938-9.335938s-9.335937 4.179688-9.335937 9.335938v9.089844c-.132813.09375-17.945313 3.59375-17.945313 24.550781 0 18.121093 12.921875 22.976562 23.304688 26.875 10.394531 3.90625 14.988281 5.988281 14.988281 14.414062 0 10.746094-7.867188 9.699219-12.632812 10.535157-12.25-.390626-11.589844-9.488282-19.175782-9.488282-4.742187 0-8.5625 5.234375-8.5625 9.566406 0 12.265626 19.824219 16.902344 19.949219 16.964844h.074219v7.859375c0 5.15625 4.179687 9.335938 9.335937 9.335938s9.335938-4.179688 9.335938-9.335938v-8.054687h.039062c.695313-.511719 19.980469-4.074219 19.980469-28.074219 0-23.527344-19.332031-27.785156-21.164062-29.164063zm0 0" fill="#f29500"/></svg>