<svg height="512pt" viewBox="-12 0 512 512" width="512pt" xmlns="http://www.w3.org/2000/svg"><path d="m451.820312 326.980469h-119.648437c-4.265625 0-7.726563-3.460938-7.726563-7.726563s3.460938-7.726562 7.726563-7.726562h111.925781v-249.28125c0-4.269532 3.457032-7.726563 7.722656-7.726563 4.269532 0 7.726563 3.460938 7.726563 7.726563v257.007812c.003906 4.265625-3.457031 7.726563-7.726563 7.726563zm0 0" fill="#87acc8"/><path d="m451.820312 447.652344c-4.265624 0-7.722656-3.460938-7.722656-7.726563v-79.027343h-118.105468c-4.265626 0-7.726563-3.457032-7.726563-7.722657 0-4.269531 3.460937-7.726562 7.726563-7.726562h125.832031c4.265625 0 7.726562 3.457031 7.726562 7.726562v86.75c0 4.265625-3.460937 7.726563-7.730469 7.726563zm0 0" fill="#87acc8"/><path d="m476.941406 72.074219h-50.234375c-6.03125 0-10.921875-4.886719-10.921875-10.917969v-50.234375c0-6.03125 4.890625-10.921875 10.921875-10.921875h50.234375c6.03125 0 10.917969 4.890625 10.917969 10.921875v50.230469c0 6.035156-4.886719 10.921875-10.917969 10.921875zm0 0" fill="#e8f088"/><path d="m487.859375 10.921875v50.230469c0 6.03125-4.890625 10.921875-10.921875 10.921875h-21.839844c6.027344 0 10.921875-4.890625 10.921875-10.921875v-50.230469c0-6.03125-4.894531-10.921875-10.921875-10.921875h21.839844c6.03125 0 10.921875 4.890625 10.921875 10.921875zm0 0" fill="#d8e477"/><path d="m476.941406 512h-50.234375c-6.03125 0-10.921875-4.890625-10.921875-10.921875v-50.234375c0-6.03125 4.890625-10.917969 10.921875-10.917969h50.234375c6.03125 0 10.917969 4.886719 10.917969 10.917969v50.234375c0 6.03125-4.886719 10.921875-10.917969 10.921875zm0 0" fill="#5b7fa0"/><path d="m487.859375 450.84375v50.234375c0 6.027344-4.890625 10.921875-10.921875 10.921875h-21.839844c6.027344 0 10.921875-4.890625 10.921875-10.921875v-50.234375c0-6.027344-4.894531-10.917969-10.921875-10.917969h21.839844c6.03125 0 10.921875 4.890625 10.921875 10.917969zm0 0" fill="#3f6b86"/><path d="m152.597656 326.980469h-116.558594c-4.269531 0-7.726562-3.460938-7.726562-7.726563v-257.007812c0-4.269532 3.457031-7.726563 7.726562-7.726563 4.265626 0 7.726563 3.460938 7.726563 7.726563v249.28125h108.832031c4.265625 0 7.726563 3.457031 7.726563 7.726562 0 4.265625-3.460938 7.726563-7.726563 7.726563zm0 0" fill="#87acc8"/><path d="m36.039062 447.652344c-4.269531 0-7.726562-3.460938-7.726562-7.726563v-86.753906c0-4.265625 3.457031-7.726563 7.726562-7.726563h125.828126c4.269531 0 7.726562 3.460938 7.726562 7.726563 0 4.269531-3.457031 7.726563-7.726562 7.726563h-118.101563v79.027343c0 4.265625-3.460937 7.726563-7.726563 7.726563zm0 0" fill="#87acc8"/><path d="m61.15625 72.074219h-50.234375c-6.03125 0-10.921875-4.886719-10.921875-10.917969v-50.234375c0-6.03125 4.890625-10.921875 10.921875-10.921875h50.230469c6.03125 0 10.921875 4.890625 10.921875 10.921875v50.230469c0 6.035156-4.886719 10.921875-10.917969 10.921875zm0 0" fill="#4fb4ff"/><path d="m72.074219 10.921875v50.230469c0 6.03125-4.890625 10.921875-10.917969 10.921875h-21.84375c6.03125 0 10.921875-4.890625 10.921875-10.921875v-50.230469c0-6.03125-4.890625-10.921875-10.921875-10.921875h21.84375c6.027344 0 10.917969 4.890625 10.917969 10.921875zm0 0" fill="#368df6"/><path d="m61.15625 512h-50.234375c-6.03125 0-10.921875-4.890625-10.921875-10.921875v-50.234375c0-6.03125 4.890625-10.917969 10.921875-10.917969h50.230469c6.03125 0 10.921875 4.886719 10.921875 10.917969v50.234375c0 6.03125-4.886719 10.921875-10.917969 10.921875zm0 0" fill="#ffa438"/><path d="m72.074219 450.84375v50.234375c0 6.027344-4.890625 10.921875-10.917969 10.921875h-21.84375c6.03125 0 10.921875-4.890625 10.921875-10.921875v-50.234375c0-6.027344-4.890625-10.917969-10.921875-10.917969h21.84375c6.027344 0 10.917969 4.890625 10.917969 10.917969zm0 0" fill="#f48414"/><g fill="#77dfff"><path d="m279.652344 32.636719c-1.714844 0-3.441406-.566407-4.875-1.734375-8.824219-7.1875-19.492188-10.984375-30.847656-10.984375-11.355469 0-22.023438 3.796875-30.847657 10.984375-3.308593 2.695312-8.175781 2.195312-10.871093-1.113282-2.695313-3.308593-2.195313-8.175781 1.113281-10.867187 11.449219-9.324219 25.867187-14.457031 40.605469-14.457031 14.738281 0 29.160156 5.132812 40.605468 14.457031 3.308594 2.691406 3.808594 7.558594 1.113282 10.867187-1.527344 1.875-3.753907 2.847657-5.996094 2.847657zm0 0"/><path d="m267.53125 50.964844c-1.714844 0-3.441406-.566406-4.875-1.734375-5.355469-4.363281-11.832031-6.671875-18.726562-6.671875-6.894532 0-13.367188 2.308594-18.726563 6.671875-3.308594 2.695312-8.175781 2.195312-10.871094-1.113281-2.691406-3.308594-2.195312-8.175782 1.113281-10.871094 8.03125-6.539063 18.148438-10.140625 28.484376-10.140625 10.339843 0 20.457031 3.601562 28.484374 10.140625 3.308594 2.695312 3.808594 7.5625 1.113282 10.871094-1.527344 1.875-3.753906 2.847656-5.996094 2.847656zm0 0"/><path d="m255.921875 68.066406c-1.714844 0-3.441406-.566406-4.875-1.734375-2.035156-1.660156-4.496094-2.535156-7.117187-2.535156-2.617188 0-5.078126.875-7.117188 2.535156-3.308594 2.691407-8.175781 2.195313-10.871094-1.113281-2.695312-3.308594-2.195312-8.175781 1.113282-10.871094 4.757812-3.871094 10.75-6.003906 16.875-6.003906s12.117187 2.132812 16.875 6.003906c3.308593 2.695313 3.804687 7.5625 1.109374 10.871094-1.523437 1.875-3.75 2.847656-5.992187 2.847656zm0 0"/><path d="m243.976562 86.953125c-4.265624 0-7.773437-3.460937-7.773437-7.726563 0-4.265624 3.414063-7.726562 7.679687-7.726562h.09375c4.265626 0 7.726563 3.460938 7.726563 7.726562 0 4.265626-3.460937 7.726563-7.726563 7.726563zm0 0"/></g><path d="m227.117188 456.921875h-24.726563c-4.265625 0-7.726563-3.457031-7.726563-7.726563 0-4.265624 3.460938-7.722656 7.726563-7.722656h24.726563c4.265624 0 7.726562 3.457032 7.726562 7.722656 0 4.269532-3.460938 7.726563-7.726562 7.726563zm0 0" fill="#ffc55e"/><path d="m285.46875 486.722656h-83.078125c-4.265625 0-7.726563-3.457031-7.726563-7.726562 0-4.265625 3.460938-7.726563 7.726563-7.726563h83.078125c4.265625 0 7.726562 3.460938 7.726562 7.726563 0 4.269531-3.460937 7.726562-7.726562 7.726562zm0 0" fill="#5b7fa0"/><path d="m285.46875 508.238281h-83.078125c-4.265625 0-7.726563-3.460937-7.726563-7.726562 0-4.269531 3.460938-7.726563 7.726563-7.726563h83.078125c4.265625 0 7.726562 3.460938 7.726562 7.726563 0 4.269531-3.460937 7.726562-7.726562 7.726562zm0 0" fill="#5b7fa0"/><path d="m302.917969 174.203125v60.101563c0 7.519531-6.097657 13.621093-13.617188 13.621093-7.511719 0-13.609375-6.101562-13.609375-13.621093v-60.101563c0-17.511719-14.25-31.757813-31.761718-31.757813-17.511719 0-31.757813 14.246094-31.757813 31.757813v60.101563c0 7.519531-6.101563 13.621093-13.609375 13.621093-7.523438 0-13.621094-6.101562-13.621094-13.621093v-60.101563c0-32.523437 26.464844-58.988281 58.988282-58.988281 32.523437 0 58.988281 26.464844 58.988281 58.988281zm0 0" fill="#ffc55e"/><path d="m184.941406 214.328125h27.230469v19.976563c0 7.519531-6.101563 13.617187-13.609375 13.617187-7.523438 0-13.621094-6.097656-13.621094-13.617187zm0 0" fill="#ffa438"/><path d="m302.917969 214.328125v19.976563c0 7.519531-6.097657 13.617187-13.617188 13.617187-7.511719 0-13.609375-6.097656-13.609375-13.617187v-19.976563zm0 0" fill="#ffa438"/><path d="m334.328125 238.691406v21.667969h-180.796875v-21.667969c0-6.621094 5.367188-12 11.992188-12h156.8125c6.625 0 11.992187 5.378906 11.992187 12zm0 0" fill="#c8e7e5"/><path d="m334.328125 239.261719v21.097656h-180.796875v-21.097656c.585938-.054688 1.1875-.074219 1.792969-.074219h177.210937c.609375 0 1.207032.019531 1.792969.074219zm0 0" fill="#acc6c4"/><path d="m243.929688 413.160156c-55.5625 0-100.605469-45.042968-100.605469-100.605468v-49.003907c0-6.625 5.375-12 12-12h177.210937c6.625 0 12 5.375 12 12v49.003907c0 55.5625-45.042968 100.605468-100.605468 100.605468zm0 0" fill="#ffc55e"/><path d="m266.511719 308.351562c0-13.320312-11.53125-23.945312-25.152344-22.441406-10.371094 1.148438-18.71875 9.496094-19.867187 19.863282-.96875 8.71875 3.039062 16.574218 9.535156 21.105468v18.121094c0 7.125 5.777344 12.902344 12.902344 12.902344s12.902343-5.777344 12.902343-12.902344v-18.121094c5.847657-4.082031 9.679688-10.855468 9.679688-18.527344zm0 0" fill="#5b7fa0"/></svg>