<svg enable-background="new 0 0 512 512" viewBox="0 0 512 512" xmlns="http://www.w3.org/2000/svg"><circle cx="256" cy="267" fill="#f24976" r="245"/><path d="m50 399.664c14.013 21.714 31.367 41.064 51.332 57.336h309.336c19.965-16.272 37.319-35.623 51.332-57.336v-340.664h-412z" fill="#aec1ed"/><path d="m50 59v340.664c6.016 9.323 12.652 18.206 19.843 26.601v-367.265z" fill="#85a0dd"/><g fill="#eef6ff"><path d="m419.516 89.036h-327.032c-2.75 0-5 2.25-5 5v68.382c0 2.75 2.25 5 5 5h80.031c4.421-42.162 40.172-75.135 83.484-75.135 43.314 0 79.065 32.973 83.485 75.135h80.03c2.75 0 5-2.25 5-5v-68.382c.002-2.75-2.248-5-4.998-5z"/><path d="m256 130.283c-22.321 0-40.968 16.002-45.093 37.135h90.187c-4.125-21.133-22.772-37.135-45.094-37.135z"/><path d="m419.516 199.726h-327.032c-2.75 0-5 2.25-5 5v18.503c0 2.75 2.25 5 5 5h48.153c2.081-1.951 4.868-3.156 7.939-3.156h214.847c3.069 0 5.858 1.205 7.938 3.156h48.154c2.75 0 5-2.25 5-5v-18.503c.001-2.75-2.249-5-4.999-5z"/><path d="m136.95 238.724h-44.466c-2.75 0-5 2.25-5 5v18.504c0 2.75 2.25 5 5 5h44.466z"/><path d="m419.516 238.724h-44.467v28.504h44.467c2.75 0 5-2.25 5-5v-18.504c0-2.75-2.25-5-5-5z"/><path d="m136.95 277.722h-44.466c-2.75 0-5 2.25-5 5v18.503c0 2.75 2.25 5 5 5h44.466z"/><path d="m419.516 277.722h-44.467v28.503h44.467c2.75 0 5-2.25 5-5v-18.503c0-2.75-2.25-5-5-5z"/><path d="m136.95 316.72h-44.466c-2.75 0-5 2.25-5 5v18.503c0 2.75 2.25 5 5 5h44.466z"/><path d="m419.516 316.72h-44.467v28.503h44.467c2.75 0 5-2.25 5-5v-18.503c0-2.75-2.25-5-5-5z"/><path d="m136.95 355.718h-44.466c-2.75 0-5 2.25-5 5v18.503c0 2.75 2.25 5 5 5h44.466z"/><path d="m419.516 355.718h-44.467v28.503h44.467c2.75 0 5-2.25 5-5v-18.503c0-2.75-2.25-5-5-5z"/><path d="m419.516 394.716h-44.467v2.363c0 6.411-5.216 11.626-11.626 11.626h-214.847c-6.41 0-11.626-5.215-11.626-11.626v-2.363h-44.466c-2.75 0-5 2.25-5 5v18.503c0 2.75 2.25 5 5 5h327.031c2.75 0 5-2.25 5-5v-18.503c.001-2.75-2.249-5-4.999-5z"/></g><path d="m107.327 162.418v-68.382c0-2.75 2.25-5 5-5h-19.843c-2.75 0-5 2.25-5 5v68.382c0 2.75 2.25 5 5 5h19.843c-2.75 0-5-2.25-5-5z" fill="#d9eafc"/><path d="m107.327 223.229v-18.503c0-2.75 2.25-5 5-5h-19.843c-2.75 0-5 2.25-5 5v18.503c0 2.75 2.25 5 5 5h19.843c-2.75 0-5-2.25-5-5z" fill="#d9eafc"/><path d="m107.327 262.227v-18.504c0-2.75 2.25-5 5-5h-19.843c-2.75 0-5 2.25-5 5v18.504c0 2.75 2.25 5 5 5h19.843c-2.75 0-5-2.25-5-5z" fill="#d9eafc"/><path d="m107.327 301.225v-18.503c0-2.75 2.25-5 5-5h-19.843c-2.75 0-5 2.25-5 5v18.503c0 2.75 2.25 5 5 5h19.843c-2.75 0-5-2.25-5-5z" fill="#d9eafc"/><path d="m107.327 340.223v-18.503c0-2.75 2.25-5 5-5h-19.843c-2.75 0-5 2.25-5 5v18.503c0 2.75 2.25 5 5 5h19.843c-2.75 0-5-2.25-5-5z" fill="#d9eafc"/><path d="m107.327 379.221v-18.503c0-2.75 2.25-5 5-5h-19.843c-2.75 0-5 2.25-5 5v18.503c0 2.75 2.25 5 5 5h19.843c-2.75 0-5-2.25-5-5z" fill="#d9eafc"/><path d="m107.327 418.219v-18.503c0-2.75 2.25-5 5-5h-19.843c-2.75 0-5 2.25-5 5v18.503c0 2.75 2.25 5 5 5h19.843c-2.75 0-5-2.25-5-5z" fill="#d9eafc"/><path d="m211.05 225.073v-48.839c0-24.786 20.165-44.951 44.95-44.951 24.786 0 44.951 20.165 44.951 44.951v48.839h40v-48.839c0-46.842-38.109-84.951-84.951-84.951s-84.95 38.109-84.95 84.951v48.839z" fill="#445ea0"/><path d="m190.893 225.073v-48.839c0-43.484 32.848-79.421 75.029-84.353-3.258-.381-6.565-.599-9.922-.599-46.842 0-84.95 38.109-84.95 84.951v48.839z" fill="#293d7c"/><path d="m376.049 397.079c0 6.944-5.682 12.626-12.626 12.626h-214.847c-6.944 0-12.626-5.682-12.626-12.626v-160.38c0-6.944 5.682-12.626 12.626-12.626h214.847c6.944 0 12.626 5.682 12.626 12.626z" fill="#ff9518"/><path d="m155.793 397.079v-160.38c0-6.944 5.682-12.626 12.626-12.626h-19.843c-6.944 0-12.626 5.682-12.626 12.626v160.379c0 6.944 5.682 12.626 12.626 12.626h19.843c-6.944.001-12.626-5.681-12.626-12.625z" fill="#ef8318"/><path d="m279.99 281.298c0-13.249-10.741-23.989-23.99-23.989-13.248 0-23.989 10.741-23.989 23.989 0 10.629 6.915 19.637 16.489 22.787v39.081c0 4.142 3.357 7.5 7.5 7.5s7.5-3.358 7.5-7.5v-39.081c9.574-3.149 16.49-12.158 16.49-22.787z" fill="#db722c"/><path d="m135.95 375.993v21.085c0 6.944 5.682 12.626 12.626 12.626h214.847c6.944 0 12.626-5.682 12.626-12.626v-21.085z" fill="#db722c"/><path d="m452 0h-392c-5.5 0-10 4.5-10 10v50h412v-50c0-5.5-4.5-10-10-10z" fill="#293d7c"/><path d="m80.353 40.287c-2.139 0-4.224-.865-5.735-2.366-1.502-1.512-2.366-3.597-2.366-5.735 0-2.129.864-4.213 2.366-5.725 1.512-1.513 3.597-2.376 5.735-2.376 2.128 0 4.224.864 5.725 2.376 1.513 1.512 2.377 3.596 2.377 5.725 0 2.138-.864 4.223-2.377 5.735-1.502 1.501-3.598 2.366-5.725 2.366z" fill="#e26693"/><path d="m106.92 40.287c-2.128 0-4.224-.865-5.726-2.377-1.512-1.501-2.376-3.586-2.376-5.724 0-2.129.864-4.213 2.376-5.725 1.513-1.513 3.598-2.376 5.726-2.376 2.139 0 4.223.864 5.736 2.376 1.501 1.512 2.365 3.596 2.365 5.725 0 2.128-.864 4.223-2.365 5.724-1.513 1.512-3.597 2.377-5.736 2.377z" fill="#ffaf10"/><path d="m133.498 40.287c-2.139 0-4.224-.865-5.725-2.366-1.513-1.512-2.377-3.597-2.377-5.735 0-2.129.864-4.213 2.377-5.725 1.501-1.513 3.586-2.376 5.725-2.376 2.128 0 4.224.864 5.725 2.376 1.513 1.512 2.377 3.596 2.377 5.725 0 2.138-.864 4.223-2.377 5.735-1.512 1.501-3.597 2.366-5.725 2.366z" fill="#37c47a"/></svg>