<svg enable-background="new 0 0 512 512" viewBox="0 0 512 512" xmlns="http://www.w3.org/2000/svg"><path d="m222.987 256-219.493 178.047c-2.159-2.183-3.494-5.192-3.494-8.492v-339.109c0-3.3 1.335-6.309 3.494-8.493z" fill="#ff9e24"/><path d="m512 86.446v339.109c0 3.3-1.335 6.309-3.494 8.493l-219.493-178.048 219.493-178.047c2.159 2.183 3.494 5.192 3.494 8.493z" fill="#ff9e24"/><path d="m499.867 74.313h-487.734c-3.373 0-6.43 1.395-8.638 3.64l252.505 262.976 252.506-262.976c-2.208-2.245-5.266-3.64-8.639-3.64z" fill="#ffe1d6"/><path d="m337.544 256 170.962 178.047c-2.208 2.245-5.266 3.64-8.638 3.64h-487.735c-3.373 0-6.43-1.395-8.638-3.64l170.961-178.047 81.544 84.929z" fill="#ffb14d"/></svg>