<svg enable-background="new 0 0 512 512" viewBox="0 0 512 512" xmlns="http://www.w3.org/2000/svg"><path d="m234.906 365.215h42.177v146.785h-42.177z" fill="#f99d88"/><path d="m375.467 125.156c-19.629 0-238.933 0-238.933 0l98.377 262.81h238.933v-164.434c-.001-54.331-44.045-98.376-98.377-98.376z" fill="#ffd24d"/><path d="m136.533 125.156c-54.332 0-98.377 44.046-98.377 98.377v164.433h196.754v-164.434c0-54.331-44.044-98.376-98.377-98.376z" fill="#fee191"/><path d="m362.645 0h-77.022l-8.533 65.991h85.555c5.656 0 10.24-4.584 10.24-10.24v-45.511c0-5.656-4.585-10.24-10.24-10.24z" fill="#f14742"/><path d="m268.557 0v305.749c0 4.714 3.821 8.533 8.533 8.533s8.533-3.82 8.533-8.533v-305.749z" fill="#cd3f39"/><path d="m136.533 216.747c-4.713 0-8.533-3.82-8.533-8.533v-26.169c0-4.714 3.821-8.533 8.533-8.533s8.533 3.82 8.533 8.533v26.169c.001 4.713-3.82 8.533-8.533 8.533z" fill="#fff"/></svg>