<svg enable-background="new 0 0 512 512" viewBox="0 0 512 512" xmlns="http://www.w3.org/2000/svg"><circle cx="256" cy="256" fill="#52bbef" r="245"/><path d="m304.794 43.273c-3.024-24.393-23.709-43.273-48.794-43.273s-45.771 18.88-48.794 43.273z" fill="#293d7c"/><path d="m264.504.748c-2.763-.485-5.603-.748-8.504-.748-25.085 0-45.771 18.88-48.794 43.273h17.007c2.674-21.571 19.163-38.821 40.291-42.525z" fill="#1a2b63"/><path d="m474.742 59.417h-141.495v32.557c0 1.654-1.346 3-3 3h-148.589c-1.654 0-3-1.346-3-3v-32.557h-141.4c-5.5 0-10 4.5-10 10v274.483c4.983 12.958 11.035 25.385 18.048 37.174h49.819v-7.039c0-.542.458-1 1-1h85v-32c0-.542.458-1 1-1h98.277c.542 0 1 .458 1 1v40.039h185.29c7.014-11.79 13.065-24.216 18.049-37.176v-274.48c.001-5.501-4.499-10.001-9.999-10.001z" fill="#a53535"/><path d="m38.596 69.418c0-5.5 4.5-10 10-10h-11.338c-5.5 0-10 4.5-10 10v274.482c3.314 8.618 7.11 16.994 11.338 25.11z" fill="#994334"/><path d="m457.072 82.08h-123.825v9.894c0 1.654-1.346 3-3 3h-148.589c-1.654 0-3-1.346-3-3v-9.894h-123.73c-2.819 0-5.125 2.318-5.125 5.151v266.029c0 2.834 2.306 5.151 5.125 5.151h126.198v-17.375c0-.542.458-1 1-1h98.277c.542 0 1 .458 1 1v17.375h175.669c2.817 0 5.124-2.317 5.124-5.151v-266.029c0-2.833-2.306-5.151-5.124-5.151z" fill="#fff"/><path d="m66.81 353.26v-266.029c0-2.833 2.306-5.151 5.125-5.151h-17.007c-2.819 0-5.125 2.318-5.125 5.151v266.029c0 2.834 2.306 5.151 5.125 5.151h17.007c-2.819 0-5.125-2.317-5.125-5.151z" fill="#d9eafc"/><path d="m194.816 300.441c-.615-2.398-.942-4.912-.942-7.5s.327-5.102.942-7.5h-32.304c.615 2.398.942 4.912.942 7.5s-.327 5.102-.942 7.5z" fill="#aec1ed"/><path d="m285.2 300.441c-.614-2.398-.941-4.912-.941-7.5s.327-5.102.941-7.5h-32.305c.615 2.398.942 4.912.942 7.5s-.327 5.102-.941 7.5z" fill="#aec1ed"/><path d="m375.583 300.441c-.614-2.398-.941-4.912-.941-7.5s.327-5.102.941-7.5h-32.304c.614 2.398.941 4.912.941 7.5s-.327 5.102-.941 7.5z" fill="#aec1ed"/><path d="m227.703 213.424h-38.488v15h38.488c-.615-2.399-.942-4.912-.942-7.501 0-2.588.327-5.1.942-7.499z" fill="#aec1ed"/><path d="m133.472 262.829c2.589 0 5.102.332 7.5.954v-17.706h-15v17.706c2.398-.622 4.911-.954 7.5-.954z" fill="#aec1ed"/><path d="m125.97 179.29h15v16.481h-15z" fill="#aec1ed"/><path d="m184.549 238.412c0 1.65-1.35 3-3 3h-96.154c-1.65 0-3-1.35-3-3v-34.976c0-1.65 1.35-3 3-3h96.154c1.65 0 3 1.35 3 3z" fill="#2bb381"/><path d="m181.549 248.912h-96.154c-5.79 0-10.5-4.71-10.5-10.5v-34.976c0-5.789 4.71-10.5 10.5-10.5h96.154c5.79 0 10.5 4.711 10.5 10.5v34.976c0 5.79-4.71 10.5-10.5 10.5zm-91.654-15h87.154v-25.976h-87.154z" fill="#37c47a"/><path d="m184.549 171.624c0 1.65-1.35 3-3 3h-96.154c-1.65 0-3-1.35-3-3v-34.975c0-1.65 1.35-3 3-3h96.154c1.65 0 3 1.35 3 3z" fill="#ffd00d"/><path d="m181.549 182.124h-96.154c-5.79 0-10.5-4.71-10.5-10.5v-34.975c0-5.79 4.71-10.5 10.5-10.5h96.154c5.79 0 10.5 4.71 10.5 10.5v34.975c0 5.79-4.71 10.5-10.5 10.5zm-91.654-15h87.154v-25.975h-87.154z" fill="#ffaf10"/><path d="m327.285 146.253h-26.544v15h22.044v52.171h-37.001c.614 2.398.941 4.911.941 7.499 0 2.589-.327 5.102-.941 7.501h41.501c5.79 0 10.5-4.71 10.5-10.5v-61.171c0-5.79-4.71-10.5-10.5-10.5z" fill="#aec1ed"/><path d="m296.076 171.624c0 1.65-1.35 3-3 3h-72.665c-1.65 0-3-1.35-3-3v-34.975c0-1.65 1.35-3 3-3h72.665c1.65 0 3 1.35 3 3z" fill="#fe3745"/><path d="m293.076 182.124h-72.665c-5.789 0-10.5-4.71-10.5-10.5v-34.975c0-5.79 4.711-10.5 10.5-10.5h72.665c5.79 0 10.5 4.71 10.5 10.5v34.975c0 5.79-4.71 10.5-10.5 10.5zm-68.165-15h63.665v-25.975h-63.665z" fill="#b7092b"/><ellipse cx="256.74" cy="220.92" fill="#6dc3ed" rx="24.982" ry="25.11"/><path d="m256.743 253.536c-17.911 0-32.482-14.63-32.482-32.612s14.571-32.611 32.482-32.611 32.482 14.629 32.482 32.611c.001 17.982-14.571 32.612-32.482 32.612zm0-50.223c-9.64 0-17.482 7.9-17.482 17.611 0 9.712 7.842 17.612 17.482 17.612s17.482-7.901 17.482-17.612c.001-9.711-7.842-17.611-17.482-17.611z" fill="#2da1dc"/><ellipse cx="133.47" cy="292.94" fill="#fe3745" rx="24.982" ry="25.11"/><path d="m133.472 325.553c-17.911 0-32.483-14.63-32.483-32.612s14.572-32.612 32.483-32.612c17.91 0 32.481 14.629 32.481 32.612.001 17.982-14.571 32.612-32.481 32.612zm0-50.224c-9.64 0-17.483 7.9-17.483 17.612 0 9.711 7.843 17.612 17.483 17.612 9.639 0 17.481-7.901 17.481-17.612.001-9.712-7.842-17.612-17.481-17.612z" fill="#b7092b"/><ellipse cx="223.85" cy="292.94" fill="#ffd00d" rx="24.981" ry="25.11"/><path d="m223.856 325.553c-17.911 0-32.482-14.63-32.482-32.612s14.571-32.612 32.482-32.612c17.91 0 32.481 14.629 32.481 32.612 0 17.982-14.571 32.612-32.481 32.612zm0-50.224c-9.64 0-17.482 7.9-17.482 17.612 0 9.711 7.842 17.612 17.482 17.612 9.639 0 17.481-7.901 17.481-17.612 0-9.712-7.842-17.612-17.481-17.612z" fill="#ffaf10"/><ellipse cx="314.24" cy="292.94" fill="#2bb381" rx="24.981" ry="25.11"/><path d="m314.24 325.553c-17.91 0-32.481-14.63-32.481-32.612s14.571-32.612 32.481-32.612 32.48 14.629 32.48 32.612c.001 17.982-14.57 32.612-32.48 32.612zm0-50.224c-9.64 0-17.481 7.9-17.481 17.612 0 9.711 7.842 17.612 17.481 17.612s17.48-7.901 17.48-17.612c.001-9.712-7.841-17.612-17.48-17.612z" fill="#37c47a"/><ellipse cx="404.62" cy="292.94" fill="#6dc3ed" rx="24.982" ry="25.11"/><path d="m404.623 325.553c-17.91 0-32.481-14.63-32.481-32.612s14.571-32.612 32.481-32.612c17.911 0 32.483 14.629 32.483 32.612-.001 17.982-14.572 32.612-32.483 32.612zm0-50.224c-9.64 0-17.481 7.9-17.481 17.612 0 9.711 7.842 17.612 17.481 17.612 9.64 0 17.483-7.901 17.483-17.612-.001-9.712-7.843-17.612-17.483-17.612z" fill="#2da1dc"/><path d="m395.827 172.574h-37.352c-4.143 0-7.5-3.358-7.5-7.5s3.357-7.5 7.5-7.5h37.352c4.143 0 7.5 3.358 7.5 7.5s-3.357 7.5-7.5 7.5z" fill="#445ea0"/><path d="m395.827 195.288h-37.352c-4.143 0-7.5-3.358-7.5-7.5s3.357-7.5 7.5-7.5h37.352c4.143 0 7.5 3.358 7.5 7.5s-3.357 7.5-7.5 7.5z" fill="#445ea0"/><path d="m395.827 218.001h-37.352c-4.143 0-7.5-3.358-7.5-7.5s3.357-7.5 7.5-7.5h37.352c4.143 0 7.5 3.358 7.5 7.5s-3.357 7.5-7.5 7.5z" fill="#445ea0"/><path d="m429.605 172.574h-12.832c-4.143 0-7.5-3.358-7.5-7.5s3.357-7.5 7.5-7.5h12.832c4.142 0 7.5 3.358 7.5 7.5s-3.357 7.5-7.5 7.5z" fill="#445ea0"/><path d="m429.605 195.288h-12.832c-4.143 0-7.5-3.358-7.5-7.5s3.357-7.5 7.5-7.5h12.832c4.142 0 7.5 3.358 7.5 7.5s-3.357 7.5-7.5 7.5z" fill="#445ea0"/><path d="m429.605 218.001h-12.832c-4.143 0-7.5-3.358-7.5-7.5s3.357-7.5 7.5-7.5h12.832c4.142 0 7.5 3.358 7.5 7.5s-3.357 7.5-7.5 7.5z" fill="#445ea0"/><path d="m181.658 96.974c-2.75 0-5-2.25-5-5v-45.701c0-2.75 2.25-5 5-5h148.589c2.75 0 5 2.25 5 5v45.701c0 2.75-2.25 5-5 5z" fill="#445ea0"/><path d="m190.831 91.974v-45.701c0-2.75 2.25-5 5-5h-14.172c-2.75 0-5 2.25-5 5v45.701c0 2.75 2.25 5 5 5h14.172c-2.75 0-5-2.25-5-5z" fill="#293d7c"/><path d="m204.12 76.62c-1.97 0-3.91-.8-5.3-2.19-1.4-1.4-2.2-3.33-2.2-5.31 0-1.97.8-3.9 2.2-5.3 1.39-1.4 3.32-2.2 5.3-2.2 1.97 0 3.91.8 5.3 2.2 1.4 1.4 2.2 3.33 2.2 5.3 0 1.98-.8 3.91-2.2 5.31-1.39 1.39-3.33 2.19-5.3 2.19z" fill="#aec1ed"/><path d="m307.79 76.62c-1.98 0-3.91-.8-5.311-2.19-1.39-1.4-2.189-3.33-2.189-5.31 0-1.97.8-3.9 2.189-5.3 1.4-1.4 3.33-2.2 5.311-2.2 1.97 0 3.9.8 5.3 2.2s2.2 3.33 2.2 5.3c0 1.98-.8 3.91-2.2 5.31-1.4 1.39-3.33 2.19-5.3 2.19z" fill="#aec1ed"/><path d="m280.403 338.036h-98.277c-1.65 0-3 1.35-3 3v32h15.277c.542 0 1 .458 1 1v68.278h85c1.65 0 3-1.35 3-3v-98.278c0-1.65-1.349-3-3-3z" fill="#ffaf10"/><path d="m193.298 373.036v-32c0-1.65 1.35-3 3-3h-14.172c-1.65 0-3 1.35-3 3v32z" fill="#ef9614"/><path d="m244.765 368.5h-27c-4.142 0-7.5-3.358-7.5-7.5s3.358-7.5 7.5-7.5h27c4.142 0 7.5 3.358 7.5 7.5s-3.358 7.5-7.5 7.5z" fill="#ef9614"/><path d="m194.403 371.036h-98.277c-1.65 0-3 1.35-3 3v64.967c16.1 14.339 34.102 26.584 53.585 36.312h47.692c1.65 0 3-1.35 3-3v-98.278c0-1.651-1.35-3.001-3-3.001z" fill="#ffd00d"/><path d="m107.298 374.036c0-1.65 1.35-3 3-3h-14.172c-1.65 0-3 1.35-3 3v64.967c4.572 4.072 9.303 7.969 14.172 11.694z" fill="#ffaf10"/><path d="m167.79 407.944h-45.052c-4.142 0-7.5-3.358-7.5-7.5s3.358-7.5 7.5-7.5h45.052c4.142 0 7.5 3.358 7.5 7.5s-3.357 7.5-7.5 7.5z" fill="#ffaf10"/><path d="m167.79 427.342h-45.052c-4.142 0-7.5-3.358-7.5-7.5s3.358-7.5 7.5-7.5h45.052c4.142 0 7.5 3.358 7.5 7.5s-3.357 7.5-7.5 7.5z" fill="#ffaf10"/><path d="m167.79 446.739h-45.052c-4.142 0-7.5-3.358-7.5-7.5s3.358-7.5 7.5-7.5h45.052c4.142 0 7.5 3.358 7.5 7.5s-3.357 7.5-7.5 7.5z" fill="#ffaf10"/><path d="m418.874 509c0 1.65-1.35 3-3 3h-98.277c-1.65 0-3-1.35-3-3v-98.278c0-1.65 1.35-3 3-3h98.277c1.65 0 3 1.35 3 3z" fill="#ffd00d"/><g fill="#ffaf10"><path d="m328.772 509v-98.278c0-1.65 1.35-3 3-3h-14.175c-1.65 0-3 1.35-3 3v98.278c0 1.65 1.35 3 3 3h14.175c-1.651 0-3-1.35-3-3z"/><path d="m339.77 445.48c-1.97 0-3.91-.8-5.3-2.2-1.39-1.39-2.189-3.32-2.189-5.3 0-1.97.8-3.91 2.189-5.3 1.4-1.4 3.33-2.2 5.3-2.2 1.98 0 3.91.8 5.311 2.2 1.39 1.4 2.189 3.33 2.189 5.3s-.8 3.91-2.189 5.3c-1.401 1.4-3.331 2.2-5.311 2.2z"/><path d="m339.77 467.36c-1.97 0-3.899-.8-5.3-2.2-1.39-1.39-2.189-3.32-2.189-5.3 0-1.97.8-3.91 2.189-5.3 1.4-1.4 3.33-2.2 5.3-2.2 1.98 0 3.91.8 5.311 2.2 1.39 1.4 2.189 3.329 2.189 5.3 0 1.97-.8 3.91-2.189 5.3-1.401 1.4-3.331 2.2-5.311 2.2z"/><path d="m339.77 489.24c-1.97 0-3.899-.8-5.3-2.2-1.39-1.39-2.189-3.32-2.189-5.3 0-1.97.8-3.91 2.189-5.3 1.4-1.4 3.33-2.2 5.3-2.2 1.98 0 3.91.8 5.311 2.2 1.39 1.4 2.189 3.33 2.189 5.3 0 1.98-.8 3.91-2.189 5.3-1.401 1.4-3.331 2.2-5.311 2.2z"/><path d="m393.134 445.481h-34.219c-4.143 0-7.5-3.358-7.5-7.5s3.357-7.5 7.5-7.5h34.219c4.143 0 7.5 3.358 7.5 7.5s-3.358 7.5-7.5 7.5z"/><path d="m393.134 467.361h-34.219c-4.143 0-7.5-3.358-7.5-7.5s3.357-7.5 7.5-7.5h34.219c4.143 0 7.5 3.358 7.5 7.5s-3.358 7.5-7.5 7.5z"/><path d="m393.134 489.241h-34.219c-4.143 0-7.5-3.358-7.5-7.5s3.357-7.5 7.5-7.5h34.219c4.143 0 7.5 3.358 7.5 7.5s-3.358 7.5-7.5 7.5z"/></g></svg>