<svg enable-background="new 0 0 512 512" viewBox="0 0 512 512" xmlns="http://www.w3.org/2000/svg"><circle cx="256" cy="256" fill="#91e0e8" r="245"/><path d="m155.559 408.75c0 2.038-1.666 3.703-3.703 3.703h-148.152c-2.038 0-3.704-1.665-3.704-3.703v-99.26c0-2.037 1.666-3.705 3.704-3.705h148.151c2.037 0 3.703 1.668 3.703 3.705v99.26z" fill="#52bbef"/><path d="m120.03 363.781c-1.313-1.556-3.461-1.556-4.774 0l-19.255 22.847c-1.313 1.556-3.46 1.556-4.774 0l-36.346-43.12c-1.313-1.558-3.46-1.558-4.774 0l-50.107 59.445v5.797c0 2.038 1.666 3.703 3.704 3.703h148.151c2.037 0 3.703-1.665 3.703-3.703v-2.821z" fill="#02af8e"/><path d="m19.843 408.75v-5.797l42.572-50.506-7.534-8.939c-1.313-1.558-3.46-1.558-4.774 0l-50.107 59.445v5.797c0 2.038 1.666 3.703 3.704 3.703h19.843c-2.038 0-3.704-1.665-3.704-3.703z" fill="#0f9390"/><circle cx="20.879" cy="325.21" fill="#fff" r="11.11"/><path d="m18.944 325.209c0-4.498 2.679-8.362 6.524-10.11-1.399-.637-2.95-1-4.588-1-6.137 0-11.112 4.975-11.112 11.11 0 6.137 4.976 11.113 11.112 11.113 1.638 0 3.188-.363 4.588-1-3.845-1.749-6.524-5.615-6.524-10.113z" fill="#d9eafc"/><path d="m476.543 389.213c0 2.75-2.25 5-5 5h-109.086c-2.75 0-5-2.25-5-5v-78.074c0-2.75 2.25-5 5-5h109.086c2.75 0 5 2.25 5 5z" fill="#fe3745"/><path d="m377.3 389.213v-78.074c0-2.75 2.25-5 5-5h-19.843c-2.75 0-5 2.25-5 5v78.074c0 2.75 2.25 5 5 5h19.843c-2.75 0-5-2.25-5-5z" fill="#b7092b"/><path d="m397.552 334.712c0-5.5 3.897-7.75 8.66-5l26.784 15.463c4.763 2.75 4.763 7.25 0 10l-26.784 15.464c-4.763 2.75-8.66.5-8.66-5z" fill="#fff"/><path d="m510.012 224.146h-89.457c-1.094 0-1.988.898-1.988 1.997v57.4c0 1.099.895 1.997 1.988 1.997h89.457c1.094 0 1.988-.898 1.988-1.997v-57.4c0-1.098-.895-1.997-1.988-1.997z" fill="#ffaf10"/><path d="m438.409 283.544v-57.4c0-1.099.895-1.997 1.988-1.997h-19.843c-1.094 0-1.988.898-1.988 1.997v57.4c0 1.099.895 1.997 1.988 1.997h19.843c-1.093 0-1.988-.898-1.988-1.997z" fill="#ef9614"/><path d="m510.012 224.146h-89.457c-.605 0-1.144.281-1.509.714l44.662 34.518c.867.67 2.285.67 3.151 0l44.661-34.518c-.365-.432-.903-.714-1.508-.714z" fill="#ffd00d"/><path d="m129.031 26.156h-89.457c-1.094 0-1.988.898-1.988 1.997v57.4c0 1.099.895 1.997 1.988 1.997h89.457c1.094 0 1.988-.898 1.988-1.997v-57.4c.001-1.098-.894-1.997-1.988-1.997z" fill="#ffaf10"/><path d="m57.429 85.554v-57.4c0-1.099.895-1.997 1.988-1.997h-19.843c-1.094 0-1.988.898-1.988 1.997v57.4c0 1.099.895 1.997 1.988 1.997h19.843c-1.094 0-1.988-.899-1.988-1.997z" fill="#ef9614"/><path d="m129.031 26.156h-89.457c-.605 0-1.144.281-1.509.714l44.662 34.518c.867.67 2.285.67 3.151 0l44.662-34.518c-.365-.432-.903-.714-1.509-.714z" fill="#ffd00d"/><path d="m255.528 43.5c-77.079 0-139.786 62.708-139.786 139.787 0 47.294 23.637 91.023 63.226 116.973 1.77 1.161 3.14 2.842 3.921 4.81l15.374 38.796h114.529l15.375-38.796c.781-1.968 2.15-3.648 3.921-4.81 39.589-25.95 63.225-69.679 63.225-116.973 0-77.079-62.708-139.787-139.785-139.787z" fill="#ffd00d"/><path d="m198.811 300.26c-39.589-25.95-63.225-69.679-63.225-116.973 0-73.743 57.398-134.324 129.864-139.431-3.277-.231-6.585-.356-9.921-.356-77.079 0-139.786 62.708-139.786 139.787 0 47.294 23.637 91.023 63.226 116.973 1.77 1.161 3.14 2.842 3.921 4.81l15.374 38.796h19.843l-15.374-38.796c-.783-1.968-2.152-3.649-3.922-4.81z" fill="#ffaf10"/><path d="m263.028 343.865v-51.434c-2.479.168-4.978.262-7.5.262s-5.021-.094-7.5-.262v51.434z" fill="#1a2b63"/><path d="m255.528 293.693c-60.878 0-110.406-49.529-110.406-110.406s49.528-110.407 110.406-110.407c60.877 0 110.405 49.53 110.405 110.407.001 60.877-49.528 110.406-110.405 110.406z" fill="#b7092b"/><path d="m255.528 266.441c-45.853 0-83.154-37.304-83.154-83.154 0-45.852 37.302-83.155 83.154-83.155s83.154 37.304 83.154 83.155c.001 45.851-37.302 83.154-83.154 83.154z" fill="#fff"/><path d="m187.217 183.287c0-43.349 33.347-79.038 75.732-82.807-2.446-.218-4.918-.349-7.421-.349-45.853 0-83.154 37.304-83.154 83.155s37.302 83.154 83.154 83.154c2.503 0 4.975-.131 7.421-.349-42.385-3.767-75.732-39.456-75.732-82.804z" fill="#d9eafc"/><circle cx="255.53" cy="183.29" fill="#b7092b" r="55.904"/><path d="m255.528 208.355c-13.824 0-25.069-11.245-25.069-25.068 0-13.824 11.245-25.069 25.069-25.069 13.823 0 25.069 11.245 25.069 25.069.001 13.823-11.245 25.068-25.069 25.068z" fill="#fff"/><path d="m246.302 183.287c0-11.057 7.195-20.456 17.147-23.779-2.491-.832-5.153-1.29-7.921-1.29-13.824 0-25.069 11.245-25.069 25.069 0 13.823 11.245 25.068 25.069 25.068 2.768 0 5.43-.457 7.921-1.29-9.952-3.323-17.147-12.722-17.147-23.778z" fill="#d9eafc"/><path d="m217.97 438.054v20.446c0 5.5 4.5 10 10 10h55.117c5.5 0 10-4.5 10-10v-20.446z" fill="#293d7c"/><path d="m237.813 458.5v-20.446h-19.843v20.446c0 5.5 4.5 10 10 10h19.843c-5.5 0-10-4.5-10-10z" fill="#1a2b63"/><path d="m329.142 434.054c0 2.75-2.25 5-5 5h-137.228c-2.75 0-5-2.25-5-5v-86.189c0-2.75 2.25-5 5-5h137.228c2.75 0 5 2.25 5 5z" fill="#445ea0"/><path d="m201.757 434.054v-86.189c0-2.75 2.25-5 5-5h-19.843c-2.75 0-5 2.25-5 5v86.189c0 2.75 2.25 5 5 5h19.843c-2.75 0-5-2.25-5-5z" fill="#293d7c"/><g fill="#1a2b63"><path d="m331.1 382.428h-151.144c-4.143 0-7.5-3.357-7.5-7.5s3.357-7.5 7.5-7.5h151.144c4.143 0 7.5 3.357 7.5 7.5 0 4.142-3.358 7.5-7.5 7.5z"/><path d="m331.1 414.49h-151.144c-4.143 0-7.5-3.357-7.5-7.5s3.357-7.5 7.5-7.5h151.144c4.143 0 7.5 3.357 7.5 7.5s-3.358 7.5-7.5 7.5z"/><path d="m255.528 177.095h-127.155l4.921 5.302c1.122 1.209 1.122 3.188 0 4.397l-4.92 5.301h127.154c4.143 0 7.5-3.357 7.5-7.5s-3.357-7.5-7.5-7.5z"/></g><path d="m67.255 210.48c-1.65 0-2.054-.963-.896-2.139l21.25-21.608c1.157-1.176 1.157-3.101 0-4.277l-21.25-21.605c-1.157-1.177-.754-2.139.896-2.139h42.054c1.65 0 3.918.989 5.041 2.198l19.944 21.486c1.122 1.209 1.122 3.188 0 4.397l-19.944 21.487c-1.123 1.21-3.391 2.199-5.041 2.199z" fill="#fe3745"/><path d="m84.201 208.342 21.25-21.608c1.157-1.176 1.157-3.101 0-4.277l-21.25-21.605c-1.157-1.177-.754-2.139.896-2.139h-17.842c-1.65 0-2.054.962-.896 2.139l21.25 21.605c1.157 1.177 1.157 3.102 0 4.277l-21.25 21.608c-1.157 1.176-.754 2.139.896 2.139h17.843c-1.651-.001-2.054-.963-.897-2.139z" fill="#b7092b"/></svg>