<svg enable-background="new 0 0 490 490" height="512" viewBox="0 0 490 490" width="512" xmlns="http://www.w3.org/2000/svg"><path d="m23.136 48.548h443.728v421.248h-443.728z" fill="#ff4851"/><path d="m23.136 48.548h443.728v53.104h-443.728z" fill="#db2a3b"/><path d="m23.136 273.995h443.728v37.466h-443.728z" fill="#db2a3b"/><path d="m475.128 76.892h-460.256c-8.214 0-14.872-6.659-14.872-14.872v-26.944c0-8.213 6.658-14.872 14.872-14.872h460.256c8.214 0 14.872 6.658 14.872 14.872v26.944c0 8.213-6.658 14.872-14.872 14.872z" fill="#b3b3b3"/><path d="m51.579 119.896h70.371v135.855h-70.371z" fill="#ccc"/><path d="m157.069 119.896h70.371v56.036h-70.371z" fill="#bde9ff"/><path d="m262.56 119.896h70.371v135.855h-70.371z" fill="#ccc"/><path d="m51.579 333.941h70.371v135.855h-70.371z" fill="#ccc"/><path d="m262.56 333.941h70.371v135.855h-70.371z" fill="#ccc"/><path d="m368.05 119.896h70.371v56.036h-70.371z" fill="#bde9ff"/><path d="m129.45 255.751h-15v-128.355h-55.371v128.355h-15v-135.855c0-4.142 3.358-7.5 7.5-7.5h70.371c4.142 0 7.5 3.358 7.5 7.5z" fill="#f2f2f2"/><path d="m227.44 183.432h-70.371c-4.142 0-7.5-3.358-7.5-7.5v-56.036c0-4.142 3.358-7.5 7.5-7.5h70.371c4.142 0 7.5 3.358 7.5 7.5v56.036c0 4.142-3.358 7.5-7.5 7.5zm-62.871-15h55.371v-41.036h-55.371z" fill="#f2f2f2"/><path d="m340.431 255.751h-15v-128.355h-55.371v128.355h-15v-135.855c0-4.142 3.357-7.5 7.5-7.5h70.371c4.143 0 7.5 3.358 7.5 7.5z" fill="#f2f2f2"/><path d="m438.421 183.432h-70.371c-4.143 0-7.5-3.358-7.5-7.5v-56.036c0-4.142 3.357-7.5 7.5-7.5h70.371c4.143 0 7.5 3.358 7.5 7.5v56.036c0 4.142-3.357 7.5-7.5 7.5zm-62.871-15h55.371v-41.036h-55.371z" fill="#f2f2f2"/><path d="m157.069 333.941h70.371v56.036h-70.371z" fill="#bde9ff"/><path d="m368.05 333.941h70.371v56.036h-70.371z" fill="#bde9ff"/><path d="m129.45 469.796h-15v-128.355h-55.371v128.355h-15v-135.855c0-4.142 3.358-7.5 7.5-7.5h70.371c4.142 0 7.5 3.358 7.5 7.5z" fill="#f2f2f2"/><path d="m227.44 397.477h-70.371c-4.142 0-7.5-3.358-7.5-7.5v-56.036c0-4.142 3.358-7.5 7.5-7.5h70.371c4.142 0 7.5 3.358 7.5 7.5v56.036c0 4.142-3.358 7.5-7.5 7.5zm-62.871-15h55.371v-41.036h-55.371z" fill="#f2f2f2"/><path d="m340.431 469.796h-15v-128.355h-55.371v128.355h-15v-135.855c0-4.142 3.357-7.5 7.5-7.5h70.371c4.143 0 7.5 3.358 7.5 7.5z" fill="#f2f2f2"/><path d="m438.421 397.477h-70.371c-4.143 0-7.5-3.358-7.5-7.5v-56.036c0-4.142 3.357-7.5 7.5-7.5h70.371c4.143 0 7.5 3.358 7.5 7.5v56.036c0 4.142-3.357 7.5-7.5 7.5zm-62.871-15h55.371v-41.036h-55.371z" fill="#f2f2f2"/><g fill="#505263"><path d="m70.073 417.999c-6.811 0-10.061-8.779-4.87-13.201 5.232-4.456 13.441.221 12.253 6.989-.623 3.548-3.771 6.212-7.383 6.212z"/><path d="m282.023 417.999c-6.465 0-9.871-8.026-5.408-12.688 4.703-4.913 13.228-1.191 12.899 5.556-.193 3.946-3.54 7.132-7.491 7.132z"/><path d="m70.073 200.512c-6.811 0-10.061-8.779-4.87-13.201 5.232-4.456 13.441.221 12.253 6.989-.623 3.548-3.771 6.212-7.383 6.212z"/><path d="m282.023 200.512c-6.465 0-9.871-8.026-5.408-12.688 4.703-4.913 13.228-1.191 12.899 5.556-.193 3.946-3.54 7.132-7.491 7.132z"/><path d="m481.499 200.799h-472.998c-4.142 0-7.5 3.358-7.5 7.5s3.358 7.5 7.5 7.5h26.487v44.952c0 4.142 3.358 7.5 7.5 7.5s7.5-3.358 7.5-7.5v-44.952h52.504v44.952c0 4.142 3.358 7.5 7.5 7.5s7.5-3.358 7.5-7.5v-44.952h52.504v44.952c0 4.142 3.358 7.5 7.5 7.5s7.5-3.358 7.5-7.5v-44.952h52.504v44.952c0 4.142 3.358 7.5 7.5 7.5s7.5-3.358 7.5-7.5v-44.952h52.505v44.952c0 4.142 3.357 7.5 7.5 7.5s7.5-3.358 7.5-7.5v-44.952h52.504v44.952c0 4.142 3.357 7.5 7.5 7.5s7.5-3.358 7.5-7.5v-44.952h52.504v44.952c0 4.142 3.357 7.5 7.5 7.5s7.5-3.358 7.5-7.5v-44.952h26.487c4.143 0 7.5-3.358 7.5-7.5s-3.358-7.5-7.501-7.5z"/></g><path d="m472.407 290.937h-454.814c-9.716 0-17.593-7.877-17.593-17.593 0-9.716 7.877-17.593 17.593-17.593h454.815c9.716 0 17.593 7.877 17.593 17.593-.001 9.716-7.877 17.593-17.594 17.593z" fill="#b3b3b3"/></svg>