<svg enable-background="new 0 0 512 512" viewBox="0 0 512 512" xmlns="http://www.w3.org/2000/svg"><path d="m255.488 69.962c-4.204 0-7.611-3.407-7.611-7.611v-54.74c0-4.204 3.408-7.611 7.611-7.611 4.204 0 7.612 3.407 7.612 7.611v54.739c0 4.205-3.408 7.612-7.612 7.612z" fill="#656d88"/><path d="m44.349 274.994v237.006h122.513v-243.095h-116.424c-3.363 0-6.089 2.726-6.089 6.089z" fill="#5c9cee"/><g fill="#48cfb7"><path d="m127.436 324.704h-43.661c-4.204 0-7.611-3.407-7.611-7.612s3.408-7.611 7.611-7.611h43.662c4.204 0 7.612 3.407 7.612 7.611s-3.409 7.612-7.613 7.612z"/><path d="m127.436 373.611h-43.661c-4.204 0-7.611-3.407-7.611-7.611s3.408-7.612 7.611-7.612h43.662c4.204 0 7.612 3.407 7.612 7.612s-3.409 7.611-7.613 7.611z"/><path d="m127.436 422.517h-43.661c-4.204 0-7.611-3.407-7.611-7.611s3.408-7.612 7.611-7.612h43.662c4.204 0 7.612 3.407 7.612 7.612s-3.409 7.611-7.613 7.611z"/><path d="m127.436 471.424h-43.661c-4.204 0-7.611-3.407-7.611-7.612s3.408-7.611 7.611-7.611h43.662c4.204 0 7.612 3.407 7.612 7.611s-3.409 7.612-7.613 7.612z"/></g><path d="m345.138 268.905v243.095h122.513v-237.006c0-3.363-2.726-6.089-6.089-6.089z" fill="#5c9cee"/><path d="m345.14 268.9h63.27v243.09h-63.27z" fill="#3580d3"/><path d="m428.225 324.704h-43.661c-4.204 0-7.612-3.407-7.612-7.612s3.407-7.611 7.612-7.611h43.661c4.204 0 7.612 3.407 7.612 7.611s-3.408 7.612-7.612 7.612z" fill="#48cfb7"/><path d="m428.225 373.611h-43.661c-4.204 0-7.612-3.407-7.612-7.611s3.407-7.612 7.612-7.612h43.661c4.204 0 7.612 3.407 7.612 7.612s-3.408 7.611-7.612 7.611z" fill="#48cfb7"/><path d="m428.225 422.517h-43.661c-4.204 0-7.612-3.407-7.612-7.611s3.407-7.612 7.612-7.612h43.661c4.204 0 7.612 3.407 7.612 7.612s-3.408 7.611-7.612 7.611z" fill="#48cfb7"/><path d="m428.225 471.424h-43.661c-4.204 0-7.612-3.407-7.612-7.612s3.407-7.611 7.612-7.611h43.661c4.204 0 7.612 3.407 7.612 7.611s-3.408 7.612-7.612 7.612z" fill="#48cfb7"/><path d="m332.199 160.101v-39.935c0-3.363-2.726-6.089-6.089-6.089h-140.22c-3.363 0-6.089 2.726-6.089 6.089v39.935h-46.275c-3.363 0-6.089 2.726-6.089 6.089v345.81h257.128v-345.81c0-3.363-2.726-6.089-6.089-6.089z" fill="#ebeef2"/><path d="m360.714 160.101v351.899h23.849v-345.81c0-3.363-2.726-6.089-6.089-6.089z" fill="#d1d6de"/><path d="m332.199 160.101v-39.935c0-3.363-2.726-6.089-6.089-6.089h-17.76v46.024z" fill="#d1d6de"/><path d="m217.692 68.441v45.637h75.593v-45.637c0-3.363-2.726-6.089-6.089-6.089h-63.415c-3.363-.001-6.089 2.726-6.089 6.089z" fill="#d1d6de"/><path d="m269.436 62.351v51.726h23.849v-45.636c0-3.363-2.726-6.089-6.089-6.089z" fill="#b8bfc9"/><path d="m162.971 204.687v18.583c0 1.681 1.363 3.045 3.045 3.045h179.97c1.681 0 3.045-1.363 3.045-3.045v-18.583c0-1.681-1.363-3.045-3.045-3.045h-179.97c-1.682.001-3.045 1.364-3.045 3.045z" fill="#48cfb7"/><path d="m162.971 280.151v18.583c0 1.681 1.363 3.045 3.045 3.045h179.97c1.681 0 3.045-1.363 3.045-3.045v-18.583c0-1.681-1.363-3.045-3.045-3.045h-179.97c-1.682.001-3.045 1.364-3.045 3.045z" fill="#48cfb7"/><path d="m162.971 355.615v18.583c0 1.681 1.363 3.045 3.045 3.045h179.97c1.681 0 3.045-1.363 3.045-3.045v-18.583c0-1.681-1.363-3.045-3.045-3.045h-179.97c-1.682 0-3.045 1.364-3.045 3.045z" fill="#48cfb7"/><path d="m225.89 427.26h60.22v84.74h-60.22z" fill="#ed5575"/></svg>