<svg enable-background="new 0 0 512 512" viewBox="0 0 512 512" xmlns="http://www.w3.org/2000/svg"><circle cx="256" cy="267" fill="#a53535" r="245"/><circle cx="80.38" cy="257.24" fill="#ffd00d" r="34.503"/><path d="m65.723 257.242c0-15.606 10.364-28.786 24.582-33.048-3.143-.942-6.472-1.455-9.922-1.455-19.055 0-34.503 15.448-34.503 34.503s15.448 34.503 34.503 34.503c3.45 0 6.779-.513 9.922-1.455-14.218-4.263-24.582-17.442-24.582-33.048z" fill="#ffaf10"/><path d="m407.896 185.208c-43.599 0-80.219-30.452-89.711-71.203h-211.912c-5.5 0-10 4.5-10 10v116.976c0 5.5 4.5 10 10 10h299.453c5.5 0 10-4.5 10-10v-56.109c-2.581.218-5.193.336-7.83.336z" fill="#91e0e8"/><path d="m116.116 240.981v-116.976c0-5.5 4.5-10 10-10h-19.843c-5.5 0-10 4.5-10 10v116.976c0 5.5 4.5 10 10 10h19.843c-5.5 0-10-4.5-10-10z" fill="#5dc1d8"/><path d="m235.499 458.876v52.263c6.761.56 13.596.861 20.501.861 34.653 0 67.618-7.21 97.499-20.187v-32.937z" fill="#37c47a"/><path d="m255.342 458.883h-19.843v52.263c6.546.542 13.162.835 19.843.854z" fill="#02af8e"/><path d="m355.547 410.039v-125.572c0-8.25-6.75-15-15-15h-5.998c-5.931 0-11.071 3.497-13.501 8.523-2.43-5.026-7.57-8.523-13.501-8.523h-5.998c-5.931 0-11.071 3.497-13.501 8.523-2.43-5.026-7.57-8.523-13.501-8.523h-5.998c-4.901 0-9.261 2.393-12.002 6.058v-58.392c0-8.25-6.75-15-15-15h-5.998c-8.25 0-15 6.75-15 15v122.96l-16.686-16.686c-5.834-5.833-15.379-5.833-21.213.001l-6.241 6.241c-5.833 5.834-5.833 15.38 0 21.213l59.177 59.177z" fill="#ffe2b8"/><path d="m255.429 410.039-59.177-59.177c-5.833-5.833-5.833-15.379 0-21.213l6.241-6.241c.22-.22.455-.415.686-.619-5.873-5.19-14.914-4.996-20.528.619l-6.241 6.241c-5.833 5.834-5.833 15.38 0 21.213l59.177 59.177z" fill="#ffc987"/><path d="m365.499 454.876c0 2.75-2.25 5-5 5h-132c-2.75 0-5-2.25-5-5v-40.837c0-2.75 2.25-5 5-5h132c2.75 0 5 2.25 5 5z" fill="#0f9390"/><path d="m243.342 454.876v-40.837c0-2.75 2.25-5 5-5h-19.843c-2.75 0-5 2.25-5 5v40.837c0 2.75 2.25 5 5 5h19.843c-2.75 0-5-2.25-5-5z" fill="#0f9390"/><g fill="#fff"><circle cx="339.5" cy="434.46" r="11"/><path d="m237.499 188.5c-4.143 0-7.5-3.358-7.5-7.5v-15c0-4.142 3.357-7.5 7.5-7.5s7.5 3.358 7.5 7.5v15c0 4.142-3.357 7.5-7.5 7.5z"/><path d="m262.248 198.751c-1.919 0-3.839-.732-5.304-2.197-2.929-2.929-2.929-7.678 0-10.606l10.607-10.607c2.93-2.929 7.678-2.929 10.607 0s2.929 7.678 0 10.607l-10.606 10.606c-1.465 1.465-3.385 2.197-5.304 2.197z"/><path d="m287.499 223.5h-14.999c-4.143 0-7.5-3.358-7.5-7.5s3.357-7.5 7.5-7.5h14.999c4.143 0 7.5 3.358 7.5 7.5s-3.357 7.5-7.5 7.5z"/><path d="m202.497 223.5h-14.998c-4.143 0-7.5-3.358-7.5-7.5s3.357-7.5 7.5-7.5h14.998c4.143 0 7.5 3.358 7.5 7.5s-3.357 7.5-7.5 7.5z"/><path d="m212.749 198.75c-1.919 0-3.839-.732-5.304-2.197l-10.605-10.605c-2.929-2.929-2.929-7.678 0-10.607 2.93-2.929 7.678-2.929 10.607 0l10.605 10.605c2.929 2.929 2.929 7.678 0 10.606-1.464 1.466-3.384 2.198-5.303 2.198z"/></g><circle cx="407.9" cy="93.1" fill="#ef9614" r="93.1"/><circle cx="407.9" cy="93.1" fill="#ffd00d" r="66.17"/><path d="m361.569 93.104c0-33.171 24.41-60.639 56.247-65.426-3.236-.487-6.549-.743-9.921-.743-36.545 0-66.169 29.625-66.169 66.169s29.624 66.169 66.169 66.169c3.372 0 6.685-.256 9.921-.743-31.837-4.787-56.247-32.254-56.247-65.426z" fill="#ffaf10"/><path d="m420.896 85.937h-23.5v-10.333h28.5c4.143 0 7.5-3.358 7.5-7.5s-3.357-7.5-7.5-7.5h-10.5v-6.5c0-4.142-3.357-7.5-7.5-7.5s-7.5 3.358-7.5 7.5v6.5h-5.5c-6.893 0-12.5 5.607-12.5 12.5v15.333c0 6.893 5.607 12.5 12.5 12.5h23.5v10.334h-28.5c-4.143 0-7.5 3.358-7.5 7.5s3.357 7.5 7.5 7.5h10.5v5.833c0 4.142 3.357 7.5 7.5 7.5s7.5-3.358 7.5-7.5v-5.833h5.5c6.893 0 12.5-5.607 12.5-12.5v-15.334c0-6.893-5.608-12.5-12.5-12.5z" fill="#db722c"/><circle cx="92.1" cy="422.04" fill="#ef9614" r="81.1"/><circle cx="92.1" cy="422.04" fill="#ffd00d" r="54.641"/><path d="m57.307 422.038c0-26.788 19.281-49.057 44.719-53.726-3.219-.591-6.531-.915-9.921-.915-30.178 0-54.641 24.464-54.641 54.641 0 30.178 24.463 54.641 54.641 54.641 3.39 0 6.702-.325 9.921-.915-25.438-4.669-44.719-26.939-44.719-53.726z" fill="#ffaf10"/><path d="m103.429 414.828h-19.504v-7.068h23.86c4.142 0 7.5-3.358 7.5-7.5s-3.358-7.5-7.5-7.5h-8.181v-4.696c0-4.142-3.357-7.5-7.5-7.5s-7.5 3.358-7.5 7.5v4.696h-3.824c-6.537 0-11.855 5.318-11.855 11.855v13.357c0 6.537 5.318 11.855 11.855 11.855h19.505v7.068h-23.86c-4.143 0-7.5 3.358-7.5 7.5s3.357 7.5 7.5 7.5h8.18v4.115c0 4.142 3.357 7.5 7.5 7.5s7.5-3.358 7.5-7.5v-4.115h3.824c6.538 0 11.856-5.318 11.856-11.855v-13.357c0-6.537-5.318-11.855-11.856-11.855z" fill="#db722c"/><circle cx="424.39" cy="326.25" fill="#ffd00d" r="34.503"/><path d="m409.728 326.247c0-15.606 10.364-28.786 24.582-33.048-3.142-.942-6.472-1.455-9.922-1.455-19.055 0-34.503 15.448-34.503 34.503 0 19.056 15.448 34.503 34.503 34.503 3.45 0 6.779-.513 9.922-1.455-14.217-4.263-24.582-17.442-24.582-33.048z" fill="#ffaf10"/></svg>