<svg enable-background="new 0 0 512 512" viewBox="0 0 512 512" xmlns="http://www.w3.org/2000/svg"><path d="m437.02 74.98c-48.352-48.351-112.639-74.98-181.02-74.98s-132.668 26.629-181.02 74.98c-48.351 48.352-74.98 112.639-74.98 181.02s26.629 132.668 74.98 181.02c48.352 48.351 112.639 74.98 181.02 74.98s132.668-26.629 181.02-74.98c48.351-48.352 74.98-112.639 74.98-181.02s-26.629-132.668-74.98-181.02z" fill="#ffda2d"/><path d="m512 256c0-68.381-26.629-132.668-74.98-181.02-48.352-48.351-112.639-74.98-181.02-74.98v512c68.381 0 132.668-26.629 181.02-74.98 48.351-48.352 74.98-112.639 74.98-181.02z" fill="#ff9f00"/><path d="m272.067 241h-32.134c-18.307 0-33.2-14.894-33.2-33.199 0-18.307 14.894-33.2 33.2-33.2h64.267c8.284 0 15-6.716 15-15s-6.716-15-15-15h-33.2v-33.2c0-8.284-6.716-15-15-15s-15 6.716-15 15v33.2h-1.066c-34.849 0-63.2 28.352-63.2 63.2 0 34.849 28.352 63.199 63.2 63.199h32.134c18.306 0 33.199 14.894 33.199 33.2s-14.894 33.2-33.199 33.2h-64.267c-8.284 0-15 6.716-15 15s6.716 15 15 15h33.199v33.201c0 8.284 6.716 15 15 15s15-6.716 15-15v-33.201h1.067c34.849 0 63.199-28.352 63.199-63.2s-28.35-63.2-63.199-63.2z" fill="#ff9f00"/><g fill="#f77e00"><path d="m304.2 174.601c8.284 0 15-6.716 15-15s-6.716-15-15-15h-33.2v-33.2c0-8.284-6.716-15-15-15v78.2z"/><path d="m272.067 241h-16.067v30h16.067c18.306 0 33.199 14.894 33.199 33.2s-14.894 33.2-33.199 33.2h-16.067v78.201c8.284 0 15-6.716 15-15v-33.201h1.067c34.849 0 63.199-28.352 63.199-63.2s-28.35-63.2-63.199-63.2z"/></g></svg>