<svg height="512pt" viewBox="0 0 512 512" width="512pt" xmlns="http://www.w3.org/2000/svg"><path d="m512 256c0 141.386719-114.613281 256-256 256s-256-114.613281-256-256 114.613281-256 256-256 256 114.613281 256 256zm0 0" fill="#9331b2"/><path d="m504.835938 316.304688-198.535157-198.539063-34.15625-4.960937-68.753906-69.804688-31.800781 64.433594-71.109375 10.332031 51.289062 51.121094-11.980469 69.855469 33.78125 31.761718v61.007813l-7.394531-5.542969c-13.820312-10.363281-33.605469-7.535156-43.972656 6.285156-10.359375 13.820313-7.53125 33.605469 6.289063 43.972656 0 0 82.335937 82.289063 135.761718 135.628907 116.945313-3.707031 214.089844-85.839844 240.582032-195.550781zm0 0" fill="#681f7b"/><path d="m203.390625 43 31.800781 64.433594 71.109375 10.332031-51.457031 50.15625 12.148438 70.820313-63.601563-33.4375-63.601563 33.4375 12.148438-70.820313-51.457031-50.15625 71.109375-10.332031zm0 0" fill="#ffe670"/><path d="m254.847656 167.914062 12.144532 70.828126-63.601563-33.441407v-162.304687l31.800781 64.445312 71.101563 10.324219zm0 0" fill="#ffd400"/><path d="m370.398438 266.230469c-11.3125 0-21.214844 6.339843-26.328126 15.644531-3.019531-13.371094-15.027343-23.441406-29.277343-23.441406-11.3125 0-21.214844 6.34375-26.328125 15.648437-3.019532-13.375-15.023438-23.441406-29.277344-23.441406-10.789062 0-20.292969 5.769531-25.585938 14.375v-101.507813c0-16.507812-13.507812-30.015624-30.015624-30.015624-16.511719 0-30.015626 13.507812-30.015626 30.015624v168.003907l-7.394531-5.542969c-13.820312-10.363281-33.605469-7.535156-43.972656 6.285156-10.359375 13.820313-7.53125 33.605469 6.289063 43.96875 0 0 66.652343 57.136719 66.710937 57.179688 13.460937 10.386718 30.289063 16.597656 48.507813 16.597656h77.007812c43.832031 0 79.695312-35.863281 79.695312-79.695312v-74.058594c0-16.507813-13.507812-30.015625-30.015624-30.015625zm0 0" fill="#ffb74f"/><path d="m400.414062 296.242188v74.066406c0 43.824218-35.859374 79.691406-79.691406 79.691406h-32.257812v-175.921875c2.5625-4.652344 6.3125-8.5625 10.835937-11.3125 4.53125-2.746094 9.832031-4.328125 15.488281-4.328125 14.257813 0 26.257813 10.066406 29.28125 23.4375 5.117188-9.304688 15.011719-15.640625 26.328126-15.640625 16.511718 0 30.015624 13.503906 30.015624 30.007813zm0 0" fill="#ff9a00"/></svg>