<svg enable-background="new 0 0 512.002 512.002" viewBox="0 0 512.002 512.002" xmlns="http://www.w3.org/2000/svg"><path d="m317.024 306.849c.352-3.383 2.797-6.18 6.109-6.965 3.305-.781 6.758.602 8.594 3.469l49.016 76.629c7.367 11.57 11.258 24.937 11.258 38.656v85.363c0 3.383-2.125 6.398-5.312 7.535-.875.312-1.789.465-2.688.465-2.352 0-4.641-1.039-6.195-2.934l-70.32-85.949c-1.344-1.648-1.977-3.766-1.766-5.883z" fill="#ff4f19"/><path d="m194.977 306.849c-.352-3.383-2.797-6.18-6.109-6.965-3.305-.781-6.758.602-8.594 3.469l-49.016 76.629c-7.367 11.57-11.258 24.937-11.258 38.656v85.363c0 3.383 2.125 6.398 5.312 7.535.875.312 1.789.465 2.688.465 2.352 0 4.641-1.039 6.195-2.934l70.32-85.949c1.344-1.648 1.977-3.766 1.766-5.883z" fill="#e9001e"/><path d="m260.118 1.143c-2.531-1.523-5.703-1.523-8.234 0-3.422 2.055-83.883 51.562-83.883 158.859 0 43.324 10.766 158.594 25.047 268.125 2.07 15.891 15.703 27.875 31.695 27.875h62.516c15.992 0 29.625-11.984 31.695-27.875 14.281-109.531 25.047-224.801 25.047-268.125 0-107.297-80.461-156.805-83.883-158.859z" fill="#ffd200"/><path d="m256.001 456.002h-31.258c-15.992 0-29.625-11.984-31.695-27.875-14.281-109.531-25.047-224.801-25.047-268.125 0-107.297 80.461-156.805 83.883-158.859 1.261-.759 2.682-1.138 4.103-1.141h.015v456z" fill="#ff9600"/><circle cx="256.001" cy="168.002" fill="#53dcff" r="48"/><path d="m256.001 512.002c-4.422 0-8-3.582-8-8v-192c0-4.418 3.578-8 8-8s8 3.582 8 8v192c0 4.418-3.578 8-8 8z" fill="#ff4f19"/><path d="m251.884 1.143c-2.288 1.374-38.98 23.989-63.071 70.859h134.376c-24.091-46.87-60.783-69.486-63.071-70.859-2.531-1.524-5.703-1.524-8.234 0z" fill="#ff4f19"/><path d="m256.001 0c-1.426 0-2.852.381-4.117 1.143-2.288 1.374-38.98 23.989-63.071 70.859h67.188z" fill="#e9001e"/><path d="m304.001 168.002c0-26.51-21.49-48-48-48v96c26.51 0 48-21.49 48-48z" fill="#b3f4ff"/><path d="m256.001 224.002c-30.875 0-56-25.121-56-56s25.125-56 56-56 56 25.121 56 56-25.125 56-56 56zm0-96c-22.055 0-40 17.945-40 40s17.945 40 40 40 40-17.945 40-40-17.945-40-40-40z" fill="#5c546a"/></svg>