<svg enable-background="new 0 0 512 512" viewBox="0 0 512 512" xmlns="http://www.w3.org/2000/svg"><path d="m336.242 241.292v-115.086c0-44.239-35.992-80.243-80.231-80.243-44.252 0-80.243 36.004-80.243 80.243v115.086h-45.963v-115.086c.001-69.582 56.611-126.206 126.206-126.206 69.582 0 126.193 56.624 126.193 126.206v115.086z" fill="#cfdce5"/><path d="m91.789 240.068h328.421v271.932h-328.421z" fill="#ff6f52"/><path d="m296.369 453.532-23.863-70.115c16.148-6.532 27.545-22.35 27.545-40.838 0-24.326-19.72-44.046-44.045-44.046s-44.045 19.72-44.045 44.046c0 18.488 11.397 34.306 27.545 40.838l-23.862 70.115z" fill="#314a5f"/></svg>