<svg enable-background="new 0 0 490 490" height="512" viewBox="0 0 490 490" width="512" xmlns="http://www.w3.org/2000/svg"><path d="m216.333 158.418v-120.538h57.34v120.538" fill="#ff8431"/><path d="m0 120.658h245v358.281h-245z" fill="#ff4851"/><path d="m122.5 11.061-122.5 109.597h245z" fill="#ffe67f"/><path d="m245 120.658h245v358.281h-245z" fill="#77beed"/><path d="m367.5 11.061-122.5 109.597h245z" fill="#ff4851"/><path d="m44.617 168.192h59.946v104.253h-59.946z" fill="#bde9ff"/><path d="m140.438 168.192h59.946v104.253h-59.946z" fill="#bde9ff"/><path d="m140.438 312.843h59.946v104.253h-59.946z" fill="#bde9ff"/><path d="m44.617 369.994h59.946v108.944h-59.946z" fill="#77beed"/><path d="m44.617 312.843h59.946v28.67h-59.946z" fill="#bde9ff"/><circle cx="122.5" cy="77.071" fill="#31333f" r="24.009"/><path d="m385.438 168.192h59.946v104.253h-59.946z" fill="#bde9ff"/><path d="m289.617 168.192h59.946v104.253h-59.946z" fill="#bde9ff"/><path d="m289.617 312.843h59.946v104.253h-59.946z" fill="#bde9ff"/><path d="m385.438 369.994h59.946v108.944h-59.946z" fill="#ffe67f"/><path d="m385.438 312.843h59.946v28.67h-59.946z" fill="#bde9ff"/><g fill="#db2a3b"><path d="m104.562 160.692h-59.945c-4.142 0-7.5 3.358-7.5 7.5v104.253c0 4.142 3.358 7.5 7.5 7.5h59.945c4.142 0 7.5-3.358 7.5-7.5v-104.253c0-4.142-3.358-7.5-7.5-7.5zm-7.5 15v13.669h-44.945v-13.669zm-44.945 89.253v-60.583h44.945v60.583z"/><path d="m200.383 160.692h-59.945c-4.142 0-7.5 3.358-7.5 7.5v104.253c0 4.142 3.358 7.5 7.5 7.5h59.945c4.142 0 7.5-3.358 7.5-7.5v-104.253c0-4.142-3.358-7.5-7.5-7.5zm-7.5 15v13.669h-44.945v-13.669zm-44.945 89.253v-60.583h44.945v60.583z"/><path d="m200.383 305.344h-59.945c-4.142 0-7.5 3.358-7.5 7.5v104.253c0 4.142 3.358 7.5 7.5 7.5h59.945c4.142 0 7.5-3.358 7.5-7.5v-104.253c0-4.142-3.358-7.5-7.5-7.5zm-7.5 15v13.669h-44.945v-13.669zm-44.945 89.253v-60.583h44.945v60.583z"/><path d="m104.562 362.495h-59.945c-4.142 0-7.5 3.358-7.5 7.5v108.944h15v-101.444h44.945v101.444h15v-108.944c0-4.143-3.358-7.5-7.5-7.5z"/><path d="m104.562 305.344h-59.945c-4.142 0-7.5 3.358-7.5 7.5v28.669c0 4.142 3.358 7.5 7.5 7.5h59.945c4.142 0 7.5-3.358 7.5-7.5v-28.669c0-4.142-3.358-7.5-7.5-7.5zm-7.5 28.669h-44.945v-13.669h44.945z"/></g><path d="m90.493 418.229c-2.782-1.834-6.531-1.612-9.062.559-2.298 1.971-3.169 5.257-2.188 8.115.986 2.87 3.682 4.903 6.717 5.057 3.129.159 6.096-1.737 7.288-4.624 1.341-3.247.197-7.163-2.755-9.107z" fill="#ffe67f"/><path d="m445.383 160.692h-59.945c-4.142 0-7.5 3.358-7.5 7.5v104.253c0 4.142 3.358 7.5 7.5 7.5h59.945c4.142 0 7.5-3.358 7.5-7.5v-104.253c0-4.142-3.358-7.5-7.5-7.5zm-7.5 15v13.669h-44.945v-13.669zm-44.945 89.253v-60.583h44.945v60.583z" fill="#54a4d1"/><path d="m349.562 160.692h-59.945c-4.142 0-7.5 3.358-7.5 7.5v104.253c0 4.142 3.358 7.5 7.5 7.5h59.945c4.142 0 7.5-3.358 7.5-7.5v-104.253c0-4.142-3.358-7.5-7.5-7.5zm-7.5 15v13.669h-44.945v-13.669zm-44.945 89.253v-60.583h44.945v60.583z" fill="#54a4d1"/><path d="m349.562 305.344h-59.945c-4.142 0-7.5 3.358-7.5 7.5v104.253c0 4.142 3.358 7.5 7.5 7.5h59.945c4.142 0 7.5-3.358 7.5-7.5v-104.253c0-4.142-3.358-7.5-7.5-7.5zm-7.5 15v13.669h-44.945v-13.669zm-44.945 89.253v-60.583h44.945v60.583z" fill="#54a4d1"/><path d="m445.383 362.495h-59.945c-4.142 0-7.5 3.358-7.5 7.5v108.944h15v-101.444h44.945v101.444h15v-108.944c0-4.143-3.358-7.5-7.5-7.5z" fill="#54a4d1"/><path d="m445.383 305.344h-59.945c-4.142 0-7.5 3.358-7.5 7.5v28.669c0 4.142 3.358 7.5 7.5 7.5h59.945c4.142 0 7.5-3.358 7.5-7.5v-28.669c0-4.142-3.358-7.5-7.5-7.5zm-7.5 28.669h-44.945v-13.669h44.945z" fill="#54a4d1"/><path d="m410.593 421.599c-2.432-6.076-11.388-6.014-13.85 0-1.233 3.012-.357 6.6 2.171 8.664 2.426 1.98 5.904 2.245 8.594.647 3.145-1.869 4.513-5.929 3.085-9.311z" fill="#ff4851"/><circle cx="367.5" cy="77.071" fill="#31333f" r="24.009"/></svg>