<svg height="511pt" viewBox="-38 0 511 511.99956" width="511pt" xmlns="http://www.w3.org/2000/svg"><path d="m413.476562 341.910156c-13.761718 37.296875-34.574218 69.726563-61.867187 96.378906-31.066406 30.335938-71.746094 54.441407-120.910156 71.636719-1.613281.5625-3.296875 1.023438-4.988281 1.363281-2.234376.441407-4.507813.679688-6.761719.710938h-.441407c-2.402343 0-4.816406-.242188-7.210937-.710938-1.691406-.339843-3.351563-.800781-4.957031-1.351562-49.222656-17.167969-89.953125-41.261719-121.050782-71.597656-27.304687-26.652344-48.113281-59.0625-61.855468-96.359375-24.988282-67.8125-23.566406-142.515625-22.421875-202.546875l.019531-.921875c.230469-4.957031.378906-10.164063.460938-15.914063.417968-28.230468 22.863281-51.585937 51.097656-53.160156 58.867187-3.285156 104.40625-22.484375 143.316406-60.410156l.339844-.3125c6.460937-5.925782 14.601562-8.832032 22.703125-8.71093775 7.8125.10156275 15.59375 3.00390575 21.824219 8.71093775l.332031.3125c38.917969 37.925781 84.457031 57.125 143.324219 60.410156 28.234374 1.574219 50.679687 24.929688 51.097656 53.160156.082031 5.789063.230468 10.988282.460937 15.914063l.011719.390625c1.140625 60.144531 2.554688 134.996094-22.523438 203.007812zm0 0" fill="#00dd80"/><path d="m413.476562 341.910156c-13.761718 37.296875-34.574218 69.726563-61.867187 96.378906-31.066406 30.335938-71.746094 54.441407-120.910156 71.636719-1.613281.5625-3.296875 1.023438-4.988281 1.363281-2.234376.441407-4.507813.679688-6.761719.710938v-511.99609375c7.8125.10156275 15.59375 3.00390575 21.824219 8.71093775l.332031.3125c38.917969 37.925781 84.457031 57.125 143.324219 60.410156 28.234374 1.574219 50.679687 24.929688 51.097656 53.160156.082031 5.789063.230468 10.988282.460937 15.914063l.011719.390625c1.140625 60.144531 2.554688 134.996094-22.523438 203.007812zm0 0" fill="#00aa63"/><path d="m346.101562 256c0 70.207031-57.003906 127.355469-127.152343 127.605469h-.449219c-70.355469 0-127.605469-57.246094-127.605469-127.605469 0-70.355469 57.25-127.601562 127.605469-127.601562h.449219c70.148437.25 127.152343 57.398437 127.152343 127.601562zm0 0" fill="#fff"/><path d="m346.101562 256c0 70.207031-57.003906 127.355469-127.152343 127.605469v-255.207031c70.148437.25 127.152343 57.398437 127.152343 127.601562zm0 0" fill="#e1ebf0"/><path d="m276.417969 237.625-57.46875 57.476562-12.417969 12.417969c-2.933594 2.933594-6.78125 4.398438-10.625 4.398438-3.847656 0-7.691406-1.464844-10.628906-4.398438l-26.699219-26.710937c-5.867187-5.867188-5.867187-15.371094 0-21.242188 5.859375-5.867187 15.375-5.867187 21.242187 0l16.085938 16.085938 59.269531-59.269532c5.867188-5.871093 15.382813-5.871093 21.242188 0 5.867187 5.867188 5.867187 15.382813 0 21.242188zm0 0" fill="#b4d2d7"/><path d="m276.417969 237.625-57.46875 57.476562v-42.496093l36.226562-36.222657c5.867188-5.871093 15.382813-5.871093 21.242188 0 5.867187 5.867188 5.867187 15.382813 0 21.242188zm0 0" fill="#6fa5aa"/></svg>