<svg height="512pt" viewBox="0 0 511 512" width="512pt" xmlns="http://www.w3.org/2000/svg"><path d="m38.066406 236.425781h343.269532v262.335938h-343.269532zm0 0" fill="#a2abb8"/><path d="m413.222656 256.398438h-407.046875c-2.050781 0-3.273437-2.289063-2.132812-3.996094 48.25-72.527344 9.433593-14.179688 65.859375-99.007813.476562-.714843 1.285156-1.148437 2.144531-1.148437h274.710937c.859376 0 1.660157.421875 2.136719 1.136718 42.773438 63.734376 35.589844 53.035157 66.460938 99.019532 1.152343 1.695312-.070313 3.996094-2.132813 3.996094zm0 0" fill="#ffc14f"/><g fill="#ffa90b"><path d="m316.214844 186.15625c0 4.285156-3.480469 7.765625-7.769532 7.765625h-265.5l10.335938-15.535156h255.164062c4.289063 0 7.769532 3.480469 7.769532 7.769531zm0 0"/><path d="m376.101562 193.921875h-36.582031c-4.296875 0-7.769531-3.480469-7.769531-7.765625 0-4.289062 3.472656-7.769531 7.769531-7.769531h26.152344zm0 0"/><path d="m400.078125 229.644531h-380.894531l10.328125-15.535156h360.136719zm0 0"/></g><path d="m319.964844 253.832031v244.929688h-220.53125v-244.929688l110.265625-101.585937 16.800781 15.472656zm0 0" fill="#c8d2dc"/><path d="m319.964844 253.832031v244.929688h-185.160156v-228.609375c0-5.5 2.152343-10.78125 5.996093-14.71875l85.699219-87.714844zm0 0" fill="#dce6eb"/><path d="m253.597656 497.671875h-87.792968v-161.953125c0-3.316406 2.6875-6.003906 6.003906-6.003906h75.785156c3.316406 0 6.003906 2.6875 6.003906 6.003906zm0 0" fill="#ae583e"/><path d="m414.304688 512h-409.207032c-2.539062 0-4.597656-2.058594-4.597656-4.597656v-14.40625c0-2.539063 2.058594-4.597656 4.597656-4.597656h409.207032c2.542968 0 4.597656 2.058593 4.597656 4.597656v14.40625c0 2.539062-2.054688 4.597656-4.597656 4.597656zm0 0" fill="#127d4f"/><path d="m192.09375 390.609375c-4.289062 0-7.769531 3.476563-7.769531 7.765625v18.5625c0 4.289062 3.480469 7.769531 7.769531 7.769531 4.292969 0 7.769531-3.480469 7.769531-7.769531v-18.5625c0-4.289062-3.476562-7.765625-7.769531-7.765625zm0 0" fill="#7c3f2c"/><path d="m144.808594 488.394531h-125.4375c-1.253906-2.859375-1.949219-6.015625-1.949219-9.339843 0-11.851563 8.792969-21.636719 20.207031-23.203126 1.285156-.175781 2.351563-1.078124 2.714844-2.320312 4.058594-14.023438 16.996094-24.277344 32.335938-24.277344 5.117187 0 9.972656 1.148438 14.324218 3.199219 3.542969 1.667969 6.742188 3.9375 9.476563 6.671875 4.777343 4.773438 8.121093 10.96875 9.34375 17.90625.414062 2.320312 3.003906 3.472656 5.003906 2.207031 4.046875-2.566406 8.957031-3.925781 14.1875-3.550781 11.414063.808594 20.726563 10.003906 21.648437 21.40625.332032 4.042969-.363281 7.882812-1.855468 11.300781zm0 0" fill="#1ab975"/><path d="m400.039062 488.394531h-125.441406c-1.253906-2.859375-1.945312-6.015625-1.945312-9.339843 0-11.851563 8.792968-21.636719 20.21875-23.203126 1.28125-.175781 2.339844-1.078124 2.703125-2.320312 4.070312-14.023438 16.996093-24.277344 32.335937-24.277344 5.113282 0 9.972656 1.148438 14.324219 3.199219 3.539063 1.667969 6.742187 3.9375 9.476563 6.671875 4.773437 4.773438 8.128906 10.96875 9.351562 17.90625.414062 2.320312 2.992188 3.472656 4.992188 2.207031 4.058593-2.566406 8.960937-3.925781 14.199218-3.550781 11.40625.808594 20.714844 10.003906 21.648438 21.40625.332031 4.042969-.375 7.882812-1.863282 11.300781zm0 0" fill="#1ab975"/><path d="m144.808594 488.394531h-96.789063c-1.253906-2.859375-1.949219-6.015625-1.949219-9.339843 0-11.851563 8.796876-21.636719 20.207032-23.203126 1.285156-.175781 2.351562-1.078124 2.714844-2.320312 2.703124-9.339844 9.34375-17.007812 18.011718-21.078125 3.542969 1.667969 6.742188 3.9375 9.476563 6.671875 4.777343 4.773438 8.121093 10.96875 9.34375 17.90625.414062 2.320312 3.003906 3.472656 5.003906 2.207031 4.046875-2.566406 8.957031-3.925781 14.1875-3.550781 11.414063.808594 20.726563 10.003906 21.648437 21.40625.332032 4.042969-.363281 7.882812-1.855468 11.300781zm0 0" fill="#1ed688"/><path d="m400.039062 488.394531h-96.792968c-1.253906-2.859375-1.945313-6.015625-1.945313-9.339843 0-11.851563 8.792969-21.636719 20.21875-23.203126 1.28125-.175781 2.339844-1.078124 2.703125-2.320312 2.710938-9.339844 9.351563-17.007812 18.011719-21.078125 3.539063 1.667969 6.742187 3.9375 9.476563 6.671875 4.773437 4.773438 8.128906 10.96875 9.351562 17.90625.414062 2.320312 2.992188 3.472656 4.992188 2.207031 4.058593-2.566406 8.960937-3.925781 14.199218-3.550781 11.40625.808594 20.714844 10.003906 21.648438 21.40625.332031 4.042969-.375 7.882812-1.863282 11.300781zm0 0" fill="#1ed688"/><path d="m319.96875 317.019531h-21.523438c-2.859374 0-5.175781-2.316406-5.175781-5.175781v-15.164062c0-2.859376 2.316407-5.179688 5.175781-5.179688h21.523438zm0 0" fill="#5f6c75"/><path d="m319.96875 342.542969h-39.199219c-2.859375 0-5.175781-2.320313-5.175781-5.179688v-15.164062c0-2.859375 2.316406-5.179688 5.175781-5.179688h39.199219zm0 0" fill="#7e8b96"/><path d="m99.433594 398.375h26.703125v20.34375c0 2.859375-2.320313 5.179688-5.179688 5.179688h-21.523437zm0 0" fill="#7e8b96"/><path d="m99.433594 372.855469h39.199218c2.859376 0 5.179688 2.320312 5.179688 5.179687v20.339844h-44.378906zm0 0" fill="#5f6c75"/><path d="m335.183594 252.359375-116.453125-116.453125c-4.953125-4.953125-13.082031-4.972656-18.058594 0l-116.453125 116.453125c-4.949219 4.949219-4.949219 12.976563 0 17.929687l4.765625 4.765626c4.953125 4.949218 12.980469 4.949218 17.929687 0l102.785157-102.785157 102.785156 102.785157c4.953125 4.949218 12.980469 4.949218 17.933594 0l4.761719-4.765626c4.953124-4.949218 4.953124-12.980468.003906-17.929687zm0 0" fill="#f29500"/><path d="m511.910156 109.882812-.050781 21.59375c-.011719 3.378907-2.753906 6.113282-6.132813 6.101563l-33.277343-.082031c-2.589844-.011719-4.953125 1.605468-5.800781 4.058594-1.78125 5.199218-4.121094 10.128906-6.9375 14.738281-1.460938 2.394531-1.078126 5.480469.898437 7.46875l22.042969 22.15625c2.378906 2.390625 2.371094 6.265625-.023438 8.648437l-8.523437 8.480469-6.785157 6.753906c-2.390624 2.382813-6.265624 2.371094-8.636718-.019531l-23.5-23.617188c-1.824219-1.832031-4.621094-2.351562-6.949219-1.210937-4.847656 2.371094-9.984375 4.234375-15.351563 5.53125-2.714843.652344-4.621093 3.117187-4.628906 5.914063l-.074218 31.246093c-.007813 3.378907-2.753907 6.101563-6.128907 6.09375l-21.597656-.054687c-3.375-.007813-6.109375-2.753906-6.101563-6.121094l.085938-33.277344c.007812-2.601562-1.605469-4.960937-4.0625-5.8125-5.199219-1.78125-10.128906-4.121094-14.738281-6.9375-2.390625-1.460937-5.476563-1.078125-7.46875.902344l-22.152344 22.039062c-2.394531 2.382813-6.265625 2.371094-8.648437-.019531l-15.238282-15.308593c-2.378906-2.394532-2.371094-6.257813.023438-8.640626l23.613281-23.5c1.835937-1.820312 2.351563-4.617187 1.210937-6.9375-2.371093-4.859374-4.234374-9.996093-5.527343-15.359374-.652344-2.714844-3.121094-4.621094-5.914063-4.632813l-31.25-.070313c-3.375-.011718-6.101562-2.757812-6.089844-6.132812l.050782-21.59375c.011718-3.378906 2.753906-6.113281 6.121094-6.101562l33.277343.082031c2.601563.011719 4.964844-1.605469 5.8125-4.058594 1.78125-5.191406 4.121094-10.128906 6.9375-14.738281 1.460938-2.394532 1.078125-5.480469-.898437-7.46875l-22.042969-22.15625c-2.378906-2.390625-2.371094-6.265625.023437-8.648438l15.308594-15.234375c2.390625-2.382812 6.253906-2.371093 8.636719.019531l23.5 23.617188c1.824219 1.832031 4.621094 2.351562 6.941406 1.210938 4.855469-2.363282 9.992188-4.238282 15.359375-5.53125 2.714844-.652344 4.617188-3.117188 4.628906-5.914063l.074219-31.257813c.007813-3.367187 2.742188-6.101562 6.109375-6.101562h21.605469c3.378906 0 6.121094 2.746094 6.113281 6.132812l-.085937 33.351563c-.007813 2.585937 1.605469 4.949219 4.0625 5.796875 5.1875 1.78125 10.128906 4.125 14.738281 6.941406 2.390625 1.460938 5.476562 1.078125 7.46875-.902344l22.152344-22.039062c2.394531-2.382812 6.265625-2.371094 8.648437.019531l15.234375 15.308594c2.382813 2.394531 2.375 6.265625-.019531 8.636719l-23.613281 23.503906c-1.835938 1.820312-2.351563 4.617188-1.210938 6.949219 2.359375 4.847656 4.234375 9.984375 5.527344 15.347656.652344 2.726563 3.121094 4.621094 5.914062 4.632813l31.25.070312c3.367188.011719 6.101563 2.753906 6.089844 6.132812zm0 0" fill="#60c8dd"/><path d="m511.910156 109.882812-.050781 21.59375c-.011719 3.378907-2.753906 6.113282-6.132813 6.101563l-33.277343-.082031c-2.589844-.011719-4.953125 1.605468-5.800781 4.058594-1.78125 5.199218-4.121094 10.128906-6.9375 14.738281-1.460938 2.394531-1.078126 5.480469.898437 7.46875l22.042969 22.15625c2.378906 2.390625 2.371094 6.265625-.023438 8.648437l-8.523437 8.480469c-52.585938-21.84375-89.558594-73.703125-89.558594-134.191406 0-24.910157 6.273437-48.367188 17.335937-68.855469h7.757813c3.378906 0 6.121094 2.746094 6.113281 6.132812l-.085937 33.351563c-.007813 2.585937 1.605469 4.949219 4.0625 5.796875 5.1875 1.78125 10.128906 4.125 14.738281 6.941406 2.390625 1.460938 5.476562 1.078125 7.46875-.902344l22.152344-22.039062c2.394531-2.382812 6.265625-2.371094 8.648437.019531l15.234375 15.308594c2.382813 2.394531 2.375 6.265625-.019531 8.636719l-23.613281 23.503906c-1.835938 1.820312-2.351563 4.617188-1.210938 6.949219 2.359375 4.847656 4.234375 9.984375 5.527344 15.347656.652344 2.726563 3.121094 4.621094 5.914062 4.632813l31.25.070312c3.367188.011719 6.101563 2.753906 6.089844 6.132812zm0 0" fill="#7cd2e3"/><path d="m447.707031 116.878906c0 29.082032-23.574219 52.65625-52.65625 52.65625s-52.65625-23.574218-52.65625-52.65625c0-29.082031 23.574219-52.65625 52.65625-52.65625s52.65625 23.574219 52.65625 52.65625zm0 0" fill="#2cb3cd"/><path d="m419.585938 163.460938c-26.707032 14.308593-60.574219 2.648437-72.835938-25.625-13.351562-30.75 5.117188-65.949219 37.847656-72.574219-1.15625 33.175781 10.273438 69.441406 34.988282 98.199219zm0 0" fill="#269ab1"/><path d="m418.476562 116.878906c0 12.9375-10.488281 23.425782-23.425781 23.425782s-23.425781-10.488282-23.425781-23.425782 10.488281-23.425781 23.425781-23.425781 23.425781 10.488281 23.425781 23.425781zm0 0" fill="#60c8dd"/><path d="m402.617188 139.046875c-8.925782 3.058594-19.191407.488281-25.582032-7.195313-10.375-12.496093-5.144531-31.390624 9.851563-36.925781 2.847656 15.734375 8.234375 30.597657 15.730469 44.121094zm0 0" fill="#44bfd7"/></svg>