<svg height="511pt" viewBox="-28 0 511 511.99933" width="511pt" xmlns="http://www.w3.org/2000/svg"><path d="m415.882812 335.089844c21.585938 0 39.082032-17.496094 39.082032-39.082032 0-21.585937-17.5-39.082031-39.082032-39.082031 21.585938 0 39.082032-17.496093 39.082032-39.082031 0-21.582031-17.5-39.082031-39.082032-39.082031v-46.742188c21.585938 0 39.082032-17.5 39.082032-39.082031 0-21.585938-17.5-39.082031-39.082032-39.082031h-121.523437v287.585937" fill="#f9c19b"/><g fill="#e5a67c"><path d="m454.964844 92.9375c0 21.582031-17.496094 39.082031-39.082032 39.082031v-19.449219c18.222657 0 33.535157-12.472656 37.855469-29.359374.796875 3.109374 1.226563 6.363281 1.226563 9.726562zm0 0"/><path d="m454.964844 217.84375c0 21.585938-17.496094 39.082031-39.082032 39.082031v-19.449219c18.222657 0 33.535157-12.472656 37.855469-29.355468.796875 3.105468 1.226563 6.363281 1.226563 9.722656zm0 0"/><path d="m454.964844 296.011719c0 21.582031-17.496094 39.078125-39.082032 39.078125v-19.449219c18.222657 0 33.535157-12.46875 37.855469-29.355469.796875 3.109375 1.226563 6.363282 1.226563 9.726563zm0 0"/></g><path d="m189.230469 262.980469c21.90625-43.515625-63.460938-44.335938-78.738281-90.589844-7.3125-22.195313-31.21875-34.230469-53.414063-26.90625-22.183594 7.320313-34.21875 31.238281-26.894531 53.410156 8.175781 24.808594 6.210937 51.3125-5.546875 74.652344 0 0-42.460938 73.460937-14.746094 135.289063 25.777344 57.515624 87.6875 98.339843 153.296875 102.832031 37.714844 2.574219 74.925781-9.875 103.960938-34.082031l4.59375-3.832032" fill="#f9c19b"/><path d="m119.5 239.546875c0 36.828125-54.410156 117.535156 0 171.945313 54.410156 54.410156 138.847656-113.175782 138.847656-113.175782" fill="#e5a67c"/><path d="m186.746094 511.332031c-7.785156.75-15.660156.878907-23.558594.335938-65.609375-4.492188-127.519531-45.316407-153.296875-102.832031-27.714844-61.828126 14.75-135.289063 14.75-135.289063 11.753906-23.339844 13.71875-49.84375 5.542969-74.652344-7.324219-22.171875 4.710937-46.089843 26.894531-53.410156 9.179687-3.027344 18.652344-2.75 27.128906.207031-21.804687 7.542969-33.5625 31.226563-26.308593 53.203125 8.175781 24.808594 6.214843 51.3125-5.542969 74.652344 0 0-42.464844 73.460937-14.746094 135.289063 25.230469 56.300781 85.078125 96.605468 149.136719 102.496093zm0 0" fill="#e5a67c"/><path d="m386.175781 0h-235.121093c-16.984376 0-30.753907 13.769531-30.753907 30.753906v412.242188c0 16.984375 13.769531 30.753906 30.753907 30.753906h235.121093c16.984375 0 30.753907-13.769531 30.753907-30.753906v-412.242188c0-16.984375-13.769532-30.753906-30.753907-30.753906zm0 0" fill="#565574"/><path d="m390.875 93.5625v290.664062c0 12.664063-10.273438 22.9375-22.949219 22.9375h-198.625c-6.929687 0-13.152343-3.078124-17.347656-7.941406-3.484375-4.011718-5.597656-9.261718-5.597656-14.996094v-290.664062c0-12.675781 10.28125-22.949219 22.945312-22.949219h198.625c3.953125 0 7.671875 1.003907 10.910157 2.769531 7.175781 3.871094 12.039062 11.453126 12.039062 20.179688zm0 0" fill="#8fd4ef"/><g fill="#302e4f"><path d="m281.976562 441.90625c0 7.382812-5.984374 13.363281-13.363281 13.363281-7.378906 0-13.359375-5.980469-13.359375-13.363281 0-7.378906 5.980469-13.359375 13.359375-13.359375 7.378907 0 13.363281 5.980469 13.363281 13.359375zm0 0"/><path d="m303.355469 39.71875h-69.480469c-4.335938 0-7.847656-3.515625-7.847656-7.851562 0-4.332032 3.511718-7.847657 7.847656-7.847657h69.480469c4.335937 0 7.847656 3.515625 7.847656 7.847657 0 4.335937-3.515625 7.851562-7.847656 7.851562zm0 0"/><path d="m208.480469 39.71875c-3.136719 0-6.039063-1.957031-7.238281-4.84375-1.3125-3.148438-.375-6.914062 2.265624-9.070312 2.480469-2.023438 6.011719-2.339844 8.8125-.78125 2.992188 1.664062 4.570313 5.226562 3.820313 8.5625-.792969 3.539062-4.027344 6.132812-7.660156 6.132812zm0 0"/></g><path d="m378.839844 73.378906-232.488282 232.476563v-103.921875l131.316407-131.316406h90.257812c3.957031 0 7.671875.996093 10.914063 2.761718zm0 0" fill="#c5f1ff"/><path d="m390.875 123.058594v64.160156l-219.945312 219.945312h-1.628907c-6.929687 0-13.152343-3.078124-17.351562-7.941406-3.480469-4.011718-5.597657-9.261718-5.597657-14.996094v-16.644531zm0 0" fill="#c5f1ff"/><path d="m367.925781 415.015625h-198.625c-16.980469 0-30.792969-13.8125-30.792969-30.792969v-290.65625c0-16.980468 13.8125-30.796875 30.792969-30.796875h198.625c16.980469 0 30.796875 13.816407 30.796875 30.796875v290.65625c0 16.980469-13.816406 30.792969-30.796875 30.792969zm-198.625-336.550781c-8.324219 0-15.097656 6.773437-15.097656 15.101562v290.65625c0 8.324219 6.773437 15.097656 15.097656 15.097656h198.625c8.328125 0 15.101563-6.773437 15.101563-15.097656v-290.65625c0-8.328125-6.773438-15.101562-15.101563-15.101562zm0 0" fill="#302e4f"/></svg>