<svg height="464pt" viewBox="0 0 464 464" width="464pt" xmlns="http://www.w3.org/2000/svg"><path d="m32 0h240c17.671875 0 32 14.328125 32 32v400c0 17.671875-14.328125 32-32 32h-240c-17.671875 0-32-14.328125-32-32v-400c0-17.671875 14.328125-32 32-32zm0 0" fill="#faeed8"/><path d="m304 192h-80c-8.835938 0-16 7.164062-16 16v128c0 8.835938 7.164062 16 16 16h80zm0 0" fill="#e8d4b8"/><path d="m144 328c-53.019531 0-96-42.980469-96-96v-232h-16c-17.671875 0-32 14.328125-32 32v400c0 17.671875 14.328125 32 32 32h240c17.671875 0 32-14.328125 32-32v-104zm0 0" fill="#e8d4b8"/><path d="m0 368h304v64c0 17.671875-14.328125 32-32 32h-240c-17.671875 0-32-14.328125-32-32zm0 0" fill="#f9c170"/><path d="m80 424c-17.671875 0-32-14.328125-32-32v-24h-48v64c0 17.671875 14.328125 32 32 32h240c17.671875 0 32-14.328125 32-32v-8zm0 0" fill="#faa108"/><path d="m120 400h64c8.835938 0 16 7.164062 16 16s-7.164062 16-16 16h-64c-8.835938 0-16-7.164062-16-16s7.164062-16 16-16zm0 0" fill="#fd412d"/><path d="m80 56h48v48h-48zm0 0" fill="#faa108"/><path d="m184 400h-64c-5.683594.035156-10.917969 3.078125-13.761719 8 2.84375 4.921875 8.078125 7.964844 13.761719 8h64c5.683594-.035156 10.917969-3.078125 13.761719-8-2.84375-4.921875-8.078125-7.964844-13.761719-8zm0 0" fill="#fc756b"/><path d="m240 176h208c8.835938 0 16 7.164062 16 16v128c0 8.835938-7.164062 16-16 16h-208c-8.835938 0-16-7.164062-16-16v-128c0-8.835938 7.164062-16 16-16zm0 0" fill="#70dda8"/><path d="m456 178c-2.445312-1.355469-5.203125-2.042969-8-2h-11.761719l-65.359375 60.320312-26.878906 24.800782-26.878906-24.800782-65.359375-60.320312h-11.761719c-2.796875-.042969-5.554688.644531-8 2 .363281 1.472656 1.109375 2.824219 2.160156 3.921875l66.398438 61.277344-67.277344 88c-.667969.835937-1.109375 1.828125-1.28125 2.878906 2.429688 1.40625 5.195312 2.125 8 2.082031h10.078125l62.640625-82.082031 25.839844 24c3.070312 2.847656 7.8125 2.847656 10.882812 0l25.839844-24 62.640625 81.921875h10.078125c2.789062.089844 5.554688-.570312 8-1.921875-.222656-1.003906-.6875-1.9375-1.359375-2.71875l-67.28125-88 66.082031-61.28125c1.222656-1.089844 2.109375-2.503906 2.558594-4.078125zm0 0" fill="#40bf7c"/><path d="m344 304c-53.019531 0-96-42.980469-96-96v-32h-8c-8.835938 0-16 7.164062-16 16v128c0 8.835938 7.164062 16 16 16h208c8.835938 0 16-7.164062 16-16v-16zm0 0" fill="#40bf7c"/><path d="m454.320312 331.199219-20.71875-27.199219h-20.160156l24.480469 32h10.078125c1.320312.003906 2.636719-.160156 3.921875-.480469 1.429687-.238281 2.8125-.726562 4.078125-1.441406-.289062-1.09375-.871094-2.089844-1.679688-2.878906zm0 0" fill="#2b8955"/><path d="m234.558594 182.078125 13.441406 12.242187v-18.320312h-8c-1.300781.015625-2.589844.207031-3.839844.558594h-.398437c-1.160157.355468-2.28125.8125-3.363281 1.363281.324218 1.558594 1.070312 2.996094 2.160156 4.15625zm0 0" fill="#2b8955"/><path d="m276 275.761719-42.320312 55.4375c-.808594.789062-1.390626 1.785156-1.679688 2.878906 1.042969.644531 2.175781 1.128906 3.359375 1.441406 1.28125.320313 2.597656.484375 3.921875.480469h10.078125l38.640625-49.921875c-4.285156-3.09375-8.296875-6.546875-12-10.316406zm0 0" fill="#2b8955"/><path d="m360 0h-160c-8.835938 0-16 7.164062-16 16v48l-32 88 60-24h148c8.835938 0 16-7.164062 16-16v-96c0-8.835938-7.164062-16-16-16zm0 0" fill="#fc756b"/><path d="m288 96c-39.765625 0-72-32.234375-72-72v-24h-16c-8.835938 0-16 7.164062-16 16v48l-32 88 60-24h148c8.835938 0 16-7.164062 16-16v-16zm0 0" fill="#fd412d"/><g fill="#faa108"><path d="m80 160h24c4.417969 0 8-3.582031 8-8s-3.582031-8-8-8h-24c-4.417969 0-8 3.582031-8 8s3.582031 8 8 8zm0 0"/><path d="m80 200h48c4.417969 0 8-3.582031 8-8s-3.582031-8-8-8h-48c-4.417969 0-8 3.582031-8 8s3.582031 8 8 8zm0 0"/><path d="m192 304h-32c-4.417969 0-8 3.582031-8 8s3.582031 8 8 8h32c4.417969 0 8-3.582031 8-8s-3.582031-8-8-8zm0 0"/><path d="m192 264h-80c-4.417969 0-8 3.582031-8 8s3.582031 8 8 8h80c4.417969 0 8-3.582031 8-8s-3.582031-8-8-8zm0 0"/><path d="m192 216h-32c-4.417969 0-8 3.582031-8 8s3.582031 8 8 8h32c4.417969 0 8-3.582031 8-8s-3.582031-8-8-8zm0 0"/><path d="m192 184h-24c-4.417969 0-8 3.582031-8 8s3.582031 8 8 8h24c4.417969 0 8-3.582031 8-8s-3.582031-8-8-8zm0 0"/><path d="m120 224c0-4.417969-3.582031-8-8-8h-32c-4.417969 0-8 3.582031-8 8s3.582031 8 8 8h32c4.417969 0 8-3.582031 8-8zm0 0"/></g><g fill="#40bf7c"><path d="m256 40h72c4.417969 0 8-3.582031 8-8s-3.582031-8-8-8h-72c-4.417969 0-8 3.582031-8 8s3.582031 8 8 8zm0 0"/><path d="m224 72h104c4.417969 0 8-3.582031 8-8s-3.582031-8-8-8h-104c-4.417969 0-8 3.582031-8 8s3.582031 8 8 8zm0 0"/><path d="m288 96c0-4.417969-3.582031-8-8-8h-56c-4.417969 0-8 3.582031-8 8s3.582031 8 8 8h56c4.417969 0 8-3.582031 8-8zm0 0"/><path d="m328 88h-16c-4.417969 0-8 3.582031-8 8s3.582031 8 8 8h16c4.417969 0 8-3.582031 8-8s-3.582031-8-8-8zm0 0"/></g></svg>