<svg enable-background="new 0 0 512 512" viewBox="0 0 512 512" xmlns="http://www.w3.org/2000/svg"><circle cx="256" cy="256" fill="#5dc1d8" r="245"/><path d="m182.179 304.071c-4.411 0-8-3.589-8-8v-46.684h-119.526c-5.5 0-10 4.5-10 10v120.582c5.211 8.864 10.962 17.371 17.21 25.476h67.085c5.5 0 10 4.5 10 10v34.138c0 5.5 3.169 6.805 7.042 2.9l39.607-39.938c3.873-3.905 11.542-7.1 17.042-7.1h101.137c5.5 0 10-4.5 10-10v-91.374z" fill="#fe3745"/><path d="m70.168 259.387c0-5.5 4.5-10 10-10h-25.515c-5.5 0-10 4.5-10 10v120.582c5.211 8.864 10.962 17.371 17.21 25.476h8.305z" fill="#b7092b"/><path d="m174.179 296.071v-10.818h-85.433c-4.143 0-7.5 3.358-7.5 7.5s3.357 7.5 7.5 7.5h86.625c-.751-1.219-1.192-2.648-1.192-4.182z" fill="#ffd782"/><path d="m267.221 334.771h-178.475c-4.143 0-7.5-3.358-7.5-7.5s3.357-7.5 7.5-7.5h178.475c4.143 0 7.5 3.358 7.5 7.5s-3.358 7.5-7.5 7.5z" fill="#ffd782"/><path d="m267.221 369.289h-178.475c-4.143 0-7.5-3.358-7.5-7.5s3.357-7.5 7.5-7.5h178.475c4.143 0 7.5 3.358 7.5 7.5s-3.358 7.5-7.5 7.5z" fill="#ffd782"/><path d="m512 119.018c0-5.5-4.5-10-10-10h-319.821c-5.5 0-10 4.5-10 10v177.054c0 5.5 4.5 10 10 10h199.755c5.5 0 13.169 3.195 17.042 7.1l52.897 53.338c3.873 3.905 7.042 2.6 7.042-2.9v-47.538c0-5.5 4.5-10 10-10h33.085c5.5 0 10-4.5 10-10z" fill="#ff9518"/><path d="m200.528 296.071v-177.053c0-5.5 4.5-10 10-10h-28.35c-5.5 0-10 4.5-10 10v177.054c0 5.5 4.5 10 10 10h28.35c-5.5-.001-10-4.501-10-10.001z" fill="#ef8318"/><path d="m146.742 44.768c0-5.5-4.5-10-10-10h-126.742c-5.5 0-10 4.5-10 10v126.741c0 5.5 4.5 10 10 10h24.657c5.5 0 12.264 3.889 15.031 8.642l18.651 32.038c2.768 4.753 7.295 4.753 10.063 0l18.651-32.038c2.768-4.753 9.531-8.642 15.031-8.642h24.657c5.5 0 10-4.5 10-10v-126.741z" fill="#ffd00d"/><path d="m17.01 171.509v-126.741c0-5.5 4.5-10 10-10h-17.01c-5.5 0-10 4.5-10 10v126.741c0 5.5 4.5 10 10 10h17.01c-5.5 0-10-4.5-10-10z" fill="#ffaf10"/><path d="m73.236 148.011c-1.229 0-2.383-.482-3.254-1.358l-35.744-36.043c-4.311-4.347-6.684-10.133-6.684-16.291 0-6.156 2.373-11.943 6.684-16.288 4.314-4.354 10.053-6.749 16.156-6.749 6.102 0 11.838 2.396 16.156 6.749l6.816 6.872 6.82-6.872c4.313-4.354 10.049-6.749 16.152-6.749 6.108 0 11.842 2.396 16.158 6.749 4.314 4.35 6.689 10.136 6.689 16.288 0 6.155-2.375 11.938-6.691 16.291l-36.021 36.055c-.864.869-2.016 1.346-3.237 1.346z" fill="#fe3745"/><path d="m48.413 104.942c-4.311-4.347-6.684-10.133-6.684-16.291 0-6.156 2.373-11.943 6.684-16.288.364-.367.751-.7 1.135-1.039-5.784.212-11.196 2.557-15.31 6.707-4.311 4.345-6.684 10.132-6.684 16.288 0 6.158 2.373 11.944 6.684 16.291l35.744 36.043c.871.875 2.025 1.358 3.254 1.358 1.221 0 2.373-.477 3.238-1.346l6.683-6.689z" fill="#b7092b"/><g fill="#fff"><path d="m454.588 162.258h-227.728c-4.143 0-7.5-3.358-7.5-7.5s3.357-7.5 7.5-7.5h227.727c4.143 0 7.5 3.358 7.5 7.5s-3.357 7.5-7.499 7.5z"/><path d="m454.588 196.776h-227.728c-4.143 0-7.5-3.358-7.5-7.5s3.357-7.5 7.5-7.5h227.727c4.143 0 7.5 3.358 7.5 7.5s-3.357 7.5-7.499 7.5z"/><path d="m454.588 231.294h-227.728c-4.143 0-7.5-3.358-7.5-7.5s3.357-7.5 7.5-7.5h227.727c4.143 0 7.5 3.358 7.5 7.5.001 4.142-3.357 7.5-7.499 7.5z"/><path d="m454.588 265.811h-106.54c-4.143 0-7.5-3.358-7.5-7.5s3.357-7.5 7.5-7.5h106.54c4.143 0 7.5 3.358 7.5 7.5 0 4.143-3.358 7.5-7.5 7.5z"/></g></svg>