<svg enable-background="new 0 0 512 512" viewBox="0 0 512 512" xmlns="http://www.w3.org/2000/svg"><path d="m414.897 422.695h61.793c19.501 0 35.31-15.809 35.31-35.31v-317.794c0-19.501-15.809-35.31-35.31-35.31h-441.38c-19.501 0-35.31 15.809-35.31 35.31v317.793c0 19.501 15.809 35.31 35.31 35.31h291.31" fill="#4fba6f"/><path d="m414.897 343.247v125.652c-.003 3.178-1.713 6.11-4.479 7.675-2.766 1.566-6.16 1.524-8.886-.11l-26.236-15.731c-2.793-1.674-6.281-1.674-9.075 0l-26.236 15.731c-2.726 1.634-6.12 1.676-8.886.11s-4.477-4.497-4.479-7.675v-125.652z" fill="#c03a2b"/><path d="m74.284 83.592c3.316 3.306 5.175 7.799 5.164 12.482 0 4.875 3.952 8.828 8.828 8.828 4.875 0 8.828-3.952 8.828-8.828 0-19.501-15.809-35.31-35.31-35.31s-35.31 15.809-35.31 35.31 15.809 35.31 35.31 35.31c9.751 0 17.655 7.904 17.655 17.655s-7.904 17.655-17.655 17.655-17.655-7.904-17.655-17.655c0-4.875-3.952-8.828-8.828-8.828s-8.828 3.952-8.828 8.828c0 19.501 15.809 35.31 35.31 35.31s35.31-15.809 35.31-35.31-15.809-35.31-35.31-35.31c-7.144.002-13.584-4.301-16.317-10.901s-1.219-14.197 3.835-19.245c6.993-6.662 17.985-6.658 24.973.009z" fill="#ecf0f1"/><path d="m162.56 83.592c3.316 3.306 5.175 7.799 5.164 12.482 0 4.875 3.952 8.828 8.828 8.828s8.828-3.952 8.828-8.828c0-19.501-15.809-35.31-35.31-35.31s-35.31 15.809-35.31 35.31 15.809 35.31 35.31 35.31c9.751 0 17.655 7.904 17.655 17.655s-7.904 17.655-17.655 17.655-17.655-7.904-17.655-17.655c0-4.875-3.952-8.828-8.828-8.828-4.875 0-8.828 3.952-8.828 8.828 0 19.501 15.809 35.31 35.31 35.31s35.31-15.809 35.31-35.31-15.809-35.31-35.31-35.31c-7.144.002-13.584-4.301-16.317-10.901s-1.219-14.197 3.835-19.245c6.993-6.662 17.985-6.658 24.973.009z" fill="#ecf0f1"/><path d="m264.828 166.695h-44.138v-97.104c0-4.875-3.952-8.828-8.828-8.828-4.875 0-8.828 3.952-8.828 8.828v97.103c0 9.751 7.904 17.655 17.655 17.655h44.138c4.875 0 8.828-3.952 8.828-8.828s-3.952-8.826-8.827-8.826z" fill="#ecf0f1"/><g fill="#4c8056"><path d="m35.31 219.66h26.483c4.875 0 8.828-3.952 8.828-8.828 0-4.875-3.952-8.828-8.828-8.828h-26.483c-4.875 0-8.828 3.952-8.828 8.828.001 4.876 3.953 8.828 8.828 8.828z"/><path d="m97.103 219.66h132.414c4.875 0 8.828-3.952 8.828-8.828 0-4.875-3.952-8.828-8.828-8.828h-132.414c-4.875 0-8.828 3.952-8.828 8.828.001 4.876 3.953 8.828 8.828 8.828z"/><path d="m229.517 246.143h-26.483c-4.875 0-8.828 3.952-8.828 8.828 0 4.875 3.952 8.828 8.828 8.828h26.483c4.875 0 8.828-3.952 8.828-8.828s-3.952-8.828-8.828-8.828z"/><path d="m35.31 263.798h132.414c4.875 0 8.828-3.952 8.828-8.828 0-4.875-3.952-8.828-8.828-8.828h-132.414c-4.875 0-8.828 3.952-8.828 8.828.001 4.876 3.953 8.828 8.828 8.828z"/><path d="m229.517 290.281h-194.207c-4.875 0-8.828 3.952-8.828 8.828s3.952 8.828 8.828 8.828h194.207c4.875 0 8.828-3.952 8.828-8.828s-3.952-8.828-8.828-8.828z"/><path d="m57.379 343.247h150.069c12.188 0 22.069 9.881 22.069 22.069 0 12.188-9.881 22.069-22.069 22.069h-150.069c-12.188 0-22.069-9.881-22.069-22.069 0-12.189 9.881-22.069 22.069-22.069z"/></g><path d="m376.196 179.142 24.126-7.812c8.257-2.685 17.24 1.032 21.186 8.766l11.538 22.581c1.686 3.311 4.378 6.003 7.689 7.689l22.581 11.538c7.734 3.946 11.451 12.929 8.766 21.186l-7.812 24.126c-1.139 3.536-1.139 7.34 0 10.876l7.812 24.126c2.685 8.257-1.032 17.24-8.766 21.186l-22.581 11.538c-3.311 1.686-6.003 4.378-7.689 7.689l-11.538 22.581c-3.946 7.734-12.929 11.451-21.186 8.766l-24.126-7.812c-3.536-1.139-7.34-1.139-10.876 0l-24.126 7.812c-8.257 2.685-17.24-1.032-21.186-8.766l-11.538-22.581c-1.686-3.311-4.378-6.003-7.689-7.689l-22.581-11.538c-7.734-3.946-11.451-12.929-8.766-21.186l7.812-24.126c1.139-3.536 1.139-7.34 0-10.876l-7.812-24.126c-2.685-8.257 1.032-17.24 8.766-21.186l22.581-11.538c3.311-1.686 6.003-4.378 7.689-7.689l11.538-22.581c3.946-7.734 12.929-11.451 21.186-8.766l24.126 7.812c3.537 1.139 7.341 1.139 10.876 0z" fill="#e64c3c"/><circle cx="370.759" cy="272.626" fill="#f0c419" r="61.793"/></svg>