<svg enable-background="new 0 0 512 512" viewBox="0 0 512 512" xmlns="http://www.w3.org/2000/svg"><circle cx="256" cy="256" fill="#324a5e" r="256"/><path d="m306.416 507.025c94.961-18.968 170.953-90.465 196.408-182.915l-115.697-115.697-17.132 14.507-101.116-101.116-28.012 143.772-116.798-33.318 96.166 96.166-50.185 42.236z" fill="#2b3b4e"/><path d="m232.151 256.86c-.433-.433-.826-.826-1.162-1.162z" fill="#2b3b4e"/><path d="m273.929 128.805 23.869 55.294c2.827 6.551 9.004 11.038 16.108 11.704l59.964 5.615c17.044 1.596 23.931 22.792 11.08 34.102l-45.213 39.788c-5.356 4.713-7.716 11.974-6.153 18.935l13.191 58.764c3.75 16.705-14.281 29.803-29.008 21.076l-51.812-30.704c-6.139-3.637-13.772-3.637-19.911 0l-51.812 30.704c-14.727 8.728-32.758-4.372-29.008-21.076l13.191-58.764c1.564-6.963-.796-14.222-6.153-18.935l-45.212-39.788c-12.852-11.311-5.965-32.506 11.08-34.102l59.964-5.615c7.104-.665 13.279-5.153 16.108-11.704l23.869-55.294c6.786-15.719 29.072-15.719 35.858 0z" fill="#f9b54c"/><path d="m373.87 201.416-59.964-5.615c-7.104-.665-13.281-5.153-16.108-11.704l-23.869-55.293c-3.348-7.754-10.469-11.666-17.641-11.769v223.635c3.346.05 6.684.941 9.668 2.71l51.812 30.704c14.727 8.728 32.758-4.372 29.008-21.076l-13.191-58.764c-1.564-6.963.796-14.222 6.153-18.935l45.213-39.788c12.851-11.313 5.964-32.509-11.081-34.105z" fill="#f4a200"/><path d="m268.422 165.09 16.537 38.31c1.96 4.539 6.239 7.647 11.161 8.109l41.546 3.889c11.809 1.105 16.581 15.791 7.677 23.628l-31.325 27.567c-3.712 3.267-5.346 8.295-4.263 13.121l9.138 40.715c2.598 11.573-9.895 20.649-20.099 14.603l-35.899-21.273c-4.253-2.52-9.542-2.52-13.795 0l-35.899 21.273c-10.204 6.047-22.697-3.029-20.099-14.603l9.138-40.715c1.083-4.824-.552-9.854-4.263-13.121l-31.325-27.567c-8.904-7.837-4.132-22.521 7.677-23.628l41.546-3.889c4.922-.46 9.201-3.57 11.161-8.109l16.537-38.31c4.706-10.89 20.148-10.89 24.849 0z" fill="#ffd15d"/><path d="m345.343 239.026c8.904-7.835 4.132-22.521-7.677-23.628l-41.546-3.889c-4.922-.46-9.201-3.57-11.161-8.108l-16.537-38.31c-2.305-5.341-7.196-8.045-12.135-8.149v154.945c2.289.048 4.568.662 6.609 1.87l35.899 21.273c10.204 6.047 22.697-3.029 20.099-14.603l-9.138-40.715c-1.083-4.823.552-9.854 4.263-13.121z" fill="#f9b54c"/></svg>