<svg enable-background="new 0 0 512 512" viewBox="0 0 512 512" xmlns="http://www.w3.org/2000/svg"><path d="m415.379 0h-317.505c-17.45 0-31.647 14.197-31.647 31.647v92.029c0 17.45 14.197 31.647 31.647 31.647h317.505c17.45 0 31.647-14.197 31.647-31.647v-92.029c0-17.45-14.196-31.647-31.647-31.647z" fill="#9fd479"/><path d="m415.379 0h-26.267c17.45 0 31.647 14.197 31.647 31.647v92.029c0 17.45-14.197 31.647-31.647 31.647h26.267c17.45 0 31.647-14.197 31.647-31.647v-92.029c0-17.45-14.196-31.647-31.647-31.647z" fill="#7db24f"/><path d="m83.327 399.95c-30.892 0-56.025 25.133-56.025 56.025s25.133 56.025 56.025 56.025 56.025-25.133 56.025-56.025-25.133-56.025-56.025-56.025z" fill="#fcab29"/><circle cx="83.33" cy="455.98" fill="#ebeef2" r="20.673"/><path d="m256 399.95c-30.892 0-56.025 25.133-56.025 56.025s25.133 56.025 56.025 56.025 56.025-25.133 56.025-56.025-25.133-56.025-56.025-56.025z" fill="#fcab29"/><path d="m428.673 399.95c-30.892 0-56.025 25.133-56.025 56.025s25.133 56.025 56.025 56.025 56.025-25.133 56.025-56.025-25.133-56.025-56.025-56.025z" fill="#fcab29"/><path d="m428.673 382.613c-4.142 0-7.5-3.358-7.5-7.5v-55.089c0-10.814-8.797-19.611-19.611-19.611h-291.124c-10.814 0-19.611 8.797-19.611 19.611v55.089c0 4.142-3.358 7.5-7.5 7.5s-7.5-3.358-7.5-7.5v-55.089c0-19.085 15.526-34.611 34.611-34.611h291.124c19.085 0 34.611 15.526 34.611 34.611v55.089c0 4.142-3.358 7.5-7.5 7.5z" fill="#444966"/><path d="m256 382.613c-4.142 0-7.5-3.358-7.5-7.5v-151.176c0-4.142 3.358-7.5 7.5-7.5s7.5 3.358 7.5 7.5v151.177c0 4.141-3.358 7.499-7.5 7.499z" fill="#444966"/><g fill="#ebeef2"><path d="m371.322 60.584h-229.391c-4.142 0-7.5-3.358-7.5-7.5s3.358-7.5 7.5-7.5h229.391c4.142 0 7.5 3.358 7.5 7.5s-3.358 7.5-7.5 7.5z"/><path d="m371.322 109.739h-229.391c-4.142 0-7.5-3.358-7.5-7.5s3.358-7.5 7.5-7.5h229.391c4.142 0 7.5 3.358 7.5 7.5s-3.358 7.5-7.5 7.5z"/><circle cx="256" cy="455.98" r="20.673"/><circle cx="428.67" cy="455.98" r="20.673"/></g><path d="m119.721 382.613h-72.788c-4.142 0-7.5-3.358-7.5-7.5s3.358-7.5 7.5-7.5h72.788c4.142 0 7.5 3.358 7.5 7.5s-3.358 7.5-7.5 7.5z" fill="#1b3d66"/><path d="m292.394 382.613h-72.787c-4.142 0-7.5-3.358-7.5-7.5s3.358-7.5 7.5-7.5h72.787c4.142 0 7.5 3.358 7.5 7.5s-3.358 7.5-7.5 7.5z" fill="#1b3d66"/><path d="m465.067 382.613h-72.788c-4.142 0-7.5-3.358-7.5-7.5s3.358-7.5 7.5-7.5h72.788c4.142 0 7.5 3.358 7.5 7.5s-3.358 7.5-7.5 7.5z" fill="#1b3d66"/><circle cx="256" cy="202.3" fill="#ed5575" r="21.64"/><path d="m256 231.437c-16.068 0-29.14-13.072-29.14-29.14s13.072-29.14 29.14-29.14 29.14 13.072 29.14 29.14-13.072 29.14-29.14 29.14zm0-43.281c-7.797 0-14.14 6.343-14.14 14.14s6.343 14.14 14.14 14.14 14.14-6.343 14.14-14.14-6.343-14.14-14.14-14.14z" fill="#1b3d66"/></svg>