<svg height="512pt" viewBox="0 -19 512.00039 512" width="512pt" xmlns="http://www.w3.org/2000/svg"><path d="m266.066406 310.242188v136.558593c0 15.265625-12.371094 27.636719-27.640625 27.636719h-210.757812c-15.265625 0-27.636719-12.371094-27.636719-27.636719v-136.558593c0-15.265626 12.371094-27.636719 27.636719-27.636719h210.757812c15.269531 0 27.640625 12.371093 27.640625 27.636719zm0 0" fill="#c4e2f2"/><path d="m266.066406 310.242188v33.011718h-266.035156v-33.011718c0-15.265626 12.371094-27.636719 27.636719-27.636719h210.757812c15.269531 0 27.640625 12.371093 27.640625 27.636719zm0 0" fill="#83b2c6"/><g fill="#e6e6e6"><path d="m36.632812 322.863281c-3.074218 0-5.917968-1.867187-7.167968-4.667969-1.398438-3.132812-.523438-6.941406 2.097656-9.152343 5.378906-4.539063 13.882812.101562 12.824219 7.128906-.570313 3.792969-3.910157 6.691406-7.753907 6.691406zm0 0"/><path d="m89.964844 322.863281c-7.066406 0-10.488282-9.03125-5.214844-13.703125 5.367188-4.753906 14.007812-.066406 12.972656 6.996094-.558594 3.796875-3.910156 6.707031-7.757812 6.707031zm0 0"/><path d="m63.296875 322.863281c-3.347656 0-6.394531-2.203125-7.441406-5.382812-1.042969-3.183594.089843-6.84375 2.835937-8.800781 5.789063-4.128907 13.992188 1.234374 12.207032 8.25-.878907 3.445312-4.039063 5.933593-7.601563 5.933593zm0 0"/></g><g fill="#2c92bf"><path d="m457.417969 411.339844h-24.226563c-4.332031 0-7.84375-3.511719-7.84375-7.84375 0-4.332032 3.511719-7.84375 7.84375-7.84375h24.226563c3.152343 0 5.71875-2.5625 5.71875-5.714844v-12.308594c0-4.332031 3.511719-7.84375 7.84375-7.84375s7.84375 3.511719 7.84375 7.84375v12.308594c-.003907 11.800781-9.605469 21.402344-21.40625 21.402344zm0 0"/><path d="m478.820312 302.335938h-15.6875v-108.753907c0-2.445312-.070312-4.898437-.210937-7.292969l15.660156-.921874c.15625 2.699218.238281 5.464843.238281 8.214843zm0 0"/><path d="m220.929688 295.597656h-15.683594v-65.464844c0-75.425781 61.359375-136.789062 136.785156-136.789062 24.703125 0 48.902344 6.65625 69.988281 19.242188.148438.089843.292969.183593.433594.28125l25.777344 17.789062-8.910157 12.910156-25.5625-17.640625c-18.601562-11.054687-39.941406-16.894531-61.726562-16.894531-66.773438 0-121.101562 54.328125-121.101562 121.101562zm0 0"/></g><path d="m441.292969 201.945312v138.289063c0 54.820313-44.441407 99.261719-99.261719 99.261719s-99.261719-44.441406-99.261719-99.261719v-99.265625" fill="#ffdcb6"/><path d="m341.328125 439.492188c-27.132813-.183594-51.671875-11.257813-69.488281-29.066407-17.960938-17.96875-29.070313-42.777343-29.070313-70.191406v-99.265625h44.6875v99.265625c0 27.414063 6.105469 52.222656 15.984375 70.191406 9.722656 17.683594 23.09375 28.722657 37.886719 29.066407zm0 0" fill="#edc59d"/><path d="m342.03125 392.933594c-10.542969 0-21.085938-4.015625-29.109375-12.039063-3.066406-3.0625-3.066406-8.03125 0-11.09375 3.0625-3.0625 8.027344-3.0625 11.089844 0 9.933593 9.9375 26.105469 9.9375 36.039062 0 3.0625-3.0625 8.03125-3.0625 11.09375 0s3.0625 8.03125 0 11.09375c-8.027343 8.023438-18.570312 12.039063-29.113281 12.039063zm0 0" fill="#ff491f"/><path d="m385.984375 331.789062c-4.332031 0-7.84375-3.511718-7.84375-7.84375v-22.421874c0-4.332032 3.511719-7.84375 7.84375-7.84375 4.328125 0 7.839844 3.511718 7.839844 7.84375v22.421874c0 4.332032-3.511719 7.84375-7.839844 7.84375zm0 0" fill="#2d303b"/><path d="m298.082031 331.789062c-4.332031 0-7.84375-3.511718-7.84375-7.84375v-22.421874c0-4.332032 3.511719-7.84375 7.84375-7.84375 4.328125 0 7.839844 3.511718 7.839844 7.84375v22.421874c0 4.332032-3.511719 7.84375-7.839844 7.84375zm0 0" fill="#2d303b"/><path d="m483.339844 113.199219c-15.921875-.046875-28.84375 12.84375-28.84375 28.753906 0-15.878906-12.871094-28.753906-28.753906-28.753906-15.878907 0-28.75 12.875-28.75 28.753906h-91.246094c-34.78125 0-62.976563 28.195313-62.976563 62.980469v79.722656c36.625.785156 30.746094-43.6875 30.746094-43.6875h139.472656c54.351563 0 98.476563-43.792969 99.011719-98.019531.15625-15.972657-12.6875-29.699219-28.660156-29.75zm0 0" fill="#3c3f4d"/><path d="m432.597656 114.152344c-2.34375-.621094-4.808594-.953125-7.347656-.953125-15.882812 0-28.753906 12.875-28.753906 28.753906h14.699218c0-13.335937 9.085938-24.550781 21.402344-27.800781zm0 0" fill="#2d303b"/><path d="m490.601562 114.152344c-2.347656-.621094-4.808593-.953125-7.351562-.953125-15.878906 0-28.753906 12.875-28.753906 28.753906h14.703125c0-13.335937 9.082031-24.550781 21.402343-27.800781zm0 0" fill="#2d303b"/><path d="m305.742188 141.953125h25.203124c-34.777343 0-62.976562 28.199219-62.976562 62.976563v67.296874c-4.429688 7.195313-12.097656 12.710938-25.199219 12.429688v-79.726562c0-34.777344 28.195313-62.976563 62.972657-62.976563zm0 0" fill="#2d303b"/><path d="m242.769531 295.597656v61.417969c0 9.445313-6.351562 17.40625-15.019531 19.835937-1.78125.507813-3.65625.777344-5.59375.777344h-8.011719c-11.382812 0-20.609375-9.230468-20.609375-20.613281v-61.417969c0-11.382812 9.226563-20.613281 20.609375-20.613281h8.011719c1.9375 0 3.8125.265625 5.59375.777344 8.667969 2.429687 15.019531 10.390625 15.019531 19.835937zm0 0" fill="#ed3618"/><path d="m242.769531 295.597656v61.417969c0 9.445313-6.351562 17.40625-15.019531 19.835937-8.671875-2.429687-15.023438-10.390624-15.023438-19.835937v-61.417969c0-9.445312 6.351563-17.40625 15.023438-19.835937 8.667969 2.429687 15.019531 10.390625 15.019531 19.835937zm0 0" fill="#ff491f"/><path d="m490.53125 295.597656v61.417969c0 9.445313-6.351562 17.40625-15.023438 19.835937-1.777343.507813-3.652343.777344-5.589843.777344h-8.011719c-11.382812 0-20.613281-9.230468-20.613281-20.613281v-61.417969c0-11.382812 9.230469-20.613281 20.613281-20.613281h8.011719c1.9375 0 3.8125.265625 5.589843.777344 8.671876 2.429687 15.023438 10.390625 15.023438 19.835937zm0 0" fill="#ed3618"/><path d="m490.53125 295.597656v61.417969c0 9.445313-6.351562 17.40625-15.023438 19.835937-8.667968-2.429687-15.019531-10.390624-15.019531-19.835937v-61.417969c0-9.445312 6.351563-17.40625 15.019531-19.835937 8.671876 2.429687 15.023438 10.390625 15.023438 19.835937zm0 0" fill="#ff491f"/><path d="m409.824219 385.972656h5.84375c9.675781 0 17.523437 7.847656 17.523437 17.523438 0 9.679687-7.847656 17.527344-17.523437 17.527344h-5.84375c-9.675781 0-17.523438-7.847657-17.523438-17.527344 0-9.679688 7.847657-17.523438 17.523438-17.523438zm0 0" fill="#3c3f4d"/><path d="m25.511719 0h151.84375c14.089843 0 25.515625 11.421875 25.515625 25.511719v119.710937c0 14.089844-11.425782 25.511719-25.515625 25.511719h-14.933594v58.5625l-58.5625-58.5625h-78.347656c-14.089844 0-25.511719-11.421875-25.511719-25.511719v-119.710937c0-14.089844 11.421875-25.511719 25.511719-25.511719zm0 0" fill="#ffe14d"/><path d="m47.058594 383.535156h-18.824219c-4.332031 0-7.84375-3.511718-7.84375-7.84375 0-4.332031 3.511719-7.84375 7.84375-7.84375h18.824219c4.332031 0 7.839844 3.511719 7.839844 7.84375 0 4.332032-3.507813 7.84375-7.839844 7.84375zm0 0" fill="#ff491f"/><path d="m143.261719 383.535156h-71.105469c-4.332031 0-7.84375-3.511718-7.84375-7.84375 0-4.332031 3.511719-7.84375 7.84375-7.84375h71.105469c4.332031 0 7.84375 3.511719 7.84375 7.84375 0 4.332032-3.511719 7.84375-7.84375 7.84375zm0 0" fill="#3c3f4d"/><path d="m47.058594 415.429688h-18.824219c-4.332031 0-7.84375-3.511719-7.84375-7.84375 0-4.332032 3.511719-7.84375 7.84375-7.84375h18.824219c4.332031 0 7.839844 3.511718 7.839844 7.84375 0 4.332031-3.507813 7.84375-7.839844 7.84375zm0 0" fill="#ffe14d"/><path d="m143.261719 415.429688h-71.105469c-4.332031 0-7.84375-3.511719-7.84375-7.84375 0-4.332032 3.511719-7.84375 7.84375-7.84375h71.105469c4.332031 0 7.84375 3.511718 7.84375 7.84375 0 4.332031-3.511719 7.84375-7.84375 7.84375zm0 0" fill="#3c3f4d"/><path d="m47.058594 447.324219h-18.824219c-4.332031 0-7.84375-3.511719-7.84375-7.84375s3.511719-7.84375 7.84375-7.84375h18.824219c4.332031 0 7.839844 3.511719 7.839844 7.84375s-3.507813 7.84375-7.839844 7.84375zm0 0" fill="#ffe14d"/><path d="m143.261719 447.324219h-71.105469c-4.332031 0-7.84375-3.511719-7.84375-7.84375s3.511719-7.84375 7.84375-7.84375h71.105469c4.332031 0 7.84375 3.511719 7.84375 7.84375s-3.511719 7.84375-7.84375 7.84375zm0 0" fill="#3c3f4d"/><path d="m109.507812 77.894531v-23.027343c3.867188.601562 6.457032 1.914062 8.546876 2.972656 1.78125.90625 3.191406 1.617187 4.761718 1.617187 5.019532 0 7.191406-6.148437 7.191406-9.285156 0-6.707031-10.542968-9.804687-20.5-10.484375v-1.433594c0-3.496094-2.84375-6.339844-6.34375-6.339844-3.496093 0-6.339843 2.84375-6.339843 6.339844v1.835938c-15.234375 2.535156-23.964844 11.824218-23.964844 25.515625 0 16.828125 13.796875 22.113281 23.964844 25.9375v25.835937c-5.65625-1.0625-9.328125-3.910156-12.289063-6.210937-2.398437-1.855469-4.289062-3.324219-6.445312-3.324219-4.324219 0-7.582032 5.710938-7.582032 9.414062 0 7.015626 10.792969 15.429688 26.316407 16.382813v.683594c0 1.953125.902343 3.777343 2.457031 4.976562.917969.867188 2.25 1.363281 3.65625 1.363281.03125 0 .066406-.003906.136719-.007812l.09375.007812c3.496093 0 6.339843-2.84375 6.339843-6.339843v-1.394531c14.527344-3.089844 22.855469-13.128907 22.855469-27.574219 0-16.34375-10.960937-22.875-22.855469-27.460938zm6.378907 29.164063c0 4.445312-2.203125 7.714844-6.378907 9.480468v-19.621093c4.40625 2.582031 6.378907 5.726562 6.378907 10.140625zm-19.0625-51.433594v17.445312c-3.933594-1.792968-7.484375-4.191406-7.484375-9.167968 0-3.988282 2.585937-6.84375 7.484375-8.277344zm0 0" fill="#32cc77"/><path d="m486.257812 18.578125h-190.320312c-4.332031 0-7.839844-3.511719-7.839844-7.84375s3.507813-7.839844 7.839844-7.839844h190.320312c4.332032 0 7.84375 3.507813 7.84375 7.839844s-3.511718 7.84375-7.84375 7.84375zm0 0" fill="#3c3f4d"/><path d="m486.257812 50.359375h-140.125c-4.332031 0-7.84375-3.511719-7.84375-7.84375 0-4.328125 3.511719-7.839844 7.84375-7.839844h140.125c4.332032 0 7.84375 3.511719 7.84375 7.839844 0 4.332031-3.511718 7.84375-7.84375 7.84375zm0 0" fill="#2d303b"/></svg>