<svg height="512pt" viewBox="-29 0 512 512" width="512pt" xmlns="http://www.w3.org/2000/svg"><path d="m262.257812 512h-218.015624c-24.394532 0-44.242188-19.847656-44.242188-44.242188v-423.515624c0-24.394532 19.847656-44.242188 44.242188-44.242188h218.015624c24.394532 0 44.242188 19.847656 44.242188 44.242188v423.515624c0 24.394532-19.847656 44.242188-44.242188 44.242188zm0 0" fill="#bdfdff"/><path d="m262.257812 0h-109.007812v512h109.007812c24.394532 0 44.242188-19.847656 44.242188-44.242188v-423.515624c0-24.394532-19.847656-44.242188-44.242188-44.242188zm0 0" fill="#76e2f8"/><path d="m44.242188 512h218.015624c24.394532 0 44.242188-19.847656 44.242188-44.242188v-64.273437c-3.03125 10.394531-12.640625 18.015625-24 18.015625h-259.5625c-10.273438 0-19.113281-6.25-22.9375-15.152344v61.410156c0 24.394532 19.847656 44.242188 44.242188 44.242188zm0 0" fill="#09607d"/><path d="m282.5 421.5h-129.25v90.5h109.007812c24.394532 0 44.242188-19.847656 44.242188-44.242188v-64.273437c-3.03125 10.394531-12.640625 18.015625-24 18.015625zm0 0" fill="#001e2a"/><path d="m193.25 482h-80c-8.285156 0-15-6.714844-15-15s6.714844-15 15-15h80c8.285156 0 15 6.714844 15 15s-6.714844 15-15 15zm0 0" fill="#d8e6eb"/><path d="m23.9375 60h258.5625c11.363281 0 20.972656 7.621094 24 18.015625v-33.773437c0-24.394532-19.847656-44.242188-44.242188-44.242188h-218.015624c-24.394532 0-44.242188 19.847656-44.242188 44.242188v33.695312c3.050781-10.355469 12.625-17.9375 23.9375-17.9375zm0 0" fill="#09607d"/><path d="m262.257812 0h-109.007812v60h129.25c11.359375 0 20.96875 7.621094 24 18.015625v-33.773437c0-24.394532-19.847656-44.242188-44.242188-44.242188zm0 0" fill="#001e2a"/><path d="m193.25 452h-40v30h40c8.285156 0 15-6.714844 15-15s-6.714844-15-15-15zm0 0" fill="#b5c3ce"/><path d="m397.050781 395.226562c-3.039062 0-6.0625-.921874-8.640625-2.738281l-60.617187-42.707031h-151.773438c-8.285156 0-15-6.714844-15-15v-188c0-8.28125 6.714844-15 15-15h262c8.28125 0 15 6.71875 15 15v188c0 8.285156-6.71875 15-15 15h-25.96875v30.445312c0 5.601563-3.121093 10.738282-8.09375 13.316407-2.175781 1.128906-4.546875 1.683593-6.90625 1.683593zm0 0" fill="#70da40"/><path d="m438.019531 131.78125h-131.5v218h21.273438l60.617187 42.707031c2.578125 1.816407 5.601563 2.738281 8.640625 2.738281 2.359375 0 4.730469-.554687 6.90625-1.683593 4.972657-2.578125 8.09375-7.714844 8.09375-13.316407v-30.445312h25.96875c8.28125 0 15-6.714844 15-15v-188c0-8.28125-6.71875-15-15-15zm0 0" fill="#56c225"/><path d="m378.054688 224.785156h-142.035157c-8.285156 0-15-6.71875-15-15 0-8.285156 6.714844-15 15-15h142.035157c8.28125 0 15 6.714844 15 15 0 8.28125-6.71875 15-15 15zm0 0" fill="#c5f0b2"/><path d="m337.019531 284.78125h-101c-8.285156 0-15-6.714844-15-15 0-8.28125 6.714844-15 15-15h101c8.28125 0 15 6.71875 15 15 0 8.285156-6.71875 15-15 15zm0 0" fill="#c5f0b2"/><g fill="#54e360"><path d="m378.054688 194.785156h-71.535157v30h71.535157c8.28125 0 15-6.71875 15-15 0-8.285156-6.71875-15-15-15zm0 0"/><path d="m337.019531 254.78125h-30.5v30h30.5c8.28125 0 15-6.714844 15-15 0-8.28125-6.71875-15-15-15zm0 0"/></g></svg>