<svg height="464pt" viewBox="0 -4 464.61593 464" width="464pt" xmlns="http://www.w3.org/2000/svg"><path d="m396.675781 113.191406c-13.75-61.789062-66.242187-107.351562-129.347656-112.277344-63.109375-4.929687-122.035156 31.933594-145.210937 90.835938-44.757813-12.652344-92.152344 8.597656-112.472657 50.4375-20.320312 41.839844-7.722656 92.230469 29.898438 119.585938 37.617187 27.355468 89.433593 23.804687 122.972656-8.421876 50.863281 43.761719 125.265625 46.421876 179.121094 6.398438 27.480469 17.503906 62.832031 16.59375 89.375-2.300781s38.972656-52 31.429687-83.695313c-7.542968-31.699218-33.554687-55.652344-65.765625-60.5625zm0 0" fill="#4891d3"/><g fill="#57b7eb"><path d="m384.117188 112.070312c-27.210938 0-52.558594 13.832032-67.28125 36.71875 31.660156-20.359374 73.226562-15.898437 99.84375 10.71875 26.617187 26.613282 31.078124 68.183594 10.71875 99.84375 29.847656-19.207031 43.476562-55.78125 33.46875-89.835937-10.007813-34.054687-41.253907-57.445313-76.75-57.445313zm0 0"/><path d="m355.558594 117.429688c9.105468-3.542969 18.789062-5.359376 28.558594-5.359376 4.210937.003907 8.414062.378907 12.558593 1.121094-12.238281-55.300781-55.757812-98.289062-111.199219-109.851562-55.445312-11.5625-112.519531 10.453125-145.839843 56.25 35.125-25.46875 79.863281-33.738282 121.773437-22.515625 41.910156 11.222656 76.527344 40.742187 94.226563 80.355469zm0 0"/><path d="m80.117188 120.070312c30.058593.019532 58.371093 14.121094 76.5 38.09375 18.128906 23.976563 23.984374 55.058594 15.820312 83.984376 23.585938-30.714844 26.40625-72.59375 7.152344-106.191407-19.253906-33.601562-56.808594-52.34375-95.234375-47.527343-38.425781 4.816406-70.195313 32.246093-80.558594 69.558593 18.128906-23.855469 46.355469-37.882812 76.320313-37.917969zm0 0"/></g><path d="m344.117188 160.070312c-.019532-2.925781-.289063-5.839843-.800782-8.71875l16-9.441406-16-27.679687-16 9.359375c-4.507812-3.785156-9.65625-6.738282-15.199218-8.71875v-18.800782h-32v18.800782c-5.546876 1.980468-10.691407 4.933594-15.199219 8.71875l-16-9.359375-16 27.679687 16 9.441406c-1.066407 5.761719-1.066407 11.671876 0 17.4375l-16 9.441407 16 27.679687 16-9.359375c4.507812 3.785157 9.652343 6.738281 15.199219 8.71875v18.800781h32v-18.800781c5.542968-1.980469 10.691406-4.933593 15.199218-8.71875l16 9.359375 16-27.679687-16-9.441407c.511719-2.878906.78125-5.796874.800782-8.71875zm-48 16c-8.835938 0-16-7.164062-16-16 0-8.835937 7.164062-16 16-16 8.835937 0 16 7.164063 16 16 0 8.835938-7.164063 16-16 16zm0 0" fill="#a1d51c"/><path d="m328.117188 192.070312c-35.347657 0-64-28.652343-64-64v-4.960937l-15.441407-8.878906-16 27.679687 16 9.441406c-1.0625 5.761719-1.0625 11.671876 0 17.4375l-16 9.441407 16 27.679687 16-9.359375c4.582031 3.8125 9.8125 6.765625 15.441407 8.71875v18.800781h32v-18.800781c5.542968-1.980469 10.691406-4.933593 15.199218-8.71875l16 9.359375 8-13.839844zm0 0" fill="#7ab92d"/><path d="m128.117188 282.628906-118.640626 118.800782c-12.503906 12.503906-12.503906 32.777343 0 45.28125 12.503907 12.503906 32.777344 12.503906 45.28125 0l118.800782-118.640626zm-62.082032 118.800782-28.238281 28.320312c-1.503906 1.515625-3.546875 2.367188-5.679687 2.367188-2.132813 0-4.179688-.851563-5.679688-2.367188-1.515625-1.503906-2.367188-3.546875-2.367188-5.679688 0-2.132812.851563-4.179687 2.367188-5.679687l28.320312-28.242187c3.171876-2.714844 7.90625-2.535157 10.859376.421874 2.953124 2.953126 3.136718 7.683594.417968 10.859376zm0 0" fill="#e59730"/><path d="m252.757812 248.710938-39.601562 40-45.039062-45.679688 40-39.601562-11.921876-11.359376c-4.5-4.519531-10.617187-7.058593-17-7.058593-6.378906 0-12.496093 2.539062-17 7.058593l-45.199218 45.28125c-9.359375 9.367188-9.359375 24.546876 0 33.917969l67.839844 67.839844c9.371093 9.359375 24.550781 9.359375 33.921874 0l45.359376-45.121094c4.519531-4.5 7.058593-10.617187 7.058593-17 0-6.378906-2.539062-12.496093-7.058593-17zm0 0" fill="#f9e109"/><path d="m253.558594 277.351562c-12.007813 12.015626-28.296875 18.769532-45.28125 18.769532-16.988282 0-33.277344-6.753906-45.28125-18.769532l-42.878906-43.042968-3.039063 3.121094c-9.359375 9.371093-9.359375 24.550781 0 33.921874l67.839844 67.839844c9.367187 9.355469 24.546875 9.355469 33.917969 0l45.28125-45.203125c7.886718-8.042969 9.117187-20.484375 2.960937-29.917969zm0 0" fill="#fcbc04"/><path d="m111.316406 299.589844-101.839844 101.839844c6.554688 6.5 15.59375 9.855468 24.800782 9.199218l20.480468-20.480468c3.121094-3.101563 8.160157-3.101563 11.277344 0l45.28125-45.277344c6.007813-6.003906 9.386719-14.148438 9.386719-22.640625 0-8.492188-3.378906-16.636719-9.386719-22.640625zm0 0" fill="#fcbc04"/><path d="m368.117188 408.070312v-48h24l-40-48-40 48h24v48" fill="#c4f236"/><path d="m352.117188 360.070312v-48l-40 48h24v48h32v-12.320312c-10.15625-9.082031-15.972657-22.054688-16-35.679688zm0 0" fill="#a1d51c"/><path d="m192.117188 120.070312c0 8.835938-7.164063 16-16 16-8.835938 0-16-7.164062-16-16 0-8.835937 7.164062-16 16-16 8.835937 0 16 7.164063 16 16zm0 0" fill="#f9e109"/><path d="m170.757812 109.429688c.023438-1.578126.292969-3.144532.800782-4.640626-7.371094 2.148438-12.175782 9.230469-11.449219 16.871094.722656 7.644532 6.773437 13.691406 14.417969 14.417969 7.640625.726563 14.71875-4.078125 16.871094-11.449219-1.496094.503906-3.0625.777344-4.640626.800782-8.835937 0-16-7.164063-16-16zm0 0" fill="#fcbc04"/></svg>