<svg enable-background="new 0 0 512 512" viewBox="0 0 512 512" xmlns="http://www.w3.org/2000/svg"><path d="m181.019 398.44v105.167h102.959v-105.198z" fill="#8b7e7f"/><path d="m427.652 368.573h-389.882" style="fill:none;stroke:#000;stroke-width:15;stroke-linecap:round;stroke-linejoin:round;stroke-miterlimit:10"/><path d="m460.8 120.897c0-12.31-10.072-22.383-22.383-22.383h-411.838c-12.31 0-22.383 10.072-22.383 22.383v248.446l228.302 22.383 228.302-22.383z" fill="#463836"/><path d="m4.197 369.343v29.097c0 12.31 10.072 22.383 22.383 22.383h411.838c12.31 0 22.383-10.072 22.383-22.383v-29.097z" fill="#c2b8b9"/><path d="m357.281 512h-249.565c-4.635 0-8.393-3.758-8.393-8.393s3.758-8.393 8.393-8.393h249.565c4.635 0 8.393 3.758 8.393 8.393s-3.758 8.393-8.393 8.393z" fill="#c2b8b9"/><path d="m507.803 103.146c0-56.965-58.151-103.146-129.876-103.146-71.732 0-129.877 46.181-129.877 103.146 0 50.893 46.411 93.174 107.455 101.61h-.185c3.203 19.675-2.707 40.569-17.74 55.745 32.255 0 58.882-24.293 62.926-55.741h-.185c61.054-8.428 107.482-50.713 107.482-101.614z" fill="#ffd24d"/><g fill="#f14742"><circle cx="332.145" cy="103.15" r="8.393"/><circle cx="423.712" cy="103.15" r="8.393"/><circle cx="377.929" cy="103.15" r="8.393"/></g></svg>