<svg enable-background="new 0 0 512 512" viewBox="0 0 512 512" xmlns="http://www.w3.org/2000/svg"><circle cx="256" cy="256" fill="#ffaf10" r="245"/><path d="m174.63 379.83h108v46.17h-108z" fill="#445ea0"/><path d="m174.63 379.83h19.842v46.17h-19.842z" fill="#2e4c89"/><path d="m333.134 450c0 2.75-2.25 5-5 5h-199.003c-2.75 0-5-2.25-5-5v-20c0-2.75 2.25-5 5-5h199.003c2.75 0 5 2.25 5 5z" fill="#293d7c"/><path d="m143.973 450v-20c0-2.75 2.25-5 5-5h-19.842c-2.75 0-5 2.25-5 5v20c0 2.75 2.25 5 5 5h19.842c-2.75 0-5-2.25-5-5z" fill="#1a2b63"/><path d="m0 370.834c0 5.5 4.5 10 10 10h300.175v-66.951h-310.175z" fill="#293d7c"/><path d="m19.842 370.834v-56.951h-19.842v56.951c0 5.5 4.5 10 10 10h19.842c-5.5 0-10-4.5-10-10z" fill="#1a2b63"/><path d="m310.175 286.987c0-2.206 1.794-4 4-4h143.09v-216.522c0-6.046-4.946-10.992-10.991-10.992h-435.282c-6.046 0-10.992 4.946-10.992 10.992v248.418h310.175z" fill="#445ea0"/><path d="m310.175 286.987c0-2.206 1.794-4 4-4h121.107v-200.53c0-2.75-2.25-5-5-5h-403.298c-2.75 0-5 2.25-5 5v205.441c0 2.75 2.25 5 5 5h283.19z" fill="#eef6ff"/><circle cx="228.63" cy="348.21" fill="#445ea0" r="13.911"/><path d="m416.361 206.376c0 2.75-2.25 5-5 5h-158.457c-2.75 0-5-2.25-5-5v-72.718c0-2.75 2.25-5 5-5h158.457c2.75 0 5 2.25 5 5z" fill="#ffaf10"/><path d="m267.747 206.376v-72.718c0-2.75 2.25-5 5-5h-19.842c-2.75 0-5 2.25-5 5v72.718c0 2.75 2.25 5 5 5h19.842c-2.75 0-5-2.25-5-5z" fill="#ff9518"/><path d="m299.266 240.121h-43.112c-4.142 0-7.5-3.357-7.5-7.5s3.358-7.5 7.5-7.5h43.112c4.142 0 7.5 3.357 7.5 7.5s-3.358 7.5-7.5 7.5z" fill="#c3ddf4"/><path d="m299.266 262.916h-43.112c-4.142 0-7.5-3.357-7.5-7.5s3.358-7.5 7.5-7.5h43.112c4.142 0 7.5 3.357 7.5 7.5s-3.358 7.5-7.5 7.5z" fill="#c3ddf4"/><path d="m351.28 240.121h-32.06c-4.142 0-7.5-3.357-7.5-7.5s3.358-7.5 7.5-7.5h32.06c4.142 0 7.5 3.357 7.5 7.5s-3.358 7.5-7.5 7.5z" fill="#c3ddf4"/><path d="m351.28 262.916h-32.06c-4.142 0-7.5-3.357-7.5-7.5s3.358-7.5 7.5-7.5h32.06c4.142 0 7.5 3.357 7.5 7.5s-3.358 7.5-7.5 7.5z" fill="#c3ddf4"/><path d="m411.772 240.121h-40.836c-4.142 0-7.5-3.357-7.5-7.5s3.358-7.5 7.5-7.5h40.836c4.142 0 7.5 3.357 7.5 7.5s-3.358 7.5-7.5 7.5z" fill="#c3ddf4"/><path d="m411.772 262.916h-40.836c-4.142 0-7.5-3.357-7.5-7.5s3.358-7.5 7.5-7.5h40.836c4.142 0 7.5 3.357 7.5 7.5s-3.358 7.5-7.5 7.5z" fill="#c3ddf4"/><path d="m359.365 111.084c0 2.75-2.25 5-5 5h-10.999c-2.75 0-5-2.25-5-5v-10.999c0-2.75 2.25-5 5-5h10.999c2.75 0 5 2.25 5 5z" fill="#ef8318"/><path d="m387.363 111.084c0 2.75-2.25 5-5 5h-10.999c-2.75 0-5-2.25-5-5v-10.999c0-2.75 2.25-5 5-5h10.999c2.75 0 5 2.25 5 5z" fill="#ef8318"/><path d="m415.361 111.084c0 2.75-2.25 5-5 5h-10.999c-2.75 0-5-2.25-5-5v-10.999c0-2.75 2.25-5 5-5h10.999c2.75 0 5 2.25 5 5z" fill="#ef8318"/><g fill="#69cdff"><path d="m190.898 257.005h-9c-4.142 0-7.5-3.357-7.5-7.5s3.358-7.5 7.5-7.5h9c4.142 0 7.5 3.357 7.5 7.5s-3.358 7.5-7.5 7.5z"/><path d="m156.898 257.005h-9c-4.142 0-7.5-3.357-7.5-7.5s3.358-7.5 7.5-7.5h9c4.142 0 7.5 3.357 7.5 7.5s-3.358 7.5-7.5 7.5z"/><path d="m122.897 257.005h-9c-4.142 0-7.5-3.357-7.5-7.5s3.358-7.5 7.5-7.5h9c4.142 0 7.5 3.357 7.5 7.5.001 4.143-3.357 7.5-7.5 7.5z"/><path d="m88.897 257.005h-9c-4.142 0-7.5-3.357-7.5-7.5s3.358-7.5 7.5-7.5h9c4.142 0 7.5 3.357 7.5 7.5s-3.357 7.5-7.5 7.5z"/><path d="m220.148 226.106c-4.142 0-7.5-3.357-7.5-7.5v-9c0-4.142 3.358-7.5 7.5-7.5s7.5 3.358 7.5 7.5v9c0 4.143-3.358 7.5-7.5 7.5z"/><path d="m220.148 192.106c-4.142 0-7.5-3.357-7.5-7.5v-9c0-4.142 3.358-7.5 7.5-7.5s7.5 3.358 7.5 7.5v9c0 4.143-3.358 7.5-7.5 7.5z"/><path d="m220.148 158.106c-4.142 0-7.5-3.357-7.5-7.5v-9c0-4.142 3.358-7.5 7.5-7.5s7.5 3.358 7.5 7.5v9c0 4.143-3.358 7.5-7.5 7.5z"/><path d="m50.147 226.106c-4.142 0-7.5-3.357-7.5-7.5v-9c0-4.142 3.358-7.5 7.5-7.5s7.5 3.358 7.5 7.5v9c0 4.143-3.357 7.5-7.5 7.5z"/><path d="m50.147 192.106c-4.142 0-7.5-3.357-7.5-7.5v-9c0-4.142 3.358-7.5 7.5-7.5s7.5 3.358 7.5 7.5v9c0 4.143-3.357 7.5-7.5 7.5z"/><path d="m50.147 158.106c-4.142 0-7.5-3.357-7.5-7.5v-9c0-4.142 3.358-7.5 7.5-7.5s7.5 3.358 7.5 7.5v9c0 4.143-3.357 7.5-7.5 7.5z"/><path d="m190.898 121.005h-9c-4.142 0-7.5-3.357-7.5-7.5s3.358-7.5 7.5-7.5h9c4.142 0 7.5 3.357 7.5 7.5s-3.358 7.5-7.5 7.5z"/><path d="m156.898 121.005h-9c-4.142 0-7.5-3.357-7.5-7.5s3.358-7.5 7.5-7.5h9c4.142 0 7.5 3.357 7.5 7.5s-3.358 7.5-7.5 7.5z"/><path d="m122.897 121.005h-9c-4.142 0-7.5-3.357-7.5-7.5s3.358-7.5 7.5-7.5h9c4.142 0 7.5 3.357 7.5 7.5s-3.357 7.5-7.5 7.5z"/><path d="m88.897 121.005h-9c-4.142 0-7.5-3.357-7.5-7.5s3.358-7.5 7.5-7.5h9c4.142 0 7.5 3.357 7.5 7.5s-3.357 7.5-7.5 7.5z"/></g><path d="m200.148 224.505c0 2.75-2.25 5-5 5h-120c-2.75 0-5-2.25-5-5v-86c0-2.75 2.25-5 5-5h120c2.75 0 5 2.25 5 5z" fill="#5dc1d8"/><path d="m89.99 224.505v-86c0-2.75 2.25-5 5-5h-19.843c-2.75 0-5 2.25-5 5v86c0 2.75 2.25 5 5 5h19.843c-2.75 0-5-2.25-5-5z" fill="#28a5a5"/><path d="m234.145 121.009c0 2.75-2.25 5-5 5h-21c-2.75 0-5-2.25-5-5v-21c0-2.75 2.25-5 5-5h21c2.75 0 5 2.25 5 5z" fill="#52bbef"/><path d="m68.145 123.009c0 2.75-2.25 5-5 5h-21c-2.75 0-5-2.25-5-5v-21c0-2.75 2.25-5 5-5h21c2.75 0 5 2.25 5 5z" fill="#52bbef"/><path d="m234.145 260.883c0 2.75-2.25 5-5 5h-21c-2.75 0-5-2.25-5-5v-21c0-2.75 2.25-5 5-5h21c2.75 0 5 2.25 5 5z" fill="#52bbef"/><path d="m68.145 260.883c0 2.75-2.25 5-5 5h-21c-2.75 0-5-2.25-5-5v-21c0-2.75 2.25-5 5-5h21c2.75 0 5 2.25 5 5z" fill="#52bbef"/><path d="m214.167 121.009v-21c0-2.75 2.25-5 5-5h-11.022c-2.75 0-5 2.25-5 5v21c0 2.75 2.25 5 5 5h11.022c-2.75 0-5-2.25-5-5z" fill="#1e99d6"/><path d="m48.167 123.009v-21c0-2.75 2.25-5 5-5h-11.022c-2.75 0-5 2.25-5 5v21c0 2.75 2.25 5 5 5h11.022c-2.75 0-5-2.25-5-5z" fill="#1e99d6"/><path d="m214.167 260.883v-21c0-2.75 2.25-5 5-5h-11.022c-2.75 0-5 2.25-5 5v21c0 2.75 2.25 5 5 5h11.022c-2.75 0-5-2.25-5-5z" fill="#1e99d6"/><path d="m48.167 260.883v-21c0-2.75 2.25-5 5-5h-11.022c-2.75 0-5 2.25-5 5v21c0 2.75 2.25 5 5 5h11.022c-2.75 0-5-2.25-5-5z" fill="#1e99d6"/><path d="m435.458 366.773c-.155-.422-.143-.662-.121-.74.001 0 .062-.006.119-.006.114 0 .313.023.614.134l42.104 15.465v-94.638c0-2.75-2.25-5-5-5h-159c-2.75 0-5 2.25-5 5v114.8c0 2.75 2.25 5 5 5h135.98z" fill="#5dc1d8"/><path d="m329.017 401.787v-114.8c0-2.75 2.25-5 5-5h-19.842c-2.75 0-5 2.25-5 5v114.8c0 2.75 2.25 5 5 5h19.842c-2.75 0-5-2.25-5-5z" fill="#28a5a5"/><path d="m436.415 365.222c-1.647-.605-2.501.248-1.896 1.896l26.365 71.782c.605 1.648 2.116 1.98 3.357.739l13.997-13.997c1.241-1.241 3.272-1.241 4.515 0l16.128 16.13c1.241 1.241 3.272 1.241 4.514 0l7.674-7.674c1.241-1.241 1.241-3.273 0-4.514l-16.129-16.129c-1.241-1.241-1.241-3.272 0-4.514l13.996-13.997c1.242-1.24.909-2.751-.739-3.356z" fill="#293d7c"/></svg>