<svg height="512pt" viewBox="0 0 512 511" width="512pt" xmlns="http://www.w3.org/2000/svg"><path d="m414.011719 418.765625v61.542969c0 17.292968-14.015625 31.308594-31.300781 31.308594h-349.117188c-17.285156 0-31.296875-14.015626-31.296875-31.308594v-61.542969c0-10.132813 4.816406-19.140625 12.289063-24.863281 5.265624-4.039063 11.855468-6.4375 19.007812-6.4375h349.117188c17.285156 0 31.300781 14.015625 31.300781 31.300781zm0 0" fill="#1ed688"/><path d="m414.011719 418.765625v44.195313c-5.273438 4.039062-11.867188 6.433593-19.007813 6.433593h-349.117187c-17.285157 0-31.300781-14.011719-31.300781-31.296875v-44.195312c5.265624-4.039063 11.855468-6.4375 19.007812-6.4375h349.117188c17.285156 0 31.300781 14.015625 31.300781 31.300781zm0 0" fill="#35e298"/><path d="m450.085938 179.144531v144.257813c0 14.917968-12.082032 27.003906-26.992188 27.003906h-262.492188c-14.917968 0-27.003906-12.085938-27.003906-27.003906v-144.257813c0-14.910156 12.085938-26.992187 27.003906-26.992187h262.492188c14.910156 0 26.992188 12.082031 26.992188 26.992187zm0 0" fill="#ffc14f"/><path d="m450.085938 179.144531v117.277344h-226.160157c-14.917969 0-27-12.085937-27-27.003906v-117.265625h226.167969c14.910156 0 26.992188 12.082031 26.992188 26.992187zm0 0" fill="#ffcd71"/><path d="m180.773438 152.152344v196.457031l-.238282 1.796875h-19.933594c-14.917968 0-27.003906-12.085938-27.003906-27.003906v-144.257813c0-14.910156 12.085938-26.992187 27.003906-26.992187zm0 0" fill="#f29500"/><path d="m357.070312 24.574219v64.863281c0 13.289062-10.777343 24.074219-24.074218 24.074219h-247.898438c-13.300781 0-24.074218-10.785157-24.074218-24.074219v-64.863281c0-9.082031 5.023437-16.984375 12.457031-21.085938 3.445312-1.910156 7.402343-2.988281 11.617187-2.988281h247.898438c13.296875 0 24.074218 10.777344 24.074218 24.074219zm0 0" fill="#6990d7"/><path d="m357.070312 24.574219v50.652343c-3.449218 1.910157-7.402343 2.988282-11.617187 2.988282h-247.898437c-13.296876 0-24.074219-10.785156-24.074219-24.074219v-50.652344c3.445312-1.910156 7.402343-2.988281 11.617187-2.988281h247.898438c13.296875 0 24.074218 10.777344 24.074218 24.074219zm0 0" fill="#91aee2"/><g fill="#f29500"><path d="m411.277344 180.789062h-202.4375c-4.300782 0-7.785156 3.484376-7.785156 7.785157s3.484374 7.785156 7.785156 7.785156h202.4375c4.296875 0 7.785156-3.484375 7.785156-7.785156s-3.484375-7.785157-7.785156-7.785157zm0 0"/><path d="m411.277344 222.589844h-202.4375c-4.300782 0-7.785156 3.484375-7.785156 7.785156s3.484374 7.789062 7.785156 7.789062h202.4375c4.296875 0 7.785156-3.488281 7.785156-7.789062s-3.484375-7.785156-7.785156-7.785156zm0 0"/><path d="m411.277344 264.390625h-202.4375c-4.300782 0-7.785156 3.484375-7.785156 7.785156s3.484374 7.789063 7.785156 7.789063h202.4375c4.296875 0 7.785156-3.488282 7.785156-7.789063s-3.484375-7.785156-7.785156-7.785156zm0 0"/><path d="m411.277344 306.191406h-202.4375c-4.300782 0-7.785156 3.484375-7.785156 7.785156 0 4.300782 3.484374 7.789063 7.785156 7.789063h202.4375c4.296875 0 7.785156-3.488281 7.785156-7.789063 0-4.300781-3.484375-7.785156-7.785156-7.785156zm0 0"/></g><path d="m116.027344 251.546875c0-4.304687-3.488282-7.789063-7.789063-7.789063h-73.570312c-10.527344 0-19.097657-8.566406-19.097657-19.09375v-139.363281c0-10.53125 8.570313-19.097656 19.097657-19.097656 4.300781 0 7.785156-3.484375 7.785156-7.785156s-3.484375-7.789063-7.785156-7.789063c-19.117188 0-34.667969 15.554688-34.667969 34.671875v139.363281c0 19.113282 15.550781 34.667969 34.667969 34.667969h73.574219c4.296874 0 7.785156-3.488281 7.785156-7.785156zm0 0" fill="#919196"/><path d="m103.996094 84.246094h210.101562c4.300782 0 7.785156-3.488282 7.785156-7.789063s-3.484374-7.785156-7.785156-7.785156h-210.101562c-4.300782 0-7.789063 3.484375-7.789063 7.785156s3.488281 7.789063 7.789063 7.789063zm0 0" fill="#274c91"/><path d="m103.996094 45.335938h210.101562c4.300782 0 7.785156-3.484376 7.785156-7.785157s-3.484374-7.785156-7.785156-7.785156h-210.101562c-4.300782 0-7.789063 3.484375-7.789063 7.785156s3.488281 7.785157 7.789063 7.785157zm0 0" fill="#274c91"/><path d="m299.945312 461.207031h-255.734374c-4.300782 0-7.785157 3.484375-7.785157 7.785157 0 4.300781 3.484375 7.789062 7.785157 7.789062h255.730468c4.300782 0 7.785156-3.488281 7.785156-7.789062 0-4.300782-3.484374-7.785157-7.78125-7.785157zm0 0" fill="#169b62"/><path d="m299.945312 422.300781h-255.734374c-4.300782 0-7.785157 3.484375-7.785157 7.785157 0 4.300781 3.484375 7.785156 7.785157 7.785156h255.730468c4.300782 0 7.785156-3.484375 7.785156-7.785156 0-4.300782-3.484374-7.785157-7.78125-7.785157zm0 0" fill="#169b62"/><path d="m478.75 230.582031c-4.300781 0-7.785156 3.484375-7.785156 7.785157 0 4.300781 3.484375 7.789062 7.785156 7.789062 9.75 0 17.679688 7.929688 17.679688 17.675781v160.242188c0 9.746093-7.933594 17.675781-17.679688 17.675781h-36.078125c-4.300781 0-7.785156 3.484375-7.785156 7.785156 0 4.300782 3.484375 7.785156 7.785156 7.785156h36.078125c18.335938 0 33.25-14.914062 33.25-33.246093v-160.242188c0-18.332031-14.914062-33.25-33.25-33.25zm0 0" fill="#919196"/><path d="m380.167969 411.242188c-3.566407-2.402344-8.40625-1.457032-10.808594 2.109374l-28.558594 42.40625-9.457031-14.042968c-2.402344-3.570313-7.242188-4.511719-10.808594-2.109375-3.566406 2.402343-4.511718 7.242187-2.109375 10.804687l15.917969 23.636719c1.445312 2.148437 3.867188 3.4375 6.457031 3.4375 2.589844 0 5.011719-1.289063 6.457031-3.4375l35.019532-51.996094c2.398437-3.566406 1.457031-8.40625-2.109375-10.808593zm0 0" fill="#169b62"/></svg>