<svg viewBox="0 0 2575 800" xmlns="http://www.w3.org/2000/svg"><g fill="#ff5a5f"><path d="m1371.06 206a50.76 50.76 0 0 1 -101.51 0c0-28.11 21.87-50.75 50.75-50.75 28.9.75 50.76 23.41 50.76 50.75zm-209.25 102.27v12.5s-24.2-31.25-75.73-31.25c-85.1 0-151.48 64.81-151.48 154.6 0 89 65.6 154.59 151.48 154.59 52.31 0 75.73-32 75.73-32v13.29a10.67 10.67 0 0 0 10.93 10.92h63.26v-293.61h-63.23a11.21 11.21 0 0 0 -10.93 11zm0 188.16c-11.7 17.18-35.13 32-63.24 32-50 0-88.23-31.23-88.23-84.33s38.27-84.33 88.23-84.33c27.33 0 52.32 15.62 63.24 32zm121-199.1h75v293.58h-75zm1119.63-7.81c-51.54 0-75.75 31.24-75.75 31.24v-164.76h-74.95v434.91h63.26a11.16 11.16 0 0 0 10.93-10.91v-13.29s24.21 32 75.73 32c85.11 0 151.47-65.57 151.47-154.58s-66.36-154.62-150.67-154.62zm-12.44 238.14c-28.9 0-51.53-14.82-63.25-32v-104.66c11.72-15.61 36.7-32 63.25-32 50 0 88.23 31.23 88.23 84.33s-38.3 84.33-88.23 84.33zm-177.27-110.86v174.89h-75v-166.31c0-48.4-15.62-67.93-57.75-67.93-22.64 0-46.07 11.72-60.93 28.9v204.57h-74.93v-293.58h59.32a11.17 11.17 0 0 1 10.93 10.93v12.5c21.87-22.65 50.75-31.25 79.63-31.25q49.2 0 82 28.12c26.53 21.86 36.69 50 36.69 99.16zm-450.52-127.28c-51.51 0-75.72 31.24-75.72 31.24v-164.76h-75v434.91h63.23a11.18 11.18 0 0 0 10.99-10.91v-13.29s24.21 32 75.72 32c85.12 0 151.48-65.57 151.48-154.58.78-89-65.58-154.62-150.7-154.62zm-12.49 238.14c-28.88 0-51.52-14.82-63.23-32v-104.66c11.71-15.61 36.69-32 63.23-32 50 0 88.23 31.23 88.23 84.33s-38.25 84.33-88.23 84.33zm-203-238.14c22.63 0 34.35 3.91 34.35 3.91v69.48s-62.46-21.08-101.49 23.43v205.34h-75v-294.35h63.25a11.16 11.16 0 0 1 10.92 10.94v12.49c14.07-16.4 44.52-31.25 67.94-31.25z"/><path d="m802 564.36c-3.9-9.37-7.81-19.52-11.71-28.11-6.26-14-12.5-27.33-18-39.82l-.78-.78c-53.83-117.12-111.59-235.79-172.51-352.9l-2.34-4.69q-9.61-18.23-18.73-36.7c-7.82-14.06-15.62-28.88-28.11-42.95-24.97-31.23-60.89-48.41-99.14-48.41-39.05 0-74.18 17.18-99.93 46.85-11.72 14-20.32 28.88-28.11 42.94q-9.15 18.46-18.73 36.7l-2.35 4.7c-60.12 117.1-118.67 235.81-172.56 352.89l-.79 1.55c-5.46 12.51-11.71 25.78-18 39.82q-5.85 12.9-11.7 28.11c-10.15 28.89-13.28 56.22-9.37 84.33a165.92 165.92 0 0 0 101.55 129.61 160.21 160.21 0 0 0 63.24 12.5 175.93 175.93 0 0 0 20.31-1.57c25.77-3.12 52.31-11.7 78.08-26.53 32-18 62.46-43.72 96.81-81.2 34.35 37.48 65.58 63.23 96.81 81.2 25.78 14.83 52.32 23.41 78.08 26.53a173.56 173.56 0 0 0 20.31 1.57c21.86 0 43.72-3.9 63.23-12.5 54.67-21.87 92.92-71.82 101.51-129.61 6.2-27.32 3.08-54.63-7.07-83.53zm-352.11 40.64c-42.17-53.1-69.5-103.06-78.86-145.21-3.9-18-4.68-33.58-2.34-47.64a75.74 75.74 0 0 1 12.5-32.8c14.81-21.1 39.81-34.35 68.71-34.35s54.66 12.5 68.71 34.35a76 76 0 0 1 12.51 32.8c2.33 14.07 1.55 30.45-2.35 47.64-9.4 41.33-36.77 91.3-78.88 145.21zm311.51 36.65c-5.46 40.6-32.79 75.75-71 91.36-18.74 7.8-39.05 10.15-59.33 7.8-19.52-2.34-39-8.59-59.34-20.29-28.11-15.63-56.21-39.82-89-75.74 51.53-63.24 82.76-121 94.47-172.55a195.14 195.14 0 0 0 3.9-66.37 126.69 126.69 0 0 0 -21.1-53.1c-24.22-35.14-64.83-55.43-110.1-55.43s-85.9 21.08-110.1 55.43a126.84 126.84 0 0 0 -21.08 53.1 162.11 162.11 0 0 0 3.9 66.37c11.71 51.52 43.72 110.08 94.46 173.32-32 35.92-60.9 60.13-89 75.75-20.3 11.71-39.81 18-59.32 20.29a124.93 124.93 0 0 1 -59.35-7.8c-38.25-15.61-65.58-50.76-71-91.36-2.34-19.51-.78-39 7-60.89 2.33-7.81 6.25-15.61 10.15-25 5.47-12.5 11.7-25.78 18-39l.79-1.55c53.8-116.37 111.57-235.05 171.65-350.59l2.34-4.7c6.26-11.7 12.51-24.19 18.75-35.91 6.24-12.5 13.26-24.21 21.86-34.37 16.39-18.72 38.25-28.88 62.46-28.88s46.07 10.16 62.46 28.88c8.6 10.18 15.62 21.9 21.86 34.37 6.27 11.72 12.55 24.21 18.78 35.91l2.35 4.7q88.8 174 171 351.34v.78c6.25 12.51 11.71 26.55 18 39.06 3.9 9.35 7.81 17.15 10.15 25 6.18 20.25 8.52 39.78 5.39 60.07z"/></g></svg>