<svg enable-background="new 0 0 1150.9 1150.9" viewBox="0 0 1150.9 1150.9" xmlns="http://www.w3.org/2000/svg"><path d="m-103.5-100.1h1377v1314h-1377z" fill="#ff5a5f"/><path d="m883 719c-3.4-8.2-6.8-17-10.2-24.6-5.5-12.3-10.9-23.9-15.7-34.8l-.7-.7c-47-102.3-97.5-205.9-150.7-308.2l-2-4.1c-5.6-10.6-11.1-21.3-16.4-32.1-6.8-12.3-13.6-25.2-24.6-37.5-21.8-27.3-53.2-42.3-86.6-42.3-34.1 0-64.8 15-87.3 40.9-10.2 12.2-17.7 25.2-24.6 37.5-5.4 10.8-10.8 21.5-16.4 32.1l-2.1 4.1c-52.5 102.2-103.6 205.9-150.7 308.2l-.7 1.4c-4.8 10.9-10.2 22.5-15.7 34.8-3.4 7.5-6.8 15.7-10.2 24.5-8.9 25.2-11.6 49.1-8.2 73.7 7.4 50.8 41.1 93.9 88.7 113.2 17.5 7.3 36.3 11 55.2 10.9 5.9-.1 11.9-.6 17.7-1.4 22.5-2.7 45.7-10.2 68.2-23.2 27.9-15.7 54.6-38.2 84.6-70.9 30 32.7 57.3 55.2 84.6 70.9 22.5 13 45.7 20.4 68.2 23.2 5.9.8 11.8 1.3 17.7 1.4 19.1 0 38.2-3.4 55.2-10.9 47.7-19.1 81.1-62.7 88.7-113.2 5.6-23.8 2.8-47.7-6-72.9zm-307.6 35.5c-36.8-46.4-60.7-90-68.9-126.8-3.4-15.7-4.1-29.3-2-41.6 1.3-10.3 5.1-20.1 10.9-28.6 13-18.4 34.8-30 60-30s47.7 10.9 60 30c5.8 8.6 9.6 18.4 10.9 28.6 2 12.3 1.4 26.6-2.1 41.6-8.1 36.1-31.9 79.7-68.8 126.8zm272.2 32c-4.8 35.5-28.6 66.2-62 79.8-16.4 6.8-34.1 8.9-51.8 6.8-17-2.1-34.1-7.5-51.8-17.7-24.6-13.7-49.1-34.8-77.7-66.2 44.9-55.2 72.2-105.7 82.4-150.7 4.4-19 5.6-38.6 3.4-58-2.5-16.7-8.8-32.5-18.4-46.4-21.2-30.7-56.6-48.4-96.2-48.4s-75 18.4-96.1 48.4c-9.6 13.9-15.9 29.7-18.4 46.4-2.9 19.4-1.7 39.1 3.4 58 10.2 45 38.2 96.1 82.5 151.4-27.9 31.4-53.2 52.5-77.7 66.2-17.7 10.2-34.8 15.7-51.8 17.7-17.6 2-35.4-.4-51.8-6.8-33.4-13.6-57.3-44.3-62-79.8-2-17-.7-34.1 6.1-53.2 2-6.8 5.5-13.6 8.9-21.8 4.8-10.9 10.2-22.5 15.7-34.1l.7-1.4c47.1-101.6 97.5-205.3 150-306.2l2-4.1c5.5-10.2 10.9-21.1 16.4-31.4 5.5-10.9 11.6-21.1 19.1-30 14.3-16.4 33.3-25.3 54.5-25.3 21.1 0 40.2 8.9 54.6 25.2 7.5 8.9 13.6 19.1 19.1 30 5.5 10.2 10.9 21.1 16.4 31.4l2.1 4.1c51.7 101.3 101.5 203.6 149.4 306.9v.7c5.5 10.9 10.2 23.2 15.7 34.1 3.4 8.2 6.8 15 8.9 21.8 5 17.8 7 34.9 4.4 52.6z" fill="#fff"/></svg>