<svg enable-background="new 0 0 900 900" viewBox="0 0 900 900" xmlns="http://www.w3.org/2000/svg"><path d="m836.1 630.2c-4.3-10.3-8.6-21.4-12.8-30.8-6.9-15.4-13.7-30-19.7-43.7l-.9-.9c-59-128.4-122.4-258.5-189.1-386.9l-2.6-5.1c-7-13.3-13.9-26.7-20.5-40.2-8.6-15.4-17.1-31.7-30.8-47.1-27.4-34.2-66.8-53.1-108.7-53.1-42.8 0-81.3 18.8-109.6 51.4-12.9 15.4-22.3 31.7-30.8 47.1-6.7 13.5-13.5 26.9-20.5 40.2l-2.6 5.2c-66 128.3-130.2 258.5-189.3 386.9l-.9 1.7c-6 13.7-12.8 28.3-19.7 43.7-4.3 9.4-8.6 19.7-12.8 30.8-11.2 31.6-14.6 61.6-10.3 92.4 9.3 63.7 51.7 117.8 111.3 142.1 21.9 9.2 45.5 13.9 69.3 13.7 7.4-.1 14.9-.7 22.3-1.7 28.3-3.4 57.4-12.8 85.6-29.1 35.1-19.7 68.5-47.9 106.1-89 37.7 41.1 71.9 69.3 106.1 89 28.3 16.3 57.4 25.7 85.6 29.1 7.4 1 14.8 1.6 22.3 1.7 24 0 47.9-4.3 69.3-13.7 59.9-24 101.9-78.7 111.3-142.1 6.9-30 3.5-59.9-7.6-91.6zm-386.1 44.6c-46.2-58.2-76.2-113-86.5-159.2-4.3-19.7-5.1-36.8-2.6-52.2 1.7-12.9 6.4-25.2 13.7-36 16.2-23.1 43.6-37.7 75.3-37.7s59.9 13.7 75.3 37.7c7.3 10.8 12 23.1 13.7 36 2.6 15.4 1.7 33.4-2.6 52.2-10.1 45.3-40.1 100.1-86.3 159.2zm341.6 40.2c-6 44.5-36 83.1-77.8 100.2-20.5 8.6-42.8 11.1-65.1 8.6-21.4-2.6-42.8-9.4-65.1-22.2-30.8-17.1-61.6-43.7-97.6-83 56.5-69.3 90.7-132.7 103.6-189.2 5.6-23.8 7-48.4 4.3-72.8-3.2-20.9-11.1-40.8-23.1-58.2-26.6-38.5-71.1-60.8-120.7-60.8s-94.2 23.1-120.7 60.8c-12 17.4-19.9 37.3-23.1 58.2-3.6 24.3-2.2 49.1 4.3 72.8 12.8 56.5 47.9 120.7 103.6 190-35.1 39.4-66.8 65.9-97.6 83.1-22.3 12.8-43.6 19.7-65 22.2-22.1 2.5-44.4-.5-65.1-8.6-41.9-17.1-71.9-55.7-77.8-100.2-2.6-21.4-.9-42.8 7.7-66.8 2.6-8.6 6.9-17.1 11.1-27.4 6-13.7 12.8-28.3 19.7-42.8l.9-1.7c59-127.6 122.3-257.7 188.2-384.4l2.6-5.2c6.9-12.8 13.7-26.5 20.6-39.4 6.8-13.7 14.5-26.5 24-37.7 18-20.5 41.9-31.7 68.5-31.7s50.5 11.1 68.5 31.7c9.4 11.2 17.1 24 24 37.7 6.9 12.9 13.8 26.5 20.6 39.4l2.6 5.2c64.5 127.2 127 255.6 187.1 385.2v.9c6.9 13.7 12.8 29.1 19.7 42.8 4.3 10.3 8.6 18.8 11.1 27.4 6.8 22.2 9.4 43.6 6 65.9z" fill="#ff5a5f"/></svg>