<?xml version="1.0" encoding="utf-8"?>
<!-- Generator: Adobe Illustrator 19.1.0, SVG Export Plug-In . SVG Version: 6.00 Build 0)  -->
<svg version="1.1" id="Symbol_Editing_Mode" xmlns="http://www.w3.org/2000/svg" xmlns:xlink="http://www.w3.org/1999/xlink"
	 x="0px" y="0px" viewBox="0 0 474.4 149.4" style="enable-background:new 0 0 474.4 149.4;" xml:space="preserve">
<style type="text/css">
	.st0{fill:#FF1A12;}
</style>
<g id="Header_1_">
	<g id="XMLID_50_">
		<g id="XMLID_63_">
			<g id="XMLID_64_">
				<g id="XMLID_65_">
					<g id="XMLID_66_">
						<g id="XMLID_67_">
							<path id="XMLID_84_" class="st0" d="M138.4,112.8c-1.5-1.4-2.5-3.4-3-5.8c-2.9,2.7-6.1,4.8-9.7,6.2
								c-4.7,1.9-9.8,2.8-15.3,2.8c-3.5,0-6.9-0.4-10-1.1c-3.2-0.8-6.1-2.1-8.6-3.9c-2.5-1.9-4.5-4.3-5.9-7.2
								c-1.4-2.9-2.2-6.4-2.2-10.5c0-4.6,0.8-8.4,2.4-11.3c1.6-2.9,3.7-5.4,6.3-7.2c2.5-1.8,5.5-3.2,8.7-4.1
								c3.1-0.9,6.3-1.6,9.5-2.2c3.4-0.7,6.7-1.2,9.8-1.5c2.9-0.3,5.6-0.8,7.8-1.4c2-0.5,3.6-1.3,4.8-2.3c0.9-0.8,1.4-2.1,1.4-3.9
								c0-2.3-0.4-4.2-1.2-5.5c-0.8-1.4-1.9-2.4-3.2-3.1c-1.4-0.8-3-1.3-4.7-1.5c-1.9-0.3-3.8-0.4-5.6-0.4c-4.9,0-8.9,0.9-12.1,2.7
								c-2.9,1.7-4.5,4.8-4.7,9.7l-0.1,1.8H86.6l0.1-2c0.2-4.9,1.2-9.2,3.1-12.6c1.9-3.4,4.4-6.3,7.6-8.4c3.1-2.1,6.7-3.7,10.7-4.6
								c7-1.6,15-1.7,22.7-0.6c3.1,0.5,6,1.4,8.6,2.6C126.4,15,102.3,0,74.7,0C33.4,0,0,33.4,0,74.7c0,41.3,33.4,74.7,74.7,74.7
								c27.2,0,51.1-14.6,64.1-36.4C138.7,112.9,138.5,112.9,138.4,112.8z"/>
							<g id="XMLID_81_">
								<path id="XMLID_82_" class="st0" d="M177,116.1c-5.2,0-9.5-0.7-13-2.1c-3.6-1.4-6.5-3.5-8.7-6.1c-2.2-2.6-3.8-5.8-4.7-9.4
									c-0.9-3.5-1.3-7.4-1.3-11.5V35.7h16.1v52.7c0,4.2,1.1,7.3,3.5,9.7c2.4,2.4,5.6,3.5,9.8,3.5c3.5,0,6.6-0.5,9.1-1.6
									c2.5-1,4.6-2.5,6.2-4.4c1.7-1.9,2.9-4.2,3.8-6.8c0.9-2.6,1.3-5.6,1.3-8.8V35.7h16.1v78.8h-15.4v-8.1
									c-2.2,2.6-4.7,4.7-7.5,6.2C187.9,115,182.8,116.1,177,116.1z"/>
							</g>
							<g id="XMLID_77_">
								<path id="XMLID_78_" class="st0" d="M254.8,144.9c-3.6,0-7.3-0.4-11.1-1.2c-3.8-0.8-7.3-2.2-10.4-4
									c-3.2-1.9-5.8-4.4-7.9-7.4c-2.1-3.1-3.3-6.9-3.5-11.3l-0.1-2h16.1l0.1,1.8c0.1,1.8,0.6,3.3,1.7,4.5c1.1,1.3,2.5,2.5,4.2,3.3
									c1.7,0.9,3.6,1.5,5.7,1.9c6.2,1.2,11.7,0.6,15.5-1.3c2.5-1.3,4.6-3,6.3-5.2c1.7-2.2,2.9-5,3.7-8.2c0.7-3,1.1-6.3,1.2-9.8
									c-2,2.4-4.4,4.3-7.2,5.7c-4.6,2.3-9.5,3.5-14.6,3.5c-5.9,0-11.1-1.1-15.5-3.2c-4.4-2.1-8.1-5.1-11.1-8.7
									c-3-3.6-5.2-7.9-6.7-12.7c-1.4-4.8-2.2-9.8-2.2-15.1c0-4.6,0.6-9.4,1.8-14.2c1.2-4.9,3.3-9.4,6.1-13.4
									c2.9-4,6.7-7.4,11.4-10c4.7-2.6,10.5-3.9,17.3-3.9c5,0,9.7,1.1,13.9,3.3c2.5,1.3,4.8,3.1,6.7,5.2v-6.8h15.4v70.5
									c0,12.7-3,22.4-8.9,28.9C276.7,141.6,267.3,144.9,254.8,144.9z M256.2,48.7c-3.6,0-6.8,0.7-9.3,2c-2.5,1.4-4.6,3.2-6.2,5.5
									c-1.6,2.3-2.9,5-3.6,8.1c-0.8,3.1-1.2,6.4-1.2,9.8c0,3.3,0.3,6.6,1,9.8c0.6,3.2,1.7,6.1,3.3,8.6c1.5,2.5,3.5,4.5,5.9,6
									c2.4,1.5,5.5,2.3,9.2,2.3c3.7,0,6.9-0.8,9.4-2.3c2.6-1.5,4.7-3.6,6.3-6.1c1.6-2.6,2.8-5.5,3.6-8.8c0.8-3.3,1.2-6.7,1.2-10
									c0-3.1-0.4-6.2-1.1-9.3c-0.7-3-1.9-5.7-3.4-8c-1.5-2.3-3.5-4.2-6-5.6C262.7,49.4,259.7,48.7,256.2,48.7z"/>
							</g>
							<g id="XMLID_74_">
								<path id="XMLID_75_" class="st0" d="M324.4,116.1c-5.2,0-9.6-0.7-13-2.1c-3.6-1.4-6.5-3.5-8.7-6.1c-2.2-2.6-3.8-5.8-4.7-9.4
									c-0.9-3.5-1.3-7.4-1.3-11.5V35.7h16.1v52.7c0,4.2,1.1,7.3,3.5,9.7c2.4,2.4,5.6,3.5,9.8,3.5c3.5,0,6.5-0.5,9.1-1.6
									c2.5-1,4.6-2.5,6.2-4.4c1.7-1.9,2.9-4.2,3.8-6.8c0.9-2.7,1.3-5.6,1.3-8.8V35.7h16.1v78.8h-15.4v-8.1
									c-2.2,2.6-4.7,4.7-7.5,6.2C335.3,115,330.2,116.1,324.4,116.1z"/>
							</g>
							<g id="XMLID_71_">
								<path id="XMLID_72_" class="st0" d="M399.5,116.1c-4.3,0-8.4-0.5-12.3-1.4c-4-0.9-7.6-2.5-10.7-4.6c-3.2-2.1-5.7-5-7.6-8.5
									c-1.9-3.5-2.9-7.7-3.1-12.6l-0.1-2h16.1l0.1,1.8c0.1,2.4,0.6,4.4,1.6,6c1,1.6,2.3,2.9,3.9,3.9c1.7,1,3.6,1.7,5.8,2.2
									c3.9,0.8,8.1,0.9,12.8,0.3c2-0.3,3.8-0.8,5.4-1.5c1.5-0.7,2.7-1.6,3.7-2.8c0.9-1.2,1.3-2.7,1.3-4.6c0-2.6-0.9-4.4-2.8-5.7
									c-2.2-1.5-5.1-2.8-8.5-3.7c-3.5-1-7.5-1.9-11.7-2.7c-4.4-0.8-8.5-2-12.2-3.6c-3.9-1.6-7.2-3.9-9.8-6.8
									c-2.7-3.1-4.1-7.3-4.1-12.6c0-4.1,0.9-7.7,2.8-10.7c1.8-2.9,4.2-5.3,7.1-7.2c2.8-1.8,6-3.1,9.6-4c3.5-0.8,7-1.3,10.4-1.3
									c4.4,0,8.5,0.4,12.1,1.1c3.8,0.8,7.2,2.1,10.2,4c3,2,5.4,4.6,7.2,7.9c1.8,3.3,2.8,7.4,3.1,12.2l0.1,2H414l-0.1-1.7
									c-0.2-2.1-0.7-3.8-1.6-5.1c-0.9-1.4-2-2.4-3.5-3.3c-1.5-0.9-3.1-1.5-4.9-1.9c-3.5-0.8-7.2-0.8-10.9-0.2
									c-1.7,0.3-3.3,0.7-4.6,1.4c-1.3,0.6-2.3,1.4-3.1,2.4c-0.7,0.9-1,2-1,3.5c0,1.6,0.5,2.9,1.6,3.9c1.3,1.2,3.1,2.3,5.1,3.1
									c2.2,0.9,4.7,1.6,7.5,2.2c2.9,0.6,5.8,1.3,8.7,2c3.1,0.7,6.2,1.5,9.2,2.5c3.1,1,5.9,2.4,8.3,4.1c2.5,1.8,4.5,4,6.1,6.6
									c1.6,2.7,2.4,6.1,2.4,9.9c0,4.9-1.1,9-3.1,12.3c-2,3.2-4.7,5.9-8,7.9c-3.2,1.9-6.9,3.3-10.9,4.1
									C407.3,115.8,403.4,116.1,399.5,116.1z"/>
							</g>
							<g id="XMLID_68_">
								<path id="XMLID_69_" class="st0" d="M474.4,114.6h-11.3c-3.3,0-6.2-0.2-8.6-0.7c-2.6-0.5-4.7-1.4-6.4-2.8
									c-1.7-1.4-2.9-3.4-3.7-5.8c-0.7-2.3-1.1-5.3-1.1-9V50.4h-12.8V35.7h12.8V13.3h16.1v22.5h14.9v14.7h-14.9v44.7
									c0,1.3,0.1,2.3,0.3,3c0.1,0.5,0.3,0.8,0.6,1c0.3,0.2,0.9,0.5,2,0.6c1.1,0.1,2.6,0.2,4.5,0.2h7.5V114.6z"/>
							</g>
						</g>
					</g>
				</g>
			</g>
		</g>
	</g>
</g>
</svg>
