<?xml version="1.0" encoding="utf-8"?>
<!-- Generator: Adobe Illustrator 24.1.0, SVG Export Plug-In . SVG Version: 6.00 Build 0)  -->
<svg version="1.1" id="Layer_1" xmlns="http://www.w3.org/2000/svg" xmlns:xlink="http://www.w3.org/1999/xlink" x="0px" y="0px"
	 viewBox="0 0 1150.9 1150.9" style="enable-background:new 0 0 1150.9 1150.9;" xml:space="preserve">
<style type="text/css">
	.st0{fill:#FF1A12;}
	.st1{fill:#FFFFFF;}
	.st2{fill:none;}
</style>
<rect x="-186.2" y="-49.5" class="st0" width="1533.7" height="1344.3"/>
<g>
	<g id="Header_1_">
		<g id="XMLID_50_">
			<g id="XMLID_63_">
				<g id="XMLID_64_">
					<g id="XMLID_65_">
						<g id="XMLID_66_">
							<g id="XMLID_67_">
								<path id="XMLID_84_" class="st1" d="M861.9,746.8c-6.7-6.3-11.2-15.3-13.5-26.1c-13,12.1-27.4,21.6-43.6,27.9
									c-21.1,8.5-44.1,12.6-68.8,12.6c-15.7,0-31-1.8-45-4.9c-14.4-3.6-27.4-9.4-38.7-17.5c-11.2-8.5-20.2-19.3-26.5-32.4
									c-6.3-13-9.9-28.8-9.9-47.2c0-20.7,3.6-37.8,10.8-50.8c7.2-13,16.6-24.3,28.3-32.4c11.2-8.1,24.7-14.4,39.1-18.4
									c13.9-4,28.3-7.2,42.7-9.9c15.3-3.1,30.1-5.4,44.1-6.7c13-1.3,25.2-3.6,35.1-6.3c9-2.2,16.2-5.8,21.6-10.3
									c4-3.6,6.3-9.4,6.3-17.5c0-10.3-1.8-18.9-5.4-24.7c-3.6-6.3-8.5-10.8-14.4-13.9c-6.3-3.6-13.5-5.8-21.1-6.7
									c-8.5-1.3-17.1-1.8-25.2-1.8c-22,0-40,4-54.4,12.1c-13,7.6-20.2,21.6-21.1,43.6l-0.4,8.1H629l0.4-9
									c0.9-22,5.4-41.4,13.9-56.7s19.8-28.3,34.2-37.8c13.9-9.4,30.1-16.6,48.1-20.7c31.5-7.2,67.5-7.6,102.1-2.7
									c13.9,2.2,27,6.3,38.7,11.7C808,307,699.6,239.5,575.5,239.5c-185.7,0-336,150.2-336,335.9s150.2,336,336,336
									c122.3,0,229.8-65.7,288.3-163.7C863.3,747.2,862.4,747.2,861.9,746.8z"/>
							</g>
						</g>
					</g>
				</g>
			</g>
		</g>
	</g>
	<rect x="239.5" y="239.5" class="st2" width="671.9" height="671.9"/>
</g>
</svg>
