<?xml version="1.0" encoding="utf-8"?>
<!-- Generator: Adobe Illustrator 24.1.0, SVG Export Plug-In . SVG Version: 6.00 Build 0)  -->
<svg version="1.1" id="Symbol_Editing_Mode" xmlns="http://www.w3.org/2000/svg" xmlns:xlink="http://www.w3.org/1999/xlink"
	 x="0px" y="0px" viewBox="0 0 149.4 149.4" style="enable-background:new 0 0 149.4 149.4;" xml:space="preserve">
<style type="text/css">
	.st0{fill:#FF1A12;}
</style>
<g id="Header_1_">
	<g id="XMLID_50_">
		<g id="XMLID_63_">
			<g id="XMLID_64_">
				<g id="XMLID_65_">
					<g id="XMLID_66_">
						<g id="XMLID_67_">
							<path id="XMLID_84_" class="st0" d="M138.4,112.8c-1.5-1.4-2.5-3.4-3-5.8c-2.9,2.7-6.1,4.8-9.7,6.2
								c-4.7,1.9-9.8,2.8-15.3,2.8c-3.5,0-6.9-0.4-10-1.1c-3.2-0.8-6.1-2.1-8.6-3.9c-2.5-1.9-4.5-4.3-5.9-7.2
								c-1.4-2.9-2.2-6.4-2.2-10.5c0-4.6,0.8-8.4,2.4-11.3s3.7-5.4,6.3-7.2c2.5-1.8,5.5-3.2,8.7-4.1c3.1-0.9,6.3-1.6,9.5-2.2
								c3.4-0.7,6.7-1.2,9.8-1.5c2.9-0.3,5.6-0.8,7.8-1.4c2-0.5,3.6-1.3,4.8-2.3c0.9-0.8,1.4-2.1,1.4-3.9c0-2.3-0.4-4.2-1.2-5.5
								c-0.8-1.4-1.9-2.4-3.2-3.1c-1.4-0.8-3-1.3-4.7-1.5c-1.9-0.3-3.8-0.4-5.6-0.4c-4.9,0-8.9,0.9-12.1,2.7
								c-2.9,1.7-4.5,4.8-4.7,9.7l-0.1,1.8H86.6l0.1-2c0.2-4.9,1.2-9.2,3.1-12.6c1.9-3.4,4.4-6.3,7.6-8.4c3.1-2.1,6.7-3.7,10.7-4.6
								c7-1.6,15-1.7,22.7-0.6c3.1,0.5,6,1.4,8.6,2.6C126.4,15,102.3,0,74.7,0C33.4,0,0,33.4,0,74.7s33.4,74.7,74.7,74.7
								c27.2,0,51.1-14.6,64.1-36.4C138.7,112.9,138.5,112.9,138.4,112.8z"/>
						</g>
					</g>
				</g>
			</g>
		</g>
	</g>
</g>
</svg>
