<svg viewBox="0 0 3850 800" xmlns="http://www.w3.org/2000/svg"><path d="m1085.71 161v163.9h189.12v-163.9h50.43v392.93h-50.43v-182.8h-189.12v182.8h-50.43v-392.93zm567.34 250.05c0 105.06-71.44 149.19-140.78 149.19-75.65 0-134.48-56.74-134.48-145 0-94.55 60.93-149.19 138.68-149.19 81.95.01 136.58 58.85 136.58 145zm-222.73 2.1c0 60.94 35.72 109.27 86.15 109.27 48.33 0 86.15-46.23 86.15-109.27 0-48.33-23.11-109.26-84-109.26s-88.25 56.73-88.25 109.26zm273.16-65.15c0-29.42 0-52.53-2.1-75.64h44.13l2.1 46.22h4.2c16.81-27.31 42-52.53 88.25-52.53 37.82 0 67.24 23.12 79.85 56.74a88.12 88.12 0 0 1 31.52-35.72c16.81-12.61 35.72-18.92 63-18.92 37.83 0 92.46 25.22 92.46 121.88v163.9h-50.43v-159.69c0-54.63-18.91-86.15-60.94-86.15-29.41 0-52.53 21-60.93 46.23a90.32 90.32 0 0 0 -4.2 25.21v174.4h-50.39v-168.1c0-44.12-18.92-77.74-58.84-77.74-31.52 0-54.63 25.21-63 50.43-2.1 8.4-4.2 16.81-4.2 25.21v170.2h-50.43zm502.2 71.44c2.1 71.45 46.23 98.76 98.76 98.76 37.82 0 58.83-6.3 79.84-14.71l8.41 37.83c-18.91 8.4-50.43 18.91-94.56 18.91-88.25 0-140.78-58.84-140.78-145s50.43-155.49 134.48-155.49c94.56 0 119.77 81.95 119.77 134.48 0 10.51-2.1 18.91-2.1 25.21zm153.39-37.82c0-33.62-14.71-84.05-71.44-84.05-52.53 0-75.65 48.33-79.85 84.05z" fill="#221e1f"/><path d="m2527.17 427.86-42 126.07h-52.53l136.55-399.23h63l136.58 399.23h-54.63l-42-126.07zm130.28-39.92-39.93-115.57c-8.4-25.22-14.71-50.43-21-73.55h-2.1c-6.3 23.12-12.61 48.33-21 71.45l-39.93 115.56c4.19 2.11 123.96 2.11 123.96 2.11zm159.69-121.88 37.82 145c8.41 31.52 16.81 60.94 21 90.35h2.1c6.3-29.41 16.81-58.83 25.21-90.35l46.23-145h44.13l44.14 142.94q15.77 50.43 25.22 94.55h2.1c4.2-29.41 12.61-58.83 23.11-92.45l39.93-145h52.53l-92.46 287.83h-48.33l-44.12-136.58c-10.51-31.52-18.91-60.93-25.22-94.55-6.3 33.62-16.81 65.14-25.21 94.55l-46.23 136.58h-48.33l-86.15-287.87zm601 218.53c0 25.22 2.1 48.33 4.2 69.34h-48.34l-4.2-35.72c-16.81 23.12-46.23 42-88.25 42-58.84 0-88.25-42-88.25-81.95 0-69.34 60.93-107.16 172.3-107.16v-6.31c0-23.11-6.31-67.24-65.14-67.24a151.11 151.11 0 0 0 -75.65 21l-12.63-33.55c23.11-14.7 58.83-25.21 94.55-25.21 88.25 0 109.27 58.83 109.27 117.67zm-50.43-77.74c-56.73-2.1-121.87 8.4-121.87 65.14 0 33.62 23.11 50.43 48.33 50.43 37.82 0 60.93-23.12 69.34-48.33 2.1-6.31 2.1-10.51 2.1-16.81v-50.43zm136.58-140.79 63 170.2c6.3 18.92 12.61 42 18.91 58.84h2.1c4.2-16.81 10.51-39.92 18.91-58.84l56.73-168.1h54.64l-77.75 203.84c-33.62 86.15-58.83 136.58-98.76 172.3-25.21 23.11-50.43 31.52-65.14 33.62l-12.6-44.13c12.6-4.2 29.41-12.61 46.22-25.21 14.71-10.51 31.52-31.52 44.13-58.84 2.1-6.3 4.2-10.5 4.2-12.61s-2.1-6.3-4.2-14.7l-107.16-256.37zm334.1 31.52a37.83 37.83 0 0 1 -75.65 0c0-21 16.81-37.82 39.93-37.82 18.91 0 35.72 16.81 35.72 37.82zm-67.24 0c0 16.81 12.61 29.42 29.42 29.42s29.41-12.61 29.41-29.42-12.6-29.42-29.41-29.42-29.42 12.61-29.42 29.42zm23.11 18.91h-8.4v-37.82c4.2 0 8.4-2.1 14.71-2.1s10.5 2.1 12.6 2.1c2.11 2.1 4.21 4.2 4.21 8.41s-4.21 8.4-8.41 8.4c4.2 0 6.31 4.2 6.31 8.41 2.1 6.3 2.1 8.4 2.1 8.4h-8.41c-2.1-2.1-2.1-4.2-2.1-8.4s-2.1-6.31-8.4-6.31h-4.21zm0-21h4.2c4.21 0 8.41-2.1 8.41-6.3s-2.1-6.31-8.41-6.31h-4.2z" fill="#2a6ebb"/><path d="m301.28 67.68-173 205.66v303.48l165.53-25.08s30.1-5 32.6 25.08c2.51 32.6-27.58 32.6-27.58 32.6l-173.11 27.58v62.7l366.17 65.21v-484zm85.28 413.83c-17.56 25.08-45.15 40.13-75.24 42.64h-5c-30.1 0-57.69-15-77.75-37.62s-32.6-55.18-35.11-90.29v-10c0-35.12 10-67.72 30.09-90.29s45.15-40.13 75.25-42.64h5c30.1 0 57.69 15 77.75 37.62s32.61 55.18 35.11 90.29v10c0 35.11-12.54 65.21-30.09 90.29zm178.07 12.54v117.88l87.78-15v-112.93zm-200.63-188.05q-26.33-30.1-60.19-30.1h-2.51c-22.57 0-42.63 12.54-57.68 32.61s-25.08 47.65-25.08 77.75v7.52c2.51 30.1 12.54 57.68 30.09 77.75s37.63 30.1 60.2 30.1h2.51c22.55-.05 42.66-12.63 57.66-32.63s25.08-47.65 25.08-77.75v-7.55c-2.51-32.61-12.54-60.2-30.1-77.75zm-122.91 85.22c-2.51-45.14 22.57-85.27 55.18-87.78-20.07 12.54-32.61 47.65-30.1 85.27 2.51 40.13 17.56 72.74 40.13 82.77-32.6 2.51-62.7-32.61-65.21-80.26zm446.43-62.7v112.86l72.73-10v-110.38zm0 260.84 72.73-12.54v-110.36l-72.73 10z" fill="#fff"/><path d="m647.39 10h-398.78l-233.24 275.88 82.76-5v298.44l-62.7 10s-30.09 5-22.57 37.62c7.52 22.61 30.14 22.61 30.14 22.61l55.17-10v80.25l393.72 70.2 311-70.23v-433.89l85.27-7.52zm-80.25 328.55 85.27-7.55v112.89l-87.78 12.54zm-441.42 361.16v-62.71l170.55-27.59s30.09 0 27.59-32.6c-2.51-30.1-32.61-25.08-32.61-25.08l-165.53 25.09v-303.48l173.06-205.66 190.61 215.7v484.05c2.5-2.51-363.67-67.72-363.67-67.72zm438.91-87.78v-117.88l87.78-12.54v112.86zm193.12-35.11-70.23 12.54v-112.86l72.73-10v110.32zm-70.23-135.44v-112.86l72.73-7.52v110.35z" fill="#2a6ebb"/><path d="m381.54 290.9c-20.06-22.57-47.65-37.62-77.75-37.62h-5c-30.1 2.51-55.18 17.56-75.25 42.64-17.54 25.08-30.1 55.17-30.1 90.29v10c2.51 35.11 15.05 67.71 35.11 90.29s47.65 37.62 77.75 37.62h5c30.09-2.51 55.17-17.56 75.24-42.64 17.55-25.08 30.09-55.18 30.09-90.29v-10c-2.5-35.11-15-67.72-35.11-90.29zm-12.54 178.1c-15 20-35.11 32.58-57.68 32.58h-2.51c-22.57 0-45.15-12.54-60.2-30.1-17.55-20.07-27.58-47.65-30.09-77.75v-7.52c0-30.1 10-57.69 25.08-77.75s35.11-32.61 57.68-32.61h2.51c22.57 0 45.15 12.54 60.19 30.1 17.56 20.06 27.59 47.65 30.1 77.75v7.52c0 30.1-10 57.69-25.08 77.75zm-102.83-77.78c-2.51-37.62 10-72.73 30.1-85.27-32.61 2.51-57.69 40.13-55.18 87.78 2.51 45.14 30.1 82.77 65.21 80.26-22.57-12.54-37.62-45.15-40.13-82.77z" fill="#2a6bbe"/><path d="m567.14 338.55 85.27-7.55v112.89l-87.78 12.54z" fill="#fff"/></svg>