<svg viewBox="0 0 1150.92 1150.92" xmlns="http://www.w3.org/2000/svg"><path d="m-103.5-100.08h1377v1314h-1377z" fill="#2a6ebb"/><g fill="#fff"><path d="m745.56 239.54h-343.48l-200.9 237.63 71.29-4.32v257.07l-54 8.64s-25.93 4.32-19.47 32.44c6.48 19.44 25.92 19.44 25.92 19.44l47.53-8.64v69.13l339.15 60.49 267.87-60.49v-373.76l73.45-6.48zm-69.13 283 73.45-6.48v97.21l-75.61 10.81zm-380.2 311.07v-54l146.9-23.76s25.92 0 23.76-28.08c-2.16-25.93-28.08-21.6-28.08-21.6l-142.58 21.6v-261.4l149.06-177.14 164.17 185.77v416.94c2.16-2.16-313.23-58.33-313.23-58.33zm378-75.61v-101.53l75.61-10.8v97.21zm166.34-30.24-60.49 10.8v-97.21l62.65-8.64v95zm-60.45-116.66v-97.21l62.65-6.48v95.05z"/><path d="m516.57 481.49c-17.28-19.44-41-32.4-67-32.4h-4.32c-25.93 2.16-47.53 15.12-64.81 36.72-15.12 21.6-25.92 47.53-25.92 77.77v8.64c2.16 30.24 13 58.33 30.24 77.77s41 32.4 67 32.4h4.32c25.92-2.16 47.52-15.12 64.8-36.72 15.13-21.6 25.93-47.53 25.93-77.77v-8.64c-2.16-30.24-13-58.33-30.25-77.77zm-10.8 153.38c-13 17.28-30.24 28.08-49.68 28.08h-2.16c-19.44 0-38.89-10.8-51.85-25.92-15.12-17.28-23.76-41-25.92-67v-6.48c0-25.92 8.64-49.69 21.6-67s30.24-28.08 49.69-28.08h2.16c19.44 0 38.88 10.8 51.84 25.92 15.12 17.28 23.77 41.05 25.93 67v6.48c0 25.92-8.65 49.69-21.61 67zm-88.57-67c-2.16-32.4 8.64-62.65 25.93-73.45-28.13 2.19-49.69 34.58-47.53 75.64 2.16 38.88 25.92 71.29 56.17 69.13-19.45-10.8-32.41-38.89-34.57-71.29z"/></g></svg>