<svg enable-background="new 0 0 900 900" viewBox="0 0 900 900" xmlns="http://www.w3.org/2000/svg"><path d="m647.5 60h-398.8l-233.2 275.9 82.8-5v298.4l-62.7 10s-30.1 5-22.6 37.6c7.5 22.6 30.1 22.6 30.1 22.6l55.2-10v80.2l393.7 70.3 311-70.2v-433.9l85.3-7.5zm-80.3 328.5 85.3-7.5v112.9l-87.8 12.5zm-441.4 361.2v-62.7l170.6-27.6s30.1 0 27.6-32.6c-2.5-30.1-32.6-25.1-32.6-25.1l-165.5 25.1v-303.5l173.1-205.7 190.6 215.7v484c2.4-2.4-363.8-67.6-363.8-67.6zm438.9-87.8v-117.9l87.8-12.5v112.9zm193.1-35.1-70.2 12.5v-112.8l72.7-10v110.3zm-70.2-135.4v-112.9l72.7-7.5v110.4z" fill="#2a6ebb"/><path d="m381.6 340.9c-20.1-22.6-47.6-37.6-77.8-37.6h-5c-30.1 2.5-55.2 17.6-75.2 42.6-17.5 25.1-30.1 55.2-30.1 90.3v10c2.5 35.1 15.1 67.7 35.1 90.3s47.7 37.6 77.7 37.6h5c30.1-2.5 55.2-17.6 75.2-42.6 17.5-25.1 30.1-55.2 30.1-90.3v-10c-2.4-35.1-14.9-67.7-35-90.3zm-12.5 178.1c-15 20-35.1 32.6-57.7 32.6h-2.5c-22.6 0-45.1-12.5-60.2-30.1-17.6-20.1-27.6-47.6-30.1-77.8v-7.5c0-30.1 10-57.7 25.1-77.8s35.1-32.6 57.7-32.6h2.5c22.6 0 45.1 12.5 60.2 30.1 17.6 20.1 27.6 47.6 30.1 77.8v7.5c0 30.1-10 57.7-25.1 77.8zm-102.8-77.8c-2.5-37.6 10-72.7 30.1-85.3-32.6 2.5-57.7 40.1-55.2 87.8 2.5 45.1 30.1 82.8 65.2 80.3-22.6-12.5-37.6-45.2-40.1-82.8z" fill="#2a6bbe"/></svg>