<?xml version="1.0" encoding="utf-8"?>
<!-- Generator: Adobe Illustrator 24.1.0, SVG Export Plug-In . SVG Version: 6.00 Build 0)  -->
<svg version="1.1" id="Layer_1" xmlns="http://www.w3.org/2000/svg" xmlns:xlink="http://www.w3.org/1999/xlink" x="0px" y="0px"
	 viewBox="0 0 360 72.3" style="enable-background:new 0 0 360 72.3;" xml:space="preserve">
<style type="text/css">
	.st0{fill:#FFFFFF;}
	.st1{fill:#FBB315;}
	.st2{fill:#FCD97F;}
	.st3{fill:#36BDB6;}
</style>
<g>
	<g>
		<path class="st0" d="M107.5,10.9v41.8h-9.8V35h-17v17.7H71V10.9h9.8v17.5h17V10.9H107.5z"/>
		<path class="st0" d="M127.4,22.5c2.3,0,4.3,0.4,6.2,1.1c1.9,0.7,3.4,1.7,4.8,3c1.3,1.3,2.4,2.9,3.1,4.8c0.7,1.9,1.1,4,1.1,6.4
			c0,2.4-0.4,4.5-1.1,6.4c-0.7,1.9-1.8,3.5-3.1,4.8s-2.9,2.4-4.8,3.1c-1.9,0.7-3.9,1.1-6.2,1.1c-2.3,0-4.3-0.4-6.2-1.1
			s-3.5-1.7-4.8-3.1s-2.4-2.9-3.1-4.8c-0.7-1.9-1.1-4-1.1-6.4c0-2.4,0.4-4.5,1.1-6.4c0.7-1.9,1.8-3.5,3.1-4.8c1.3-1.3,3-2.3,4.8-3
			S125.1,22.5,127.4,22.5z M127.4,46.6c2,0,3.6-0.7,4.5-2.2c1-1.4,1.4-3.6,1.4-6.6c0-2.9-0.5-5.1-1.4-6.6c-1-1.4-2.5-2.2-4.5-2.2
			c-2.1,0-3.6,0.7-4.6,2.2c-1,1.4-1.5,3.6-1.5,6.6c0,2.9,0.5,5.1,1.5,6.6C123.8,45.8,125.3,46.6,127.4,46.6z"/>
		<path class="st0" d="M165.9,29.5c-0.2,0.4-0.5,0.6-0.7,0.8c-0.3,0.2-0.6,0.2-1,0.2c-0.4,0-0.8-0.1-1.3-0.3
			c-0.4-0.2-0.9-0.4-1.4-0.6c-0.5-0.2-1-0.4-1.6-0.6s-1.3-0.3-2.1-0.3c-1.1,0-2,0.2-2.6,0.6c-0.6,0.4-0.9,1-0.9,1.8
			c0,0.6,0.2,1,0.6,1.4c0.4,0.4,0.9,0.7,1.6,1c0.7,0.3,1.4,0.5,2.2,0.8c0.8,0.2,1.7,0.5,2.5,0.8c0.9,0.3,1.7,0.7,2.5,1.1
			c0.8,0.4,1.6,0.9,2.2,1.5c0.7,0.6,1.2,1.3,1.6,2.2c0.4,0.9,0.6,1.9,0.6,3.1c0,1.5-0.3,2.8-0.8,4.1c-0.5,1.2-1.3,2.3-2.4,3.2
			s-2.4,1.6-3.9,2.1c-1.6,0.5-3.4,0.7-5.4,0.7c-1,0-2-0.1-3-0.3c-1-0.2-2-0.4-2.9-0.8c-0.9-0.3-1.8-0.7-2.6-1.2
			c-0.8-0.4-1.5-0.9-2.1-1.4l2.1-3.3c0.2-0.4,0.5-0.7,0.9-0.9c0.4-0.2,0.8-0.3,1.4-0.3c0.5,0,1,0.1,1.4,0.3s0.9,0.5,1.3,0.7
			c0.5,0.3,1,0.5,1.7,0.7s1.4,0.3,2.4,0.3c0.7,0,1.3-0.1,1.7-0.2c0.5-0.1,0.9-0.3,1.1-0.6c0.3-0.2,0.5-0.5,0.6-0.8
			c0.1-0.3,0.2-0.6,0.2-0.9c0-0.6-0.2-1.1-0.6-1.5c-0.4-0.4-0.9-0.7-1.6-1c-0.7-0.3-1.4-0.5-2.2-0.8c-0.8-0.2-1.7-0.5-2.5-0.8
			c-0.9-0.3-1.7-0.7-2.5-1.1s-1.6-1-2.2-1.6s-1.2-1.5-1.6-2.4c-0.4-1-0.6-2.1-0.6-3.5c0-1.3,0.2-2.5,0.7-3.6c0.5-1.1,1.2-2.1,2.2-3
			c1-0.9,2.2-1.5,3.7-2.1c1.5-0.5,3.2-0.8,5.2-0.8c1.1,0,2.1,0.1,3.1,0.3c1,0.2,1.9,0.5,2.8,0.8s1.7,0.8,2.4,1.2
			c0.7,0.5,1.4,1,1.9,1.5L165.9,29.5z"/>
		<path class="st0" d="M183.2,53.2c-1.4,0-2.7-0.2-3.7-0.6c-1.1-0.4-2-1-2.7-1.8c-0.7-0.8-1.3-1.7-1.7-2.7c-0.4-1.1-0.6-2.3-0.6-3.6
			V29.1H172c-0.5,0-0.9-0.1-1.2-0.4c-0.3-0.3-0.5-0.7-0.5-1.3v-3.5L175,23l1.8-7.3c0.2-0.9,0.9-1.4,2-1.4h4.6V23h7.4v6.1h-7.4v14.8
			c0,0.7,0.2,1.3,0.5,1.7c0.3,0.4,0.8,0.7,1.4,0.7c0.3,0,0.6,0,0.8-0.1c0.2-0.1,0.4-0.1,0.6-0.2c0.2-0.1,0.3-0.2,0.5-0.2
			s0.3-0.1,0.5-0.1c0.3,0,0.5,0.1,0.6,0.2c0.2,0.1,0.3,0.3,0.5,0.6l2.7,4.2c-1.1,0.9-2.4,1.5-3.9,1.9
			C186.2,53,184.7,53.2,183.2,53.2z"/>
		<path class="st0" d="M237.2,18.6h-11.8v34.1h-9.7V18.6H204v-7.7h33.2V18.6z"/>
		<path class="st0" d="M248,22.5c2.3,0,4.3,0.4,6.2,1.1c1.9,0.7,3.4,1.7,4.8,3c1.3,1.3,2.4,2.9,3.1,4.8c0.7,1.9,1.1,4,1.1,6.4
			c0,2.4-0.4,4.5-1.1,6.4c-0.7,1.9-1.8,3.5-3.1,4.8s-2.9,2.4-4.8,3.1c-1.9,0.7-3.9,1.1-6.2,1.1c-2.3,0-4.3-0.4-6.2-1.1
			s-3.5-1.7-4.8-3.1s-2.4-2.9-3.1-4.8c-0.7-1.9-1.1-4-1.1-6.4c0-2.4,0.4-4.5,1.1-6.4c0.7-1.9,1.8-3.5,3.1-4.8c1.3-1.3,3-2.3,4.8-3
			S245.7,22.5,248,22.5z M248,46.6c2,0,3.6-0.7,4.5-2.2c1-1.4,1.4-3.6,1.4-6.6c0-2.9-0.5-5.1-1.4-6.6c-1-1.4-2.5-2.2-4.5-2.2
			c-2.1,0-3.6,0.7-4.6,2.2c-1,1.4-1.5,3.6-1.5,6.6c0,2.9,0.5,5.1,1.5,6.6C244.3,45.8,245.9,46.6,248,46.6z"/>
		<path class="st0" d="M281.3,22.5c2.3,0,4.3,0.4,6.2,1.1c1.9,0.7,3.4,1.7,4.8,3c1.3,1.3,2.4,2.9,3.1,4.8c0.7,1.9,1.1,4,1.1,6.4
			c0,2.4-0.4,4.5-1.1,6.4c-0.7,1.9-1.8,3.5-3.1,4.8s-2.9,2.4-4.8,3.1c-1.9,0.7-3.9,1.1-6.2,1.1c-2.3,0-4.3-0.4-6.2-1.1
			s-3.5-1.7-4.8-3.1s-2.4-2.9-3.1-4.8c-0.7-1.9-1.1-4-1.1-6.4c0-2.4,0.4-4.5,1.1-6.4c0.7-1.9,1.8-3.5,3.1-4.8c1.3-1.3,3-2.3,4.8-3
			S279,22.5,281.3,22.5z M281.3,46.6c2,0,3.6-0.7,4.5-2.2c1-1.4,1.4-3.6,1.4-6.6c0-2.9-0.5-5.1-1.4-6.6c-1-1.4-2.5-2.2-4.5-2.2
			c-2.1,0-3.6,0.7-4.6,2.2c-1,1.4-1.5,3.6-1.5,6.6c0,2.9,0.5,5.1,1.5,6.6C277.7,45.8,279.2,46.6,281.3,46.6z"/>
		<path class="st0" d="M309.8,9.8v42.9h-8.9V9.8H309.8z"/>
		<path class="st0" d="M334.7,29.5c-0.2,0.4-0.5,0.6-0.7,0.8c-0.3,0.2-0.6,0.2-1,0.2c-0.4,0-0.8-0.1-1.3-0.3
			c-0.4-0.2-0.9-0.4-1.4-0.6c-0.5-0.2-1-0.4-1.6-0.6s-1.3-0.3-2.1-0.3c-1.1,0-2,0.2-2.6,0.6c-0.6,0.4-0.9,1-0.9,1.8
			c0,0.6,0.2,1,0.6,1.4c0.4,0.4,0.9,0.7,1.6,1c0.7,0.3,1.4,0.5,2.2,0.8c0.8,0.2,1.7,0.5,2.5,0.8c0.9,0.3,1.7,0.7,2.5,1.1
			c0.8,0.4,1.6,0.9,2.2,1.5c0.7,0.6,1.2,1.3,1.6,2.2c0.4,0.9,0.6,1.9,0.6,3.1c0,1.5-0.3,2.8-0.8,4.1c-0.5,1.2-1.3,2.3-2.4,3.2
			s-2.4,1.6-3.9,2.1c-1.6,0.5-3.4,0.7-5.4,0.7c-1,0-2-0.1-3-0.3c-1-0.2-2-0.4-2.9-0.8c-0.9-0.3-1.8-0.7-2.6-1.2
			c-0.8-0.4-1.5-0.9-2.1-1.4l2.1-3.3c0.2-0.4,0.5-0.7,0.9-0.9c0.4-0.2,0.8-0.3,1.4-0.3c0.5,0,1,0.1,1.4,0.3s0.9,0.5,1.3,0.7
			c0.5,0.3,1,0.5,1.7,0.7s1.4,0.3,2.4,0.3c0.7,0,1.3-0.1,1.7-0.2c0.5-0.1,0.9-0.3,1.1-0.6c0.3-0.2,0.5-0.5,0.6-0.8
			c0.1-0.3,0.2-0.6,0.2-0.9c0-0.6-0.2-1.1-0.6-1.5c-0.4-0.4-0.9-0.7-1.6-1c-0.7-0.3-1.4-0.5-2.2-0.8c-0.8-0.2-1.7-0.5-2.5-0.8
			c-0.9-0.3-1.7-0.7-2.5-1.1s-1.6-1-2.2-1.6s-1.2-1.5-1.6-2.4c-0.4-1-0.6-2.1-0.6-3.5c0-1.3,0.2-2.5,0.7-3.6c0.5-1.1,1.2-2.1,2.2-3
			c1-0.9,2.2-1.5,3.7-2.1c1.5-0.5,3.2-0.8,5.2-0.8c1.1,0,2.1,0.1,3.1,0.3c1,0.2,1.9,0.5,2.8,0.8s1.7,0.8,2.4,1.2
			c0.7,0.5,1.4,1,1.9,1.5L334.7,29.5z"/>
	</g>
	<g>
		<circle class="st1" cx="22.1" cy="60.4" r="11"/>
		<polygon class="st2" points="42.2,32.2 42.2,32.2 42.2,32.2 22.1,16.6 42.2,0.9 		"/>
		<polygon class="st1" points="42.2,32.2 22.1,46.7 2,32.2 2,32.2 22.1,16.6 		"/>
		<polygon class="st3" points="2,32.2 2,32.2 2,32.2 2,0.9 42.2,0.9 		"/>
	</g>
</g>
</svg>
