<?xml version="1.0" encoding="utf-8"?>
<!-- Generator: Adobe Illustrator 24.1.0, SVG Export Plug-In . SVG Version: 6.00 Build 0)  -->
<svg version="1.1" id="Layer_1" xmlns="http://www.w3.org/2000/svg" xmlns:xlink="http://www.w3.org/1999/xlink" x="0px" y="0px"
	 viewBox="0 0 1150.9 1150.9" style="enable-background:new 0 0 1150.9 1150.9;" xml:space="preserve">
<style type="text/css">
	.st0{fill:#0E214B;}
	.st1{fill:#8EC089;}
	.st2{fill:#E85F24;}
	.st3{fill:#318EEE;}
	.st4{fill:#2474DE;}
	.st5{fill:#76C5F7;}
</style>
<rect x="-186.2" y="-49.5" class="st0" width="1533.7" height="1344.3"/>
<g>
	<g id="Stripes_6_">
		<g id="V_6_">
			<g id="Stem_11_">
				<path class="st1" d="M580,723.6l18.1-37l-60.5-307.9c-17.2-86.7,2.7-124.6,71.3-137.3v-1.8h-63.2c-18.1,9-56.9,36.1-35.2,139.1
					L580,723.6z"/>
				<path class="st2" d="M543.9,798.5l18.1-37l-79.5-384.7c-14.4-74.1-8.1-112.9,16.3-135.5v-1.8h-42.4c-13.5,28-17.2,56-2.7,129.1
					L543.9,798.5z"/>
				<path class="st3" d="M347,240.4h-45.2v1.8c19.9,24.4,25.3,53.3,41.5,118.3l119.2,550.9h26.2L370.5,358.7
					C354.2,286.5,351.5,267.5,347,240.4z"/>
				<path class="st4" d="M508.6,872.6l18.1-36.1l-99.3-467.8c-17.2-73.1-13.5-105.7-6.3-129.1h-37.9c-0.9,29.8,0.9,54.2,14.4,116.5
					L508.6,872.6z"/>
				<path class="st5" d="M258.5,240.4h-47v1.8c43.3,17.2,65,50.6,82.2,127.3c0,0.9,117.4,541.8,117.4,541.8h26.2L319,365
					C298.2,270.2,276.5,253.1,258.5,240.4z"/>
			</g>
			<g id="Finial_6_">
				<path class="st2" d="M701.9,480.6l1.8,1.8c66.8-157.1,84-200.5,111.1-241.1v-1.8h-53.3v1.8C766,303.6,744.3,361.4,701.9,480.6z"
					/>
				<path class="st4" d="M865.3,240.4c-56,32.5-89.4,93.9-159.8,243.8l1.8,1.8c80.4-150.8,127.3-211.3,232.1-243.8v-1.8H865.3z"/>
				<path class="st1" d="M698.3,477.9l1.8,1.8c41.5-140,56-202.3,19-239.3h-52.4v1.8C724.5,262.1,737.1,321.7,698.3,477.9z"/>
			</g>
		</g>
	</g>
</g>
</svg>
