<?xml version="1.0" encoding="utf-8"?>
<!-- Generator: Adobe Illustrator 24.1.0, SVG Export Plug-In . SVG Version: 6.00 Build 0)  -->
<svg version="1.1" id="Layer_1" xmlns="http://www.w3.org/2000/svg" xmlns:xlink="http://www.w3.org/1999/xlink" x="0px" y="0px"
	 viewBox="0 0 273 87.5" style="enable-background:new 0 0 273 87.5;" xml:space="preserve">
<style type="text/css">
	.st0{fill:#2474DE;}
	.st1{fill:#76C5F7;}
	.st2{fill:#318EEE;}
	.st3{fill:#8EC089;}
	.st4{fill:#E85F24;}
</style>
<g>
	<path class="st0" d="M268.3,32.3v2.9h-0.4v-2.9h-1.3v-0.4h3v0.4H268.3z M273.3,35.2l-0.1-2.8l0,0l-1,2.8h-0.5l-0.9-2.8h-0.1
		l-0.1,2.8h-0.4l0.2-3.3h0.8l0.9,2.8h0.1l1-2.8h0.7l0.1,3.3H273.3z"/>
	<g id="Stripes_6_">
		<g id="_x30__6_">
			<g id="Right_bowl_6_">
				<path class="st0" d="M222.3,87.2c22.9-1.7,38.3-20.5,38.6-40.5c0.1-6.4-4.4-16.9-19.1-18.1l-0.1,0.1c12.2,1.3,16.5,10.1,16.4,16
					c-0.3,19.5-15.5,40.2-35.8,42.3V87.2z"/>
				<path class="st0" d="M222.7,86.3l-0.1,0.2c13.1-1.9,26.7-29.5,27.1-47.9c0.1-4-2.2-8.2-8.2-9.1l-0.1,0.2c3.9,1,5.4,3.5,5.3,7
					C246.5,54.4,233.2,84.3,222.7,86.3z"/>
				<path class="st0" d="M222.4,86.7c18-1.9,32.5-25,32.8-44.1c0.1-5.2-3.3-12.5-13.6-13.6l-0.1,0.2c8.1,1.2,10.9,6.9,10.8,11.5
					C252.1,59.5,238,84.7,222.4,86.7L222.4,86.7z"/>
				<path class="st0" d="M242,28.2L242,28.2c16.8,1.5,21.7,13.6,21.6,20.5c-0.3,20.3-16.1,36.6-41.5,38.6l-0.1,0.1
					c27.8-1.6,44.1-16.1,44.4-36.7C266.7,43.3,261.2,29.4,242,28.2z"/>
			</g>
			<g id="Left_bowl_6_">
				<path class="st1" d="M197.7,66.7c0.3-20.1,17.7-36.6,41.5-38.6l0.1-0.1c-26.6,1.6-44.1,16.1-44.5,36.5
					c-0.2,7.6,5.4,21.6,24.6,22.7l0.1-0.1C202.5,86,197.5,73.8,197.7,66.7z"/>
				<path class="st2" d="M214.4,79.1c0.3-17.3,13.9-47.8,24.2-49.8l0.1-0.2c-12.7,1.9-26.8,30-27.1,47.8c-0.1,4,2,8.6,8.2,9.3
					l0.1-0.2C215.6,85.4,214.3,82.5,214.4,79.1z"/>
				<path class="st1" d="M203.3,70.8c0.3-19.2,16-40.2,35.7-42.3l0.1-0.1c-22.2,1.7-38.4,20.6-38.7,40.3
					c-0.1,6.4,4.4,17.3,19.2,18.2l0.1-0.1C206.8,85.7,203.2,76.7,203.3,70.8z"/>
				<path class="st2" d="M208.9,75c0.3-18.3,15-44,30-46l0.1-0.2c-17.5,1.9-32.5,25.3-32.8,44.1c-0.1,5.2,3.4,12.9,13.6,13.7
					l0.1-0.2C211.6,85.4,208.8,79.6,208.9,75z"/>
			</g>
		</g>
		<g id="b_6_">
			<g id="Bowl_6_">
				<path class="st0" d="M142.9,86.6L142.9,86.6c20.7-2.4,36.1-27.6,37.5-43.9c0.5-5.3-2-8.2-5.6-8.7c-5.5-0.8-12.5,2.9-16.7,8.9
					l0.1,0.2c4-5.2,9.7-8.3,14.2-7.7c3.2,0.4,5.1,2.8,4.7,7.2C175.8,57.4,161.7,82.7,142.9,86.6z"/>
				<path class="st0" d="M143.1,86l-0.1,0.2c15.3-4.1,29.5-30.7,30.7-43.8c0.3-3.3-1.2-5.3-3.6-5.7c-3.6-0.5-8.3,2.2-11.7,6.6
					l0.1,0.2c2.8-3.3,6.6-5.8,9.3-5.4c1.8,0.3,2.9,1.8,2.7,4.3C169.6,53.8,156.4,80.4,143.1,86z"/>
				<path class="st0" d="M187,42.9c0.7-7.2-2.6-10.9-7.6-11.6c-7.3-1-16.1,3.4-21.6,11.3l0.1,0.2c4.9-6.8,12.8-11,19.2-10
					c4.4,0.6,7.2,3.9,6.7,10.2c-1.7,18-18.9,42.8-41.1,44.1l-0.1,0.1C167.5,87,185.2,62.6,187,42.9z"/>
				<path class="st0" d="M184.1,28.5c-9.2-1.3-20.3,4.1-26.5,13.6l0.1,0.2c5.9-8.5,15.9-13.6,24.1-12.5c5.5,0.8,9.3,4.9,8.5,13.1
					c-2,21-19.6,44.4-47.8,44.4l-0.1,0.2c29.3,1.1,49.1-21.9,51.2-44.5C194.5,34,190.3,29.4,184.1,28.5z"/>
			</g>
			<g id="Stem_12_">
				<path class="st0" d="M140.7,71.2c-1,2.6-3.3,8.2-3.4,11.3c-0.1,1.3,0.9,2.9,2.3,3.5c0.3,0.1,0.4,0.2,0.7,0.3l0.1-0.2
					c-0.3-0.3-0.9-1.1-0.7-2.4c0.3-3.1,2.7-8.6,3.8-11.3L171.9,0L168,0.8c0.2,0.9-7.5,19.8-7.8,20.8L140.7,71.2z"/>
				<path class="st1" d="M141.6,21.8l-16.5,42.6c-1,2.7-2.4,6.1-2.7,9.5c-0.6,7,5.5,12.7,17.4,13.1l0.1-0.1
					c-10.1-0.6-15.6-5.3-15-11.7c0.3-3.3,1.8-7.1,2.9-9.7l17.1-43.9c1.5-4,6.1-13.8,3.6-17.2l-3.9,0.8v0.3
					C147.1,9.3,143.4,17.3,141.6,21.8z"/>
				<path class="st2" d="M148.1,20.9l-17.8,45.8c-1,2.7-2.7,6.9-3,10.1c-0.5,5.6,4.1,9.4,12.7,10l0.1-0.1c-0.8-0.1-2.8-0.3-5.2-1.2
					c-3.5-1.3-5.2-3.7-5-7.2c0.3-3.3,2-7.7,3.1-10.5l18.2-46.9c0.9-2.5,6.1-14.3,4.9-18l-3.8,0.8V4C154.2,6.9,149.3,17.9,148.1,20.9
					z"/>
				<path class="st2" d="M135.5,68.9c-1,2.7-2.9,7.6-3.2,10.8c-0.3,4,3.1,6.1,7.7,6.8l0.1-0.1c-3.2-0.6-5.7-2.1-5.3-5.2
					c0.3-3.1,2.4-8.6,3.3-11.1l19-48.7c0.4-1.3,7.6-18.7,6.6-19.8l-3.9,0.8v0.3C160,7,155,18.6,154,21.3L135.5,68.9z"/>
				<path class="st1" d="M139.7,87.3c-13.6-0.6-20.5-7.2-19.8-14.9c0.3-3.3,1.5-6.4,2.6-9l15.7-40.7c2-5.1,5.7-12.7,2.7-16.6
					l-3.5,0.8v0.2c3,3.4,0.3,9-1.9,14.7l-15.7,40.4c-1,2.6-2.1,5.4-2.4,8.8C116.6,79.3,124.1,86.9,139.7,87.3L139.7,87.3z"/>
			</g>
		</g>
		<g id="r_6_">
			<path class="st0" d="M121.8,36.1c-0.3-5.4-3.5-7.9-7.4-7.9c-7,0-13.2,5.6-17,13.1c0-0.9,0-1.7,0-2.7c-0.3-5.9-4.3-10.5-11.6-10.5
				c-15.3,0-22.9,10.1-25.4,21.6h0.1c2.7-10.7,9.8-20.4,23.6-20.4c6.6,0,10.2,4.1,10.5,9.4c0.3,7-2,12.4-4.3,18.6L79.1,86.5h3.1
				l11.1-28.9c0.8-2,1.5-3.9,2.1-5.7l0,0c2.2-4.6,4.9-9.3,6.4-9.3c1,0,1.4,0.9,1.5,1.7c0.3,3.1-0.9,8.1-3.3,12.5l0.1,0.1
				c2.8-2.5,5.9-9.9,5.8-13.8c-0.1-1.5-0.7-2.6-2.2-2.6c-2.4,0-5.4,4.9-7.6,10c0.3-0.9,0.5-1.6,0.7-2.5c2.4-5.2,5.7-9.6,8.8-9.6
				c1.9,0,3,1.3,3.1,3.4c0.3,5.2-4.4,12.7-8.2,15.2l0.1,0.1c5.3-2.3,11.2-10.1,10.8-16.5c-0.2-2.8-1.6-4.4-4-4.4
				c-3.9,0-7.6,4.6-10.3,10.1c0.1-0.4,0.2-0.9,0.3-1.4c2.9-6,7.2-10.8,11.9-10.8c2.6,0,4.6,1.8,4.7,5.2c0.4,7.6-6.7,15.5-13.2,18
				l0.1,0.1c7.9-2,16.1-10.5,15.7-19.2c-0.3-4.1-2.6-6.1-5.6-6.1c-5.5,0-10.3,5-13.5,11.5c0-0.3,0.1-0.7,0.1-1.1
				c3.5-7,9-12.4,15.3-12.4c3.4,0,6.3,2.2,6.5,7c0.5,10-8.8,18.5-18.2,20.6l0.1,0.1C112.1,56.3,122.4,47.2,121.8,36.1z"/>
			<path class="st1" d="M80.8,39.6c-0.2-2.7-1.9-4.6-5-4.6c-6.7,0-11.9,7.1-14.3,14.7h0.2c2.6-6.8,7-13.6,12.5-13.6
				c2.3,0,3.7,1.3,3.9,3.5c0.2,3.7-3.5,11.9-5.2,16.5L60.5,86.6h3.1l11.9-30.1C77.5,51.6,81.1,43.7,80.8,39.6z"/>
			<path class="st1" d="M75.3,39.9c-0.1-1.8-1.1-2.7-2.7-2.7c-3.9,0-8.1,6.1-10.6,12.5h0.2c2.6-5.7,6.4-11.3,8.7-11.3
				c0.9,0,1.5,0.4,1.6,1.6c0.2,2.5-4,11.8-5.7,15.8L54.4,86.5h3.1L69.8,56C71.5,51.7,75.5,42.8,75.3,39.9z"/>
			<path class="st2" d="M91.9,39c-0.3-4.8-3.5-8.6-9.4-8.6c-12.2,0-19.2,9.1-21.7,19.3H61c2.7-9.5,8.9-18.1,19.9-18.1
				c5.2,0,8.1,3.2,8.3,7.6c0.3,5.8-2.4,12.1-4.6,18L73.1,86.7h3.1l11.3-29.4C89.6,51.3,92.2,45.2,91.9,39z"/>
			<path class="st2" d="M86.3,39.2c-0.2-3.8-2.7-6.6-7.2-6.6c-9.6,0-15.5,8.3-18,17.1h0.2c2.7-8.2,8.2-15.9,16.1-15.9
				c3.8,0,5.9,2.3,6.1,5.7c0.3,4.6-2.9,12-5,17.2L66.6,86.6h3.2l11.6-29.8C83.5,51.3,86.6,44.5,86.3,39.2z"/>
		</g>
		<g id="V_6_">
			<g id="Stem_11_">
				<path class="st3" d="M41.8,65.9l2-4.1l-6.7-34.1c-1.9-9.6,0.3-13.8,7.9-15.2v-0.2h-7c-2,1-6.3,4-3.9,15.4L41.8,65.9z"/>
				<path class="st4" d="M37.8,74.2l2-4.1L31,27.5c-1.6-8.2-0.9-12.5,1.8-15v-0.2h-4.7c-1.5,3.1-1.9,6.2-0.3,14.3L37.8,74.2z"/>
				<path class="st2" d="M16,12.4h-5v0.2c2.2,2.7,2.8,5.9,4.6,13.1l13.2,61h2.9L18.6,25.5C16.8,17.5,16.5,15.4,16,12.4z"/>
				<path class="st0" d="M33.9,82.4l2-4l-11-51.8c-1.9-8.1-1.5-11.7-0.7-14.3H20c-0.1,3.3,0.1,6,1.6,12.9L33.9,82.4z"/>
				<path class="st1" d="M6.2,12.4H1v0.2c4.8,1.9,7.2,5.6,9.1,14.1c0,0.1,13,60,13,60H26L12.9,26.2C10.6,15.7,8.2,13.8,6.2,12.4z"/>
			</g>
			<g id="Finial_6_">
				<path class="st4" d="M55.3,39l0.2,0.2c7.4-17.4,9.3-22.2,12.3-26.7v-0.2h-5.9v0.2C62.4,19.4,60,25.8,55.3,39z"/>
				<path class="st0" d="M73.4,12.4c-6.2,3.6-9.9,10.4-17.7,27l0.2,0.2c8.9-16.7,14.1-23.4,25.7-27v-0.2H73.4z"/>
				<path class="st3" d="M54.9,38.7l0.2,0.2c4.6-15.5,6.2-22.4,2.1-26.5h-5.8v0.2C57.8,14.8,59.2,21.4,54.9,38.7z"/>
			</g>
		</g>
	</g>
</g>
</svg>
