<?xml version="1.0" encoding="utf-8"?>
<!-- Generator: Adobe Illustrator 24.1.0, SVG Export Plug-In . SVG Version: 6.00 Build 0)  -->
<svg version="1.1" id="Layer_1" xmlns="http://www.w3.org/2000/svg" xmlns:xlink="http://www.w3.org/1999/xlink" x="0px" y="0px"
	 viewBox="0 0 80.6 74.4" style="enable-background:new 0 0 80.6 74.4;" xml:space="preserve">
<style type="text/css">
	.st0{fill:#8EC089;}
	.st1{fill:#E85F24;}
	.st2{fill:#318EEE;}
	.st3{fill:#2474DE;}
	.st4{fill:#76C5F7;}
</style>
<g>
	<g id="Stripes_6_">
		<g id="V_6_">
			<g id="Stem_11_">
				<path class="st0" d="M40.8,53.6l2-4.1l-6.7-34.1C34.2,5.8,36.4,1.6,44,0.2V0h-7c-2,1-6.3,4-3.9,15.4L40.8,53.6z"/>
				<path class="st1" d="M36.8,61.9l2-4.1L30,15.2c-1.6-8.2-0.9-12.5,1.8-15V0h-4.7c-1.5,3.1-1.9,6.2-0.3,14.3L36.8,61.9z"/>
				<path class="st2" d="M15,0.1h-5v0.2c2.2,2.7,2.8,5.9,4.6,13.1l13.2,61h2.9L17.6,13.2C15.8,5.2,15.5,3.1,15,0.1z"/>
				<path class="st3" d="M32.9,70.1l2-4l-11-51.8C22,6.2,22.4,2.6,23.2,0H19c-0.1,3.3,0.1,6,1.6,12.9L32.9,70.1z"/>
				<path class="st4" d="M5.2,0.1H0v0.2c4.8,1.9,7.2,5.6,9.1,14.1c0,0.1,13,60,13,60H25L11.9,13.9C9.6,3.4,7.2,1.5,5.2,0.1z"/>
			</g>
			<g id="Finial_6_">
				<path class="st1" d="M54.3,26.7l0.2,0.2C61.9,9.5,63.8,4.7,66.8,0.2V0h-5.9v0.2C61.4,7.1,59,13.5,54.3,26.7z"/>
				<path class="st3" d="M72.4,0.1c-6.2,3.6-9.9,10.4-17.7,27l0.2,0.2C63.8,10.6,69,3.9,80.6,0.3V0.1H72.4z"/>
				<path class="st0" d="M53.9,26.4l0.2,0.2c4.6-15.5,6.2-22.4,2.1-26.5h-5.8v0.2C56.8,2.5,58.2,9.1,53.9,26.4z"/>
			</g>
		</g>
	</g>
</g>
</svg>
